<svg xmlns="http://www.w3.org/2000/svg" viewBox="0 0 750 500"><g id="freepik--background-simple--inject-61"><path d="M549.61,126a223.41,223.41,0,0,0-13.74-20.78c-58.33-77-214.57-118.94-292-39.34-18.45,19-24.88,41.9-37.3,63.66-28.25,49.48-81,79.07-114.11,124.89-25.65,35.53-22.23,81-7.93,119.45,15.55,41.73,42.92,70.87,86.69,93,49.07,24.83,101.55,17.94,154.59,9.3,23.85-3.89,48.45-7.85,72.84-6.37,30.53,1.86,60.68,9.34,91,13,31.51,3.78,64.2,4.67,94.55-3.57,97.19-26.39,120.22-150.08,80.25-220.94-14.15-25.08-38.13-44.42-60.39-64.06C580,173.08,565.29,152.34,549.61,126Z" style="fill:#407BFF"></path><path d="M549.61,126a223.41,223.41,0,0,0-13.74-20.78c-58.33-77-214.57-118.94-292-39.34-18.45,19-24.88,41.9-37.3,63.66-28.25,49.48-81,79.07-114.11,124.89-25.65,35.53-22.23,81-7.93,119.45,15.55,41.73,42.92,70.87,86.69,93,49.07,24.83,101.55,17.94,154.59,9.3,23.85-3.89,48.45-7.85,72.84-6.37,30.53,1.86,60.68,9.34,91,13,31.51,3.78,64.2,4.67,94.55-3.57,97.19-26.39,120.22-150.08,80.25-220.94-14.15-25.08-38.13-44.42-60.39-64.06C580,173.08,565.29,152.34,549.61,126Z" style="fill:#fff;opacity:0.8"></path></g><g id="freepik--Floor--inject-61"><ellipse cx="381.5" cy="460.62" rx="302.62" ry="8.8" style="fill:#263238"></ellipse></g><g id="freepik--Plants--inject-61"><path d="M231,201.36c2.53-1,6.77-5.36,6.77-5.36s-3.73-1.92-4-2c-2.92-1.05-9.17-1.36-11.29,1.39a4.11,4.11,0,0,0,1.27,6C225.83,202.65,228.81,202.19,231,201.36Z" style="fill:#407BFF"></path><path d="M244.87,212.43c2.11-1.55,4.87-6.49,5.08-6.88a72.83,72.83,0,0,0,8.76,4.17c1.75.71,3.54,1.36,5.33,2-.86-.17-1.63-.31-1.74-.32-3.09-.24-9.21,1.1-10.53,4.32a4.11,4.11,0,0,0,2.81,5.43c2.35.69,5.11-.54,7-1.91s4.33-5.56,5-6.67l2.07.71c3.33,1.13,6.65,2.23,9.87,3.42,1.14.41,2.24.87,3.35,1.32l-1.52-.28c-3.09-.24-9.2,1.11-10.52,4.32a4.11,4.11,0,0,0,2.81,5.43c2.35.7,5.1-.53,7-1.91s4.09-5.15,4.84-6.47c1.12.49,2.24,1,3.3,1.52.72.37,1.44.69,2.14,1.11l2.08,1.19c1.29.8,2.64,1.62,3.88,2.44.87.56,1.69,1.11,2.51,1.67-1.12-.43-3.35-1.22-3.54-1.27-3-.71-9.26-.3-11.05,2.67a4.11,4.11,0,0,0,1.95,5.8c2.21,1,5.12.24,7.17-.83,2.26-1.18,5.62-5.46,6-6,1.36.92,2.68,1.83,3.91,2.71s2.14,1.53,3.12,2.26l1.55-1.53c-1.1-.78-2.26-1.58-3.5-2.42s-2.87-1.92-4.42-2.91a43.77,43.77,0,0,0,1.81-4.92c2.62.12,7.44-1.48,8.06-1.69.63,1.52,1.23,3,1.77,4.41.37,1,.73,1.9,1.06,2.81l1.64-1.62-.79-1.95c-.64-1.55-1.34-3.19-2.09-4.86.56-.36,5.13-3.35,6.5-5.5,1.25-1.95,2.3-4.78,1.45-7.08a4.12,4.12,0,0,0-5.61-2.44c-3.11,1.53-4.06,7.71-3.61,10.78,0,.18.53,2.11.86,3.33-.3-.69-.59-1.35-.92-2-.63-1.39-1.3-2.75-2-4.23l-1.13-2.11c-.36-.72-.83-1.43-1.25-2.15-1-1.65-2.1-3.27-3.24-4.88,1.22-.56,5.5-2.6,7-4.35s3-4.37,2.5-6.78a4.1,4.1,0,0,0-5.16-3.26c-3.32,1-5.19,7-5.21,10.11,0,.19.23,2.42.38,3.64-.7-1-1.38-1.93-2.12-2.88-2.11-2.75-4.34-5.47-6.55-8.19l-2-2.5c.44-.2,5.58-2.51,7.3-4.47,1.52-1.73,3-4.37,2.5-6.77a4.11,4.11,0,0,0-5.17-3.27c-3.31,1-5.19,7-5.21,10.11,0,.23.33,3.44.46,4.25-1.47-1.85-2.92-3.7-4.28-5.58a74.36,74.36,0,0,1-5-7.92c.21-.09,5.58-2.48,7.34-4.49,1.53-1.74,3-4.38,2.5-6.78a4.1,4.1,0,0,0-5.16-3.26c-3.32,1-5.19,7-5.21,10.11,0,.24.36,3.69.47,4.31l-.28-.48a53.54,53.54,0,0,1-3.51-8.72c-.52-1.66-.93-3.27-1.3-4.84,1.05-.34,5.82-2,7.6-3.59s3.46-4,3.23-6.46a4.11,4.11,0,0,0-4.77-3.82c-3.41.67-5.93,6.4-6.29,9.48,0,.17,0,1.89,0,3.15-.15-.72-.32-1.45-.46-2.14-.5-2.57-.8-5-1.05-7.08-.14-1.21-.23-2.3-.31-3.32.85-.88,4.24-4.43,5.06-6.66s1.21-5.16-.12-7.22a4.11,4.11,0,0,0-6-1.19c-2.72,2.16-2.31,8.41-1.22,11.31.1.25,2,4,2.07,4l.05-.06c.06,1,.13,2.05.23,3.2.21,2.13.46,4.53.91,7.13a72.56,72.56,0,0,0,1.85,8.31,54.5,54.5,0,0,0,3.36,8.91l.06.1c-.7-.74-2.73-2.73-2.91-2.86-2.44-1.91-8.28-4.16-11.15-2.21a4.11,4.11,0,0,0-.66,6.08c1.58,1.88,4.55,2.37,6.86,2.25,2.61-.13,7.64-2.73,8-2.94a73.34,73.34,0,0,0,5,8.32c1.07,1.55,2.2,3.08,3.35,4.6l-1.28-1.23c-2.45-1.9-8.29-4.15-11.16-2.2a4.11,4.11,0,0,0-.66,6.08c1.58,1.87,4.56,2.37,6.87,2.25s6.68-2.25,7.81-2.83c.45.58.89,1.17,1.34,1.74,2.15,2.77,4.31,5.53,6.35,8.3.71,1,1.39,2,2.06,2.94-.56-.55-1-1-1.11-1.06-2.45-1.91-8.29-4.16-11.16-2.21a4.1,4.1,0,0,0-.65,6.08c1.57,1.88,4.55,2.37,6.86,2.26s6.26-2,7.61-2.73c.66,1,1.33,2.06,1.92,3.08.39.72.81,1.37,1.17,2.11l1.08,2.14c.63,1.38,1.3,2.81,1.88,4.18.42,1,.8,1.86,1.18,2.77-.7-1-2.12-2.86-2.25-3a16.06,16.06,0,0,0-7-4,4.94,4.94,0,0,0-.68-.61,4.11,4.11,0,0,0-6,1c-1.76,3,.87,8.68,2.93,11,.12.14,1.61,1.47,2.56,2.3-.64-.4-1.24-.8-1.9-1.2-1.29-.81-2.61-1.58-4-2.41l-2.11-1.15c-.69-.39-1.48-.72-2.22-1.09-1.75-.83-3.56-1.58-5.4-2.29.71-1.14,3.15-5.2,3.47-7.5s.08-5.31-1.66-7a4.11,4.11,0,0,0-6.11.13c-2.19,2.69-.45,8.71,1.23,11.31.11.16,1.53,1.89,2.33,2.82-1.11-.42-2.22-.84-3.35-1.23-3.28-1.13-6.64-2.17-10-3.22l-3.06-1c.25-.4,3.27-5.16,3.62-7.74.32-2.3.08-5.31-1.65-7a4.11,4.11,0,0,0-6.11.13c-2.2,2.69-.46,8.71,1.23,11.31.12.19,2.17,2.68,2.72,3.28-2.24-.72-4.47-1.46-6.64-2.28a73.17,73.17,0,0,1-8.56-3.85c.12-.18,3.29-5.14,3.65-7.79.32-2.29.08-5.3-1.65-7a4.11,4.11,0,0,0-6.11.13c-2.2,2.69-.46,8.71,1.23,11.3.13.21,2.34,2.88,2.77,3.34-.16-.09-.34-.16-.49-.25a51.89,51.89,0,0,1-7.75-5.34c-1.35-1.08-2.57-2.2-3.75-3.32.69-.86,3.77-4.84,4.36-7.18s.66-5.26-.87-7.17a4.11,4.11,0,0,0-6.09-.55c-2.47,2.44-1.41,8.6,0,11.37.08.15,1,1.6,1.72,2.64-.52-.51-1.07-1-1.56-1.52-1.84-1.87-3.41-3.7-4.79-5.33-.78-.93-1.46-1.79-2.09-2.6.23-1.2,1.09-6,.55-8.34s-1.84-5-4.08-6a4.12,4.12,0,0,0-5.66,2.32c-1.07,3.31,2.72,8.29,5.23,10.11.21.15,3.89,2.22,3.9,2.16l0-.08c.59.79,1.23,1.64,1.95,2.54,1.35,1.66,2.89,3.53,4.69,5.45a75.92,75.92,0,0,0,6.13,5.91,53.54,53.54,0,0,0,7.72,5.57l.1.05c-1-.22-3.78-.76-4-.78-3.09-.24-9.2,1.11-10.52,4.32a4.11,4.11,0,0,0,2.81,5.43C240.26,215,243,213.8,244.87,212.43Z" style="fill:#407BFF"></path><path d="M275.75,159c.06,0-2.06-3.66-2.22-3.88-1.85-2.48-6.89-6.19-10.18-5.07a4.11,4.11,0,0,0-2.23,5.69c1,2.23,3.76,3.49,6,4C269.8,160.31,275.75,159,275.75,159Z" style="fill:#407BFF"></path><path d="M532.29,206.93c-2.57-.89-6.95-5.12-6.95-5.13s3.66-2,3.91-2.14c2.88-1.15,9.12-1.67,11.33,1a4.1,4.1,0,0,1-1.07,6C537.47,208.05,534.48,207.69,532.29,206.93Z" style="fill:#407BFF"></path><path d="M518.77,218.47c-2.15-1.48-5.08-6.32-5.31-6.71a72,72,0,0,1-8.61,4.46c-1.72.77-3.48,1.49-5.26,2.18l1.74-.38c3.08-.34,9.23.8,10.66,4a4.11,4.11,0,0,1-2.62,5.52c-2.33.78-5.12-.36-7-1.66s-4.52-5.41-5.18-6.5l-2.05.78c-3.29,1.23-6.57,2.45-9.75,3.75-1.12.45-2.21.94-3.3,1.43.76-.18,1.4-.32,1.5-.33,3.08-.35,9.24.8,10.67,4a4.11,4.11,0,0,1-2.63,5.52c-2.32.78-5.12-.36-7-1.67s-4.26-5-5.06-6.3c-1.1.53-2.2,1.06-3.25,1.62-.7.41-1.41.74-2.09,1.19l-2,1.26c-1.27.84-2.58,1.71-3.8,2.57-.85.59-1.64,1.17-2.45,1.75,1.11-.47,3.3-1.33,3.5-1.39,3-.8,9.24-.61,11.13,2.3a4.11,4.11,0,0,1-1.75,5.86c-2.18,1.12-5.12.42-7.2-.59-2.3-1.1-5.8-5.26-6.23-5.79-1.34,1-2.62,1.92-3.82,2.84s-2.09,1.6-3.05,2.36L456.87,239c1.06-.81,2.2-1.66,3.41-2.54s2.81-2,4.32-3a44.19,44.19,0,0,1-2-4.86c-2.62.21-7.49-1.23-8.11-1.42-.58,1.54-1.13,3-1.62,4.47-.35,1-.67,1.93-1,2.84l-1.69-1.56c.23-.65.47-1.3.72-2,.58-1.56,1.23-3.22,1.92-4.92-.57-.35-5.23-3.17-6.68-5.28-1.31-1.9-2.46-4.7-1.69-7A4.1,4.1,0,0,1,450,211c3.17,1.41,4.32,7.57,4,10.65,0,.18-.46,2.13-.75,3.35.28-.69.55-1.37.85-2.08.59-1.41,1.21-2.79,1.88-4.29l1.05-2.15c.34-.73.79-1.45,1.18-2.19.95-1.68,2-3.34,3.07-5-1.23-.52-5.58-2.41-7.17-4.1s-3.14-4.28-2.73-6.69a4.11,4.11,0,0,1,5.06-3.44c3.34.92,5.41,6.83,5.55,9.93,0,.19-.15,2.42-.26,3.65.66-1,1.31-2,2-2.95,2-2.82,4.16-5.61,6.27-8.4l1.93-2.58c-.44-.18-5.66-2.32-7.44-4.21-1.59-1.69-3.14-4.28-2.73-6.69a4.1,4.1,0,0,1,5.05-3.44c3.35.92,5.42,6.83,5.55,9.93,0,.23-.22,3.44-.32,4.26,1.41-1.89,2.8-3.79,4.09-5.72a72,72,0,0,0,4.75-8.09c-.21-.08-5.66-2.29-7.49-4.23-1.58-1.69-3.14-4.28-2.73-6.69a4.11,4.11,0,0,1,5.06-3.44c3.34.92,5.42,6.83,5.55,9.93,0,.24-.24,3.7-.33,4.32.08-.16.18-.32.26-.49a53.37,53.37,0,0,0,3.22-8.83c.46-1.67.82-3.3,1.13-4.88-1.06-.31-5.88-1.77-7.72-3.33s-3.59-3.91-3.44-6.35a4.11,4.11,0,0,1,4.64-4c3.43.56,6.14,6.2,6.61,9.26,0,.17.09,1.89.13,3.15.13-.72.27-1.46.38-2.15.42-2.59.64-5,.82-7.12.09-1.21.15-2.3.2-3.33-.88-.84-4.39-4.28-5.28-6.48s-1.39-5.12-.14-7.22a4.11,4.11,0,0,1,6-1.39c2.79,2.07,2.59,8.33,1.6,11.26-.09.26-1.89,4.07-1.94,4l-.05-.05c0,1-.06,2.05-.12,3.21-.14,2.13-.31,4.54-.67,7.15a70.26,70.26,0,0,1-1.57,8.37,54.25,54.25,0,0,1-3.06,9,.31.31,0,0,0-.05.1c.67-.76,2.64-2.82,2.81-3,2.37-2,8.14-4.43,11.07-2.58a4.1,4.1,0,0,1,.86,6c-1.51,1.93-4.47,2.53-6.78,2.49-2.61,0-7.73-2.47-8.13-2.67a73.39,73.39,0,0,1-4.72,8.48c-1,1.59-2.09,3.16-3.19,4.72.61-.64,1.16-1.21,1.24-1.28,2.38-2,8.14-4.43,11.08-2.58a4.11,4.11,0,0,1,.86,6c-1.51,1.93-4.47,2.53-6.79,2.49s-6.75-2-7.9-2.56L471,198.06c-2.06,2.84-4.12,5.67-6.06,8.5-.69,1-1.32,2-2,3,.53-.57,1-1,1.07-1.1,2.38-2,8.14-4.44,11.08-2.58a4.11,4.11,0,0,1,.86,6c-1.51,1.93-4.47,2.52-6.79,2.48s-6.32-1.83-7.7-2.46c-.62,1.05-1.25,2.1-1.81,3.15-.37.72-.77,1.39-1.09,2.14s-.68,1.45-1,2.17c-.59,1.41-1.21,2.86-1.75,4.24-.38,1-.73,1.89-1.08,2.82.67-1,2-2.94,2.15-3.09a16.06,16.06,0,0,1,6.84-4.25,4.29,4.29,0,0,1,.66-.62,4.1,4.1,0,0,1,6,.84c1.86,2.93-.57,8.7-2.56,11.08-.11.14-1.55,1.53-2.48,2.38l1.86-1.26c1.27-.85,2.55-1.66,3.94-2.54l2.06-1.22c.68-.42,1.46-.77,2.19-1.17,1.72-.88,3.5-1.69,5.32-2.47-.75-1.11-3.33-5.09-3.72-7.38s-.26-5.3,1.41-7.08a4.11,4.11,0,0,1,6.12-.08c2.28,2.61.75,8.68-.85,11.34-.1.16-1.46,1.94-2.23,2.9,1.09-.46,2.18-.92,3.31-1.35,3.24-1.23,6.56-2.38,9.86-3.55l3-1.08c-.27-.39-3.44-5-3.88-7.62-.4-2.28-.26-5.3,1.41-7.08a4.09,4.09,0,0,1,6.11-.08c2.28,2.61.75,8.68-.85,11.34-.12.2-2.08,2.75-2.61,3.37,2.22-.8,4.42-1.61,6.56-2.51a72.3,72.3,0,0,0,8.42-4.13c-.12-.18-3.45-5-3.9-7.66-.4-2.28-.26-5.29,1.41-7.08a4.1,4.1,0,0,1,6.11-.08c2.28,2.61.75,8.69-.85,11.34-.12.21-2.23,3-2.65,3.42.15-.09.33-.16.48-.26a53.45,53.45,0,0,0,7.56-5.59c1.31-1.14,2.5-2.3,3.63-3.45-.71-.84-3.92-4.71-4.59-7s-.84-5.24.62-7.2a4.11,4.11,0,0,1,6.07-.75c2.56,2.35,1.7,8.55.4,11.36-.07.16-1,1.63-1.62,2.7.5-.53,1-1.06,1.5-1.58,1.78-1.93,3.29-3.81,4.61-5.48.75-1,1.4-1.84,2-2.67-.26-1.19-1.29-6-.82-8.32s1.66-5,3.87-6.1a4.11,4.11,0,0,1,5.73,2.13c1.18,3.26-2.43,8.37-4.88,10.27-.21.17-3.82,2.35-3.83,2.29l0-.07c-.56.81-1.18,1.67-1.87,2.6-1.29,1.71-2.76,3.63-4.5,5.6a74.42,74.42,0,0,1-5.92,6.12,53.66,53.66,0,0,1-7.53,5.83l-.1,0c1-.26,3.75-.89,4-.91,3.08-.35,9.24.79,10.66,4a4.1,4.1,0,0,1-2.62,5.52C523.48,220.91,520.68,219.78,518.77,218.47Z" style="fill:#407BFF"></path><path d="M486.11,166.11c-.06,0,1.93-3.73,2.08-4,1.77-2.54,6.69-6.42,10-5.41a4.1,4.1,0,0,1,2.42,5.61c-.94,2.26-3.64,3.61-5.88,4.19C492.11,167.22,486.11,166.11,486.11,166.11Z" style="fill:#407BFF"></path><path d="M309.38,148.94a14,14,0,0,0,4-1.11s-1.31-1.56-1.4-1.65c-1.11-1-3.84-2.34-5.31-1.52a2,2,0,0,0-.56,2.92A4.16,4.16,0,0,0,309.38,148.94Z" style="fill:#407BFF"></path><path d="M313.49,156.52a13.67,13.67,0,0,0,3.58-2.12,35.36,35.36,0,0,0,3.12,3.53c.65.64,1.32,1.27,2,1.9l-.72-.48c-1.33-.69-4.32-1.24-5.51-.06a2,2,0,0,0,.22,3,4.2,4.2,0,0,0,3.48.47,13.18,13.18,0,0,0,3.47-2.05l.79.71c1.28,1.13,2.55,2.26,3.77,3.4.43.4.83.81,1.24,1.22l-.62-.41c-1.34-.69-4.32-1.25-5.52-.06a2,2,0,0,0,.23,2.95,4.15,4.15,0,0,0,3.47.47,12.83,12.83,0,0,0,3.39-2c.41.43.82.86,1.19,1.3s.51.58.74.9.47.62.71.92c.42.61.87,1.23,1.27,1.83.28.41.54.82.81,1.22-.42-.41-1.27-1.18-1.35-1.24-1.21-.88-4.08-1.88-5.44-.89a2,2,0,0,0-.22,2.95,4.15,4.15,0,0,0,3.36,1,13.73,13.73,0,0,0,3.83-1.54c.43.67.85,1.33,1.23,2s.67,1.09,1,1.6l1-.39c-.34-.55-.71-1.13-1.1-1.74s-.92-1.4-1.43-2.14a18.76,18.76,0,0,0,1.74-1.85,15.23,15.23,0,0,0,3.92.77c0,.79,0,1.57,0,2.3,0,.51,0,1-.06,1.46l1-.42c0-.33,0-.67,0-1,0-.81,0-1.67,0-2.56a14,14,0,0,0,4-1.23,4.15,4.15,0,0,0,2-2.89,2,2,0,0,0-2-2.15c-1.68.09-3.27,2.68-3.66,4.13,0,.09-.16,1-.24,1.65,0-.36,0-.71,0-1.09,0-.74-.06-1.47-.11-2.27,0-.38-.06-.77-.1-1.16s-.1-.79-.15-1.19c-.14-.93-.32-1.86-.52-2.8a13.14,13.14,0,0,0,4-.61,4.17,4.17,0,0,0,2.4-2.55,2,2,0,0,0-1.69-2.44c-1.68-.16-3.65,2.15-4.24,3.53,0,.09-.36,1.13-.52,1.7-.13-.56-.25-1.12-.4-1.69-.43-1.62-.91-3.26-1.38-4.89-.15-.5-.28-1-.43-1.5a14,14,0,0,0,4.11-.62,4.17,4.17,0,0,0,2.4-2.55,2,2,0,0,0-1.69-2.44c-1.68-.16-3.65,2.15-4.24,3.53,0,.11-.5,1.6-.6,2-.31-1.1-.61-2.2-.86-3.3a36.2,36.2,0,0,1-.74-4.49,14.14,14.14,0,0,0,4.13-.62,4.17,4.17,0,0,0,2.4-2.55,2,2,0,0,0-1.7-2.44c-1.67-.16-3.64,2.15-4.24,3.53,0,.11-.53,1.72-.6,2l0-.27a25.51,25.51,0,0,1,.08-4.56c.08-.84.2-1.63.33-2.41a13.24,13.24,0,0,0,4.08-.16,4.18,4.18,0,0,0,2.66-2.28,2,2,0,0,0-1.41-2.61c-1.65-.34-3.86,1.74-4.6,3.05,0,.07-.37.84-.61,1.4.07-.35.13-.71.2-1,.26-1.25.58-2.37.87-3.37.17-.56.33-1.07.49-1.54a13.52,13.52,0,0,0,3.52-2,4.12,4.12,0,0,0,1.31-3.25,2,2,0,0,0-2.45-1.66c-1.62.45-2.62,3.32-2.68,4.82,0,.13.14,2.17.17,2.16h0c-.17.45-.33.94-.51,1.47-.31,1-.65,2.11-.94,3.36a33.91,33.91,0,0,0-.74,4.06,25.87,25.87,0,0,0-.19,4.62.07.07,0,0,1,0,.05c-.17-.46-.7-1.73-.76-1.83-.73-1.31-2.91-3.42-4.57-3.09a2,2,0,0,0-1.44,2.59,4.19,4.19,0,0,0,2.64,2.31,13.91,13.91,0,0,0,4.15.2,36.53,36.53,0,0,0,.66,4.66c.19.9.4,1.8.62,2.69l-.33-.79c-.74-1.31-2.92-3.42-4.57-3.1a2,2,0,0,0-1.44,2.6,4.13,4.13,0,0,0,2.64,2.3,13.32,13.32,0,0,0,4,.22l.27,1c.44,1.64.88,3.28,1.27,4.9q.19.85.36,1.71c-.14-.35-.27-.64-.29-.69-.73-1.31-2.92-3.42-4.57-3.09A2,2,0,0,0,334,161a4.1,4.1,0,0,0,2.64,2.3,12.74,12.74,0,0,0,3.91.23c.1.58.2,1.17.28,1.74,0,.39.1.76.12,1.16s.05.78.08,1.16c0,.74,0,1.5,0,2.22,0,.51,0,1,0,1.47-.13-.57-.4-1.69-.44-1.78a7.85,7.85,0,0,0-2.35-3.11,2.93,2.93,0,0,0-.19-.4,2,2,0,0,0-2.89-.67c-1.35,1-1.26,4-.77,5.47,0,.08.44,1,.71,1.51l-.62-.9-1.34-1.84-.73-.91c-.23-.3-.52-.6-.79-.91-.62-.7-1.29-1.37-2-2a12.85,12.85,0,0,0,3-2.7,4.17,4.17,0,0,0,.6-3.45,2,2,0,0,0-2.76-1.1c-1.49.79-1.85,3.8-1.59,5.28,0,.1.33,1.14.51,1.71-.42-.4-.83-.8-1.27-1.19-1.25-1.12-2.55-2.22-3.85-3.32l-1.18-1a13.6,13.6,0,0,0,3.08-2.78,4.17,4.17,0,0,0,.6-3.45,2,2,0,0,0-2.76-1.1c-1.49.79-1.85,3.8-1.59,5.28,0,.12.47,1.61.6,2-.87-.75-1.72-1.5-2.53-2.28a34.38,34.38,0,0,1-3.1-3.33,14.28,14.28,0,0,0,3.1-2.79,4.15,4.15,0,0,0,.59-3.46,2,2,0,0,0-2.75-1.1c-1.49.79-1.85,3.8-1.59,5.29,0,.11.5,1.72.61,2l-.18-.2a26.66,26.66,0,0,1-2.45-3.85c-.39-.75-.73-1.48-1-2.2a13.16,13.16,0,0,0,3.3-2.38,4.18,4.18,0,0,0,1-3.37,2,2,0,0,0-2.62-1.4c-1.56.62-2.25,3.58-2.16,5.08,0,.08.16.91.27,1.5-.14-.32-.28-.66-.41-1-.47-1.19-.82-2.3-1.13-3.29-.17-.56-.31-1.07-.44-1.56a13.23,13.23,0,0,0,1.82-3.62,4.19,4.19,0,0,0-.69-3.44,2,2,0,0,0-3,0c-1.1,1.27-.35,4.22.42,5.5.07.12,1.32,1.73,1.34,1.71l0,0c.12.46.24,1,.4,1.5.28,1,.62,2.12,1.06,3.32a35.71,35.71,0,0,0,1.62,3.8,25.43,25.43,0,0,0,2.4,3.95l0,0c-.4-.28-1.54-1-1.64-1.1-1.33-.7-4.32-1.25-5.52-.06a2,2,0,0,0,.23,3A4.15,4.15,0,0,0,313.49,156.52Z" style="fill:#407BFF"></path><path d="M337.4,138.49s-.23-2-.26-2.15c-.36-1.46-1.91-4.07-3.59-4.19a2,2,0,0,0-2.08,2.11,4.18,4.18,0,0,0,1.94,2.93A14.34,14.34,0,0,0,337.4,138.49Z" style="fill:#407BFF"></path><path d="M449.66,148.94a14,14,0,0,1-4-1.11s1.3-1.56,1.4-1.65c1.1-1,3.84-2.34,5.3-1.52a2,2,0,0,1,.56,2.92A4.12,4.12,0,0,1,449.66,148.94Z" style="fill:#407BFF"></path><path d="M445.54,156.52A13.58,13.58,0,0,1,442,154.4a35.36,35.36,0,0,1-3.12,3.53c-.65.64-1.32,1.27-2,1.9l.72-.48c1.34-.69,4.32-1.24,5.52-.06a2,2,0,0,1-.23,3,4.18,4.18,0,0,1-3.47.47,13.25,13.25,0,0,1-3.48-2.05c-.26.24-.52.48-.79.71-1.27,1.13-2.55,2.26-3.76,3.4-.43.4-.84.81-1.25,1.22.32-.21.58-.39.63-.41,1.33-.69,4.32-1.25,5.51-.06a2,2,0,0,1-.22,2.95,4.17,4.17,0,0,1-3.48.47,12.76,12.76,0,0,1-3.38-2c-.41.43-.82.86-1.19,1.3s-.51.58-.75.9l-.7.92c-.43.61-.87,1.23-1.27,1.83-.29.41-.55.82-.81,1.22.42-.41,1.26-1.18,1.34-1.24,1.22-.88,4.08-1.88,5.45-.89a2,2,0,0,1,.22,2.95,4.15,4.15,0,0,1-3.36,1,13.47,13.47,0,0,1-3.83-1.54c-.44.67-.85,1.33-1.24,2l-1,1.6-1-.39c.35-.55.71-1.13,1.11-1.74s.92-1.4,1.42-2.14a21.68,21.68,0,0,1-1.74-1.85,15.18,15.18,0,0,1-3.91.77c0,.79,0,1.57,0,2.3,0,.51,0,1,.06,1.46l-1-.42c0-.33,0-.67,0-1,0-.81,0-1.67,0-2.56a13.85,13.85,0,0,1-3.94-1.23,4.12,4.12,0,0,1-2-2.89,2,2,0,0,1,2-2.15c1.68.09,3.27,2.68,3.65,4.13,0,.09.17,1,.24,1.65,0-.36,0-.71,0-1.09,0-.74.06-1.47.1-2.27,0-.38.07-.77.11-1.16s.1-.79.15-1.19c.13-.93.32-1.86.52-2.8a13.1,13.1,0,0,1-4-.61,4.15,4.15,0,0,1-2.4-2.55,2,2,0,0,1,1.69-2.44c1.68-.16,3.64,2.15,4.24,3.53,0,.09.36,1.13.52,1.7.13-.56.25-1.12.4-1.69.42-1.62.9-3.26,1.38-4.89l.42-1.5a14,14,0,0,1-4.1-.62,4.15,4.15,0,0,1-2.4-2.55,2,2,0,0,1,1.69-2.44c1.68-.16,3.64,2.15,4.24,3.53,0,.11.5,1.6.6,2,.31-1.1.6-2.2.85-3.3a34.48,34.48,0,0,0,.75-4.49,14.14,14.14,0,0,1-4.13-.62,4.15,4.15,0,0,1-2.4-2.55,2,2,0,0,1,1.69-2.44c1.68-.16,3.64,2.15,4.24,3.53.05.11.54,1.72.6,2,0-.09,0-.18,0-.27a25.51,25.51,0,0,0-.08-4.56c-.08-.84-.2-1.63-.34-2.41a13.18,13.18,0,0,1-4.07-.16,4.2,4.2,0,0,1-2.67-2.28,2,2,0,0,1,1.42-2.61c1.64-.34,3.85,1.74,4.6,3.05,0,.07.37.84.6,1.4-.06-.35-.12-.71-.19-1-.27-1.25-.58-2.37-.87-3.37-.17-.56-.33-1.07-.49-1.54a13.21,13.21,0,0,1-3.52-2,4.16,4.16,0,0,1-1.32-3.25,2,2,0,0,1,2.46-1.66c1.62.45,2.62,3.32,2.68,4.82,0,.13-.15,2.17-.18,2.16h0c.16.45.33.94.5,1.47.31,1,.65,2.11.94,3.36a33.85,33.85,0,0,1,.75,4.06,25.89,25.89,0,0,1,.18,4.62v.05c.17-.46.7-1.73.75-1.83.73-1.31,2.92-3.42,4.57-3.09a2,2,0,0,1,1.44,2.59,4.17,4.17,0,0,1-2.64,2.31,13.85,13.85,0,0,1-4.14.2,34.87,34.87,0,0,1-.67,4.66c-.18.9-.39,1.8-.62,2.69.17-.39.31-.74.34-.79.73-1.31,2.92-3.42,4.57-3.1a2,2,0,0,1,1.44,2.6,4.15,4.15,0,0,1-2.64,2.3,13.39,13.39,0,0,1-4,.22c-.09.34-.17.68-.26,1-.44,1.64-.88,3.28-1.27,4.9-.14.57-.25,1.14-.37,1.71l.3-.69c.73-1.31,2.92-3.42,4.57-3.09A2,2,0,0,1,425,161a4.15,4.15,0,0,1-2.64,2.3,12.79,12.79,0,0,1-3.92.23c-.1.58-.2,1.17-.27,1.74,0,.39-.1.76-.12,1.16s-.06.78-.08,1.16c0,.74-.05,1.5-.05,2.22,0,.51,0,1,0,1.47.12-.57.4-1.69.43-1.78a7.79,7.79,0,0,1,2.36-3.11,2.09,2.09,0,0,1,.19-.4,2,2,0,0,1,2.89-.67c1.35,1,1.25,4,.77,5.47,0,.08-.44,1-.71,1.51l.62-.9,1.34-1.84.73-.91c.23-.3.52-.6.78-.91.63-.7,1.29-1.37,2-2a13.08,13.08,0,0,1-3-2.7,4.16,4.16,0,0,1-.59-3.45,2,2,0,0,1,2.76-1.1c1.48.79,1.85,3.8,1.58,5.28,0,.1-.32,1.14-.5,1.71.42-.4.83-.8,1.26-1.19,1.26-1.12,2.56-2.22,3.85-3.32l1.18-1a14,14,0,0,1-3.08-2.78,4.16,4.16,0,0,1-.59-3.45,2,2,0,0,1,2.75-1.1c1.49.79,1.86,3.8,1.59,5.28,0,.12-.46,1.61-.59,2,.86-.75,1.72-1.5,2.53-2.28a35.67,35.67,0,0,0,3.1-3.33,14.28,14.28,0,0,1-3.1-2.79,4.19,4.19,0,0,1-.6-3.46,2,2,0,0,1,2.76-1.1c1.49.79,1.85,3.8,1.59,5.29,0,.11-.5,1.72-.61,2,.05-.07.12-.14.17-.2a25.82,25.82,0,0,0,2.45-3.85c.4-.75.74-1.48,1.05-2.2a13.37,13.37,0,0,1-3.31-2.38,4.18,4.18,0,0,1-1-3.37,2,2,0,0,1,2.61-1.4c1.57.62,2.26,3.58,2.16,5.08,0,.08-.15.91-.26,1.5.13-.32.28-.66.4-1,.47-1.19.83-2.3,1.14-3.29.17-.56.31-1.07.44-1.56a13.23,13.23,0,0,1-1.82-3.62,4.15,4.15,0,0,1,.69-3.44,2,2,0,0,1,3,0c1.11,1.27.36,4.22-.42,5.5-.07.12-1.32,1.73-1.34,1.71l0,0q-.16.69-.39,1.5c-.29,1-.62,2.12-1.06,3.32a37.9,37.9,0,0,1-1.62,3.8,26.22,26.22,0,0,1-2.4,3.95.08.08,0,0,1,0,0c.41-.28,1.55-1,1.65-1.1,1.33-.7,4.32-1.25,5.51-.06a2,2,0,0,1-.22,3A4.17,4.17,0,0,1,445.54,156.52Z" style="fill:#407BFF"></path><path d="M421.64,138.49s.23-2,.26-2.15c.36-1.46,1.91-4.07,3.59-4.19a2,2,0,0,1,2.07,2.11,4.17,4.17,0,0,1-1.93,2.93A14.44,14.44,0,0,1,421.64,138.49Z" style="fill:#407BFF"></path><path d="M496.44,279.58a14.2,14.2,0,0,1-1.13-4s2,.31,2.14.35c1.44.42,4,2.08,4,3.76a2,2,0,0,1-2.2,2A4.18,4.18,0,0,1,496.44,279.58Z" style="fill:#407BFF"></path><path d="M487.83,280a13.53,13.53,0,0,1,0-4.15,36.53,36.53,0,0,1-4.63-.87c-.89-.22-1.78-.47-2.66-.73l.78.37c1.28.79,3.29,3.06,2.89,4.7a2,2,0,0,1-2.65,1.33,4.18,4.18,0,0,1-2.19-2.74,13.33,13.33,0,0,1,0-4l-1-.31c-1.62-.51-3.24-1-4.85-1.48-.56-.16-1.12-.3-1.69-.44.35.16.64.3.68.33,1.28.78,3.29,3.06,2.89,4.69a2,2,0,0,1-2.65,1.33,4.14,4.14,0,0,1-2.19-2.73,12.65,12.65,0,0,1-.05-3.92c-.58-.13-1.16-.26-1.73-.35-.39-.06-.76-.14-1.15-.17l-1.16-.13-2.22-.15-1.46-.06c.56.15,1.66.47,1.75.51,1.39.58,3.72,2.53,3.57,4.2a2,2,0,0,1-2.41,1.72,4.15,4.15,0,0,1-2.58-2.37,13.68,13.68,0,0,1-.66-4.08l-2.31-.05h-1.87l-.17-1.05,2.07.05,2.56.12a21.87,21.87,0,0,1,.69-2.45,14.56,14.56,0,0,1-2.68-3c-.68.42-1.34.83-2,1.23l-1.22.8-.18-1.11.87-.53c.69-.43,1.43-.87,2.2-1.32a14,14,0,0,1-1-4,4.17,4.17,0,0,1,1.45-3.19,2,2,0,0,1,2.9.64c.79,1.49-.61,4.19-1.66,5.26-.06.07-.81.68-1.29,1.06l.95-.54c.64-.36,1.3-.71,2-1.08l1-.51c.35-.18.74-.32,1.11-.48.86-.37,1.75-.69,2.66-1A13,13,0,0,1,467,255.6a4.17,4.17,0,0,1,1-3.37,2,2,0,0,1,2.95.19c1,1.35,0,4.23-.84,5.46-.05.07-.78.88-1.18,1.32.54-.18,1.09-.37,1.65-.53,1.61-.48,3.26-.91,4.9-1.34l1.51-.41a13.84,13.84,0,0,1-1.59-3.84,4.14,4.14,0,0,1,1-3.37,2,2,0,0,1,3,.19c1,1.35,0,4.23-.84,5.46-.06.09-1.11,1.25-1.39,1.53,1.1-.3,2.2-.61,3.27-1a35.11,35.11,0,0,0,4.23-1.67,14,14,0,0,1-1.6-3.86,4.13,4.13,0,0,1,.95-3.37,2,2,0,0,1,3,.19c1,1.35,0,4.23-.84,5.46-.07.09-1.2,1.34-1.42,1.55l.25-.11a25.93,25.93,0,0,0,3.87-2.42c.67-.5,1.29-1,1.88-1.53a13.2,13.2,0,0,1-1.95-3.57,4.17,4.17,0,0,1,.57-3.46,2,2,0,0,1,3-.13c1.14,1.23.5,4.2-.24,5.51,0,.07-.53.75-.89,1.24.27-.24.54-.47.79-.71.93-.86,1.73-1.71,2.44-2.47l1.07-1.22a13.25,13.25,0,0,1-.09-4,4.17,4.17,0,0,1,2.11-2.81,2,2,0,0,1,2.69,1.25c.45,1.62-1.5,4-2.75,4.78-.11.07-1.94,1-1.94,1v0c-.3.37-.63.77-1,1.19-.69.78-1.47,1.65-2.39,2.54a36,36,0,0,1-3.1,2.73,26,26,0,0,1-3.86,2.54l-.05,0c.49-.09,1.85-.29,2-.29,1.5-.06,4.43.73,5,2.31a2,2,0,0,1-1.47,2.58,4.18,4.18,0,0,1-3.34-1.08,13.5,13.5,0,0,1-2.31-3.44,36.67,36.67,0,0,1-4.34,1.83c-.86.3-1.74.58-2.62.85l.85-.11c1.5-.05,4.44.73,5,2.32a2,2,0,0,1-1.48,2.57,4.19,4.19,0,0,1-3.34-1.08,12.86,12.86,0,0,1-2.26-3.34l-1,.31c-1.63.47-3.27.93-4.86,1.44-.56.18-1.1.37-1.65.57l.74-.11c1.51-.05,4.44.74,5,2.32a2,2,0,0,1-1.48,2.58,4.17,4.17,0,0,1-3.33-1.08,12.54,12.54,0,0,1-2.21-3.24c-.55.22-1.11.43-1.63.66-.36.17-.71.31-1.06.5l-1,.53c-.64.36-1.31.73-1.93,1.1l-1.25.75c.55-.18,1.65-.52,1.74-.53a7.68,7.68,0,0,1,3.88.41,2.18,2.18,0,0,1,.44,0,2,2,0,0,1,2.07,2.13c-.17,1.67-2.82,3.15-4.29,3.47-.09,0-1.05.12-1.66.17l1.09.07,2.26.21,1.16.15c.38,0,.78.13,1.18.2.92.18,1.85.4,2.77.64a13.34,13.34,0,0,1,.78-3.93,4.18,4.18,0,0,1,2.66-2.29,2,2,0,0,1,2.36,1.8c.09,1.68-2.3,3.54-3.71,4.08-.09,0-1.14.31-1.72.45.56.15,1.11.3,1.67.47,1.61.49,3.22,1,4.83,1.58l1.48.49a14.25,14.25,0,0,1,.79-4.07,4.18,4.18,0,0,1,2.66-2.29,2,2,0,0,1,2.36,1.79c.09,1.69-2.3,3.55-3.71,4.09-.1,0-1.62.43-2,.51,1.09.36,2.18.7,3.26,1a34.72,34.72,0,0,0,4.46.93,13.88,13.88,0,0,1,.79-4.09,4.16,4.16,0,0,1,2.65-2.29,2,2,0,0,1,2.37,1.79c.09,1.68-2.31,3.55-3.71,4.09-.11,0-1.74.46-2,.51l.26.05a25.1,25.1,0,0,0,4.56.11c.84,0,1.64-.13,2.42-.23a13.66,13.66,0,0,1,.34-4.06,4.15,4.15,0,0,1,2.39-2.57,2,2,0,0,1,2.54,1.52c.28,1.66-1.9,3.78-3.23,4.47l-1.43.55,1-.16c1.25-.21,2.39-.47,3.4-.72.57-.14,1.08-.29,1.56-.42a13,13,0,0,1,2.17-3.43,4.14,4.14,0,0,1,3.3-1.18,2,2,0,0,1,1.55,2.52c-.52,1.61-3.42,2.48-4.93,2.48-.13,0-2.16-.24-2.15-.27l0,0-1.49.44c-1,.26-2.14.56-3.4.79a35.62,35.62,0,0,1-4.09.58,25.5,25.5,0,0,1-4.62,0h0c.45.2,1.7.78,1.79.84,1.28.78,3.3,3.06,2.9,4.69a2,2,0,0,1-2.65,1.33A4.14,4.14,0,0,1,487.83,280Z" style="fill:#407BFF"></path><path d="M491,250.18s1.85-.85,2-.89c1.44-.44,4.47-.46,5.44.92a2,2,0,0,1-.74,2.87,4.19,4.19,0,0,1-3.51-.16A14.17,14.17,0,0,1,491,250.18Z" style="fill:#407BFF"></path><path d="M262.6,279.58a14.2,14.2,0,0,0,1.13-4s-2,.31-2.14.35c-1.44.42-4,2.08-4,3.76a2,2,0,0,0,2.2,2A4.18,4.18,0,0,0,262.6,279.58Z" style="fill:#407BFF"></path><path d="M271.21,280a13.53,13.53,0,0,0,0-4.15,36.53,36.53,0,0,0,4.63-.87c.89-.22,1.77-.47,2.66-.73l-.78.37c-1.28.79-3.29,3.06-2.89,4.7a2,2,0,0,0,2.65,1.33,4.18,4.18,0,0,0,2.19-2.74,13.33,13.33,0,0,0,0-4l1-.31c1.62-.51,3.24-1,4.85-1.48.56-.16,1.12-.3,1.69-.44-.35.16-.64.3-.68.33-1.28.78-3.29,3.06-2.89,4.69a2,2,0,0,0,2.65,1.33,4.14,4.14,0,0,0,2.19-2.73,12.65,12.65,0,0,0,.05-3.92c.58-.13,1.16-.26,1.73-.35.39-.06.76-.14,1.15-.17l1.16-.13,2.22-.15,1.46-.06c-.56.15-1.66.47-1.75.51-1.39.58-3.72,2.53-3.57,4.2a2,2,0,0,0,2.41,1.72,4.15,4.15,0,0,0,2.58-2.37,13.68,13.68,0,0,0,.66-4.08l2.31-.05h1.87l.17-1.05-2.07.05-2.56.12a21.87,21.87,0,0,0-.69-2.45,14.56,14.56,0,0,0,2.68-3l1.95,1.23,1.22.8.18-1.11-.87-.53c-.69-.43-1.43-.87-2.2-1.32a14,14,0,0,0,1-4,4.17,4.17,0,0,0-1.45-3.19,2,2,0,0,0-2.9.64c-.79,1.49.61,4.19,1.66,5.26.06.07.81.68,1.29,1.06l-.95-.54c-.64-.36-1.3-.71-2-1.08l-1-.51c-.35-.18-.74-.32-1.11-.48-.86-.37-1.75-.69-2.66-1A13,13,0,0,0,292,255.6a4.17,4.17,0,0,0-1-3.37,2,2,0,0,0-3,.19c-1,1.35,0,4.23.83,5.46l1.19,1.32c-.54-.18-1.09-.37-1.65-.53-1.61-.48-3.26-.91-4.9-1.34l-1.51-.41a13.84,13.84,0,0,0,1.59-3.84,4.17,4.17,0,0,0-.95-3.37,2,2,0,0,0-3,.19c-1,1.35,0,4.23.84,5.46.06.09,1.11,1.25,1.39,1.53-1.1-.3-2.2-.61-3.27-1a35.11,35.11,0,0,1-4.23-1.67,14,14,0,0,0,1.6-3.86,4.13,4.13,0,0,0-.95-3.37,2,2,0,0,0-3,.19c-1,1.35,0,4.23.84,5.46.07.09,1.19,1.34,1.42,1.55l-.25-.11a25.93,25.93,0,0,1-3.87-2.42c-.67-.5-1.29-1-1.89-1.53a12.93,12.93,0,0,0,2-3.57,4.17,4.17,0,0,0-.57-3.46,2,2,0,0,0-3-.13c-1.14,1.23-.5,4.2.24,5.51,0,.07.53.75.89,1.24-.27-.24-.54-.47-.79-.71-.93-.86-1.73-1.71-2.44-2.47l-1.07-1.22a13.25,13.25,0,0,0,.09-4,4.17,4.17,0,0,0-2.11-2.81,2,2,0,0,0-2.69,1.25c-.45,1.62,1.5,4,2.75,4.78.11.07,1.94,1,1.94,1v0c.3.37.63.77,1,1.19.69.78,1.47,1.65,2.39,2.54a36,36,0,0,0,3.1,2.73,26,26,0,0,0,3.86,2.54l.05,0c-.49-.09-1.85-.29-2-.29-1.5-.06-4.43.73-5,2.31a2,2,0,0,0,1.47,2.58,4.18,4.18,0,0,0,3.34-1.08,13.5,13.5,0,0,0,2.31-3.44,36.67,36.67,0,0,0,4.34,1.83c.86.3,1.74.58,2.62.85l-.85-.11c-1.5-.05-4.44.73-5,2.32a2,2,0,0,0,1.48,2.57,4.2,4.2,0,0,0,3.34-1.08,13.11,13.11,0,0,0,2.26-3.34l1,.31c1.63.47,3.27.93,4.86,1.44q.83.27,1.65.57l-.74-.11c-1.51-.05-4.44.74-5,2.32a2,2,0,0,0,1.48,2.58,4.17,4.17,0,0,0,3.33-1.08,12.54,12.54,0,0,0,2.21-3.24c.55.22,1.11.43,1.63.66.36.17.71.31,1.06.5l1,.53c.64.36,1.31.73,1.93,1.1l1.25.75c-.55-.18-1.65-.52-1.74-.53a7.68,7.68,0,0,0-3.88.41,2.18,2.18,0,0,0-.44,0,2,2,0,0,0-2.07,2.13c.17,1.67,2.82,3.15,4.29,3.47.09,0,1.05.12,1.66.17l-1.09.07-2.26.21-1.16.15c-.38,0-.78.13-1.18.2-.92.18-1.85.4-2.77.64a13.34,13.34,0,0,0-.78-3.93,4.18,4.18,0,0,0-2.66-2.29,2,2,0,0,0-2.36,1.8c-.09,1.68,2.3,3.54,3.71,4.08.09,0,1.14.31,1.72.45-.56.15-1.11.3-1.67.47-1.61.49-3.22,1-4.83,1.58l-1.48.49a14.25,14.25,0,0,0-.79-4.07,4.18,4.18,0,0,0-2.66-2.29,2,2,0,0,0-2.36,1.79c-.09,1.69,2.3,3.55,3.71,4.09.1,0,1.62.43,2,.51-1.09.36-2.18.7-3.26,1a34.72,34.72,0,0,1-4.46.93,13.88,13.88,0,0,0-.79-4.09,4.16,4.16,0,0,0-2.65-2.29,2,2,0,0,0-2.37,1.79c-.09,1.68,2.31,3.55,3.71,4.09.11,0,1.74.46,2,.51l-.26.05a25.1,25.1,0,0,1-4.56.11c-.84,0-1.64-.13-2.42-.23a13.66,13.66,0,0,0-.34-4.06,4.15,4.15,0,0,0-2.39-2.57,2,2,0,0,0-2.54,1.52c-.28,1.66,1.9,3.78,3.23,4.47l1.43.55-1.05-.16c-1.25-.21-2.39-.47-3.4-.72-.57-.14-1.08-.29-1.56-.42a13,13,0,0,0-2.17-3.43,4.14,4.14,0,0,0-3.3-1.18,2,2,0,0,0-1.55,2.52c.52,1.61,3.42,2.48,4.93,2.48.13,0,2.16-.24,2.15-.27l0,0,1.49.44c1,.26,2.14.56,3.4.79a35.62,35.62,0,0,0,4.09.58,25.5,25.5,0,0,0,4.62,0h.05c-.45.2-1.7.78-1.79.84-1.28.78-3.3,3.06-2.9,4.69a2,2,0,0,0,2.65,1.33A4.14,4.14,0,0,0,271.21,280Z" style="fill:#407BFF"></path><path d="M268.08,250.18s-1.85-.85-2-.89c-1.44-.44-4.47-.46-5.44.92a2,2,0,0,0,.74,2.87,4.17,4.17,0,0,0,3.5-.16A14,14,0,0,0,268.08,250.18Z" style="fill:#407BFF"></path></g><g id="freepik--Squares--inject-61"><polyline points="520.4 368.36 528.03 368.36 528.03 385.46 510.94 385.46 510.94 368.36 516.6 368.36" style="fill:none;stroke:#263238;stroke-miterlimit:10"></polyline><rect x="510.94" y="396.34" width="17.1" height="17.1" style="fill:none;stroke:#263238;stroke-miterlimit:10"></rect><rect x="510.94" y="424.32" width="17.1" height="17.1" style="fill:none;stroke:#263238;stroke-miterlimit:10"></rect><line x1="537.62" y1="377.17" x2="583.22" y2="377.17" style="fill:none;stroke:#263238;stroke-miterlimit:10"></line><line x1="537.62" y1="406.18" x2="583.22" y2="406.18" style="fill:none;stroke:#263238;stroke-miterlimit:10"></line><line x1="537.62" y1="434.68" x2="583.22" y2="434.68" style="fill:none;stroke:#263238;stroke-miterlimit:10"></line><rect x="599.02" y="368.36" width="17.1" height="17.1" style="fill:none;stroke:#263238;stroke-miterlimit:10"></rect><polyline points="604.63 413.44 599.02 413.44 599.02 396.34 616.12 396.34 616.12 413.44 609.81 413.44" style="fill:none;stroke:#263238;stroke-miterlimit:10"></polyline><rect x="599.02" y="424.32" width="17.1" height="17.1" style="fill:none;stroke:#263238;stroke-miterlimit:10"></rect><line x1="625.7" y1="377.17" x2="671.3" y2="377.17" style="fill:none;stroke:#263238;stroke-miterlimit:10"></line><line x1="625.7" y1="406.18" x2="671.3" y2="406.18" style="fill:none;stroke:#263238;stroke-miterlimit:10"></line><line x1="625.7" y1="434.68" x2="671.3" y2="434.68" style="fill:none;stroke:#263238;stroke-miterlimit:10"></line></g><g id="freepik--Globe--inject-61"><path d="M676.5,297.09a69.51,69.51,0,1,0-3.49,7.52" style="fill:none;stroke:#263238;stroke-miterlimit:10"></path><path d="M597.86,336a64.68,64.68,0,0,0,11.33,1.45" style="fill:none;stroke:#263238;stroke-linecap:round;stroke-linejoin:round"></path><path d="M589.34,333.48q2.82,1,5.75,1.81" style="fill:none;stroke:#263238;stroke-linecap:round;stroke-linejoin:round"></path><path d="M548.53,253.65A65.83,65.83,0,0,0,587,332.56" style="fill:none;stroke:#263238;stroke-linecap:round;stroke-linejoin:round"></path><path d="M557.38,234.72a65.86,65.86,0,0,0-6.08,11.12" style="fill:none;stroke:#263238;stroke-linecap:round;stroke-linejoin:round"></path><polygon points="602.4 240.78 609.49 242.25 611.9 244.75 615.05 245.24 616.05 248.22 615.32 250.25 613.17 251.23 607.91 250.37 607.77 249.73 610.25 247.99 608.54 244.82 603.83 244.18 601.33 242.03 602.4 240.78" style="fill:none;stroke:#263238;stroke-linecap:round;stroke-linejoin:round"></polygon><path d="M659.5,306.17l-5.62-.95-6.78-.86-5,1.1-4.88.08-4.91,2.27-2.86.8-1.77.4-3,2.68-2.94,2-4.95-1.77.12-4.76-3-.52-3.22.72L610,306l-.32-3-1.49-1.36-2.18.83-.29,1.75L603,305l-3.06-2.36L598.1,299l1.41-5,4.74-.71,1.54.84,1.94-.43,2.09-2,2.24.18,4,4.35,1.09-.41L616,292.17l-1.4-1.72-.35-3.13,5.38-3.9-.51-6.14,2.11-2.66,1.27-4.17,1.54-.68,3.16-3.24-.12-1.32-2.54.73-.77-1.18-1.77.39-2.6,1.25.83-2.38,5.27-2.86,1-1.73,3,3,1.77,1.13,2.11-1.15L632,260.57l-3.91-1.66-4.83-3.49-4.64-1.84-4,.21-2.36-1.5-2.72-.08-.18.72.72,4.74,1,1.47-.3,5.47-3.8-1.86v-2.36l-3.74-.86-1.85-1.45-.09-4.2,3.92-4.42-.53-3.94-1.74.56-1.45-1.2-1-2.31-1.16.09-.07,2.72-1.7.71-2.06-5.45-1.47-.52-2.46-.47-2.29,1.86,3.9,2.35,1.25,2.59-6.77-3.06-5-3.45-1.28-4.28-4.48-.36-2.75,2.81a27.94,27.94,0,0,1-2.13,1.83,28,28,0,0,1-3.72,1.5l0,2.88-3.67,1,.72,1.7,6.17-.36,3.81,2.71,1.25,5.63-.66,5.39,1.5,5.24-2.76,8.89,1.65,12,2.95,6.44,3.24,4.69,2.49-.21-1.38-2.4-1.72-1.65L580.21,290l1.38-.64,3.54,5.29,2.75,4.8.93,4.18,3.88,3,6.37,2.81,8.88.39,3.11,1.85,2.51,2.14,3.29,1.13,3.75.18,3.51-.95s.2,1.65.38,2.45-1.47,4.05-1.47,4.05L622,324.3l2.08,3.26,3.86.66,6.14,4,2.47.46.53,2.42.54,1.06a69.21,69.21,0,0,0,30.24-23.4l-.18-1.19,2.6-8.85-2.42-1Z" style="fill:none;stroke:#263238;stroke-linecap:round;stroke-linejoin:round"></path><path d="M662.12,238.84l-2.45-2.67-3-3-1.71-4.69,3-.16-.2-1.64-2.12.3,1.59-1.2,1.68-1.56-.36-1.61-2.5-2.14-1.18-3.38a69.57,69.57,0,0,0-83.92-1.61l4.3,1.81-1.61,3.4L570.68,222l.65,4.42-1.19.77-1.21,2.13.8,2.86,2.81-.28-.52,3,2.74-.6,3.35-7-.09-2.68,4.43-1.33.7-2.18,4.57-1.52-.13-2.84,3.35-.92a17.68,17.68,0,0,1,2.61-1.93,19.77,19.77,0,0,1,2.92.2l2.84,1.39,3.38-.75,2.51-2.41,3.77-.5a4.08,4.08,0,0,0,1.92.25,14.8,14.8,0,0,0,3-1.84l5.31,1.86,2.25,1,.54,2.41,2.49-.21.48-1.63,2.31.5.12,1.33-4.54,2.36,3.52,2.93,6.52,1.94,3.13,2.68,3.61-.46.45-1.79,1.22-.61-4.91-2.29-2.64.25,1.95-1.11-2.55-2.31,2.71-.77,4,1.15,1.66,3.68,2.24,1.7,2.48,4.35L650.3,229l1.18,5.31,4.24,1.6.23,1.8,0,2.21,1.61,2.68.65,1.38,2.84-.13.68-3Z" style="fill:none;stroke:#263238;stroke-linecap:round;stroke-linejoin:round"></path><path d="M660.62,222.15l.2.93-.23,2.75,1,2.15,1.92.25.68,3.06-2.12-.38,1.45,8.81-1.14,4,2.29,4.22,2.52,1.47,1.93,8.69,3.59,6.3,3.4,4.65,3.92.15.58-3.51.43-.53a70.92,70.92,0,0,0-1.35-8.55A69.21,69.21,0,0,0,660.62,222.15Z" style="fill:none;stroke:#263238;stroke-linecap:round;stroke-linejoin:round"></path><polygon points="623.19 229.4 611.53 227.09 606.89 228.29 606.45 231.6 604.05 229.94 600.68 231.53 601.54 236.92 604.91 238.37 606.32 234.84 609.27 236.72 615.23 239.96 617.23 244.41 622.6 248.8 629.11 246.17 628.42 243.79 626.36 241.37 624.61 235 625.61 231.91 623.19 229.4" style="fill:none;stroke:#263238;stroke-linecap:round;stroke-linejoin:round"></polygon><polygon points="632.68 231.02 630.12 230.91 628.42 233.14 630.58 237.56 632.67 237.1 632.68 231.02" style="fill:none;stroke:#263238;stroke-linecap:round;stroke-linejoin:round"></polygon><polygon points="648.33 230.75 642.21 229.07 640.66 227.38 639.48 228.15 641.32 231.12 643.21 235.1 645.84 235.53 646.18 234.78 644.2 232.68 648.74 233.36 648.33 230.75" style="fill:none;stroke:#263238;stroke-linecap:round;stroke-linejoin:round"></polygon><polygon points="614.22 299.32 613.72 300.11 618.87 300.49 621.3 302.31 624.43 301.96 625.17 299.93 621.32 300.11 614.22 299.32" style="fill:none;stroke:#263238;stroke-linecap:round;stroke-linejoin:round"></polygon><polygon points="629.23 299.2 626.06 300.92 626.83 302.1 631.02 301.17 631.54 299.7 630.13 300.19 629.23 299.2" style="fill:none;stroke:#263238;stroke-linecap:round;stroke-linejoin:round"></polygon></g><g id="freepik--Rulers--inject-61"><polyline points="604.47 164.95 552.11 203.24 607.59 28.01 671.75 115.75 611.9 159.52" style="fill:none;stroke:#263238;stroke-miterlimit:10"></polyline><polygon points="617.27 79.51 638.94 109.14 598.54 138.68 617.27 79.51" style="fill:none;stroke:#263238;stroke-miterlimit:10"></polygon><line x1="616.05" y1="38.89" x2="612.26" y2="41.67" style="fill:none;stroke:#263238;stroke-miterlimit:10"></line><line x1="620.76" y1="45.32" x2="616.96" y2="48.1" style="fill:none;stroke:#263238;stroke-miterlimit:10"></line><line x1="625.46" y1="51.75" x2="621.66" y2="54.53" style="fill:none;stroke:#263238;stroke-miterlimit:10"></line><line x1="630.16" y1="58.18" x2="626.36" y2="60.96" style="fill:none;stroke:#263238;stroke-miterlimit:10"></line><line x1="634.86" y1="64.61" x2="631.06" y2="67.39" style="fill:none;stroke:#263238;stroke-miterlimit:10"></line><line x1="639.57" y1="71.04" x2="635.77" y2="73.82" style="fill:none;stroke:#263238;stroke-miterlimit:10"></line><line x1="644.27" y1="77.47" x2="640.47" y2="80.25" style="fill:none;stroke:#263238;stroke-miterlimit:10"></line><line x1="648.97" y1="83.9" x2="645.17" y2="86.68" style="fill:none;stroke:#263238;stroke-miterlimit:10"></line><line x1="653.67" y1="90.33" x2="649.87" y2="93.11" style="fill:none;stroke:#263238;stroke-miterlimit:10"></line><line x1="658.37" y1="96.76" x2="654.57" y2="99.54" style="fill:none;stroke:#263238;stroke-miterlimit:10"></line><line x1="663.08" y1="103.19" x2="659.28" y2="105.97" style="fill:none;stroke:#263238;stroke-miterlimit:10"></line><line x1="667.78" y1="109.62" x2="663.98" y2="112.39" style="fill:none;stroke:#263238;stroke-miterlimit:10"></line><polyline points="553.91 30.67 564.88 5.46 587.08 15.12 523.73 160.67 501.54 151.01 551.11 37.1" style="fill:none;stroke:#263238;stroke-miterlimit:10"></polyline><line x1="584.38" y1="21.32" x2="578.7" y2="18.84" style="fill:none;stroke:#263238;stroke-miterlimit:10"></line><line x1="581.01" y1="29.06" x2="575.33" y2="26.59" style="fill:none;stroke:#263238;stroke-miterlimit:10"></line><line x1="577.64" y1="36.8" x2="571.96" y2="34.33" style="fill:none;stroke:#263238;stroke-miterlimit:10"></line><line x1="574.27" y1="44.54" x2="568.6" y2="42.07" style="fill:none;stroke:#263238;stroke-miterlimit:10"></line><line x1="570.9" y1="52.28" x2="565.23" y2="49.81" style="fill:none;stroke:#263238;stroke-miterlimit:10"></line><line x1="567.53" y1="60.02" x2="561.86" y2="57.55" style="fill:none;stroke:#263238;stroke-miterlimit:10"></line><line x1="564.16" y1="67.77" x2="558.49" y2="65.3" style="fill:none;stroke:#263238;stroke-miterlimit:10"></line><line x1="560.8" y1="75.51" x2="555.12" y2="73.04" style="fill:none;stroke:#263238;stroke-miterlimit:10"></line><line x1="557.43" y1="83.25" x2="551.75" y2="80.78" style="fill:none;stroke:#263238;stroke-miterlimit:10"></line><line x1="554.06" y1="90.99" x2="548.38" y2="88.52" style="fill:none;stroke:#263238;stroke-miterlimit:10"></line><line x1="550.69" y1="98.73" x2="545.01" y2="96.26" style="fill:none;stroke:#263238;stroke-miterlimit:10"></line><line x1="547.32" y1="106.48" x2="541.64" y2="104" style="fill:none;stroke:#263238;stroke-miterlimit:10"></line><line x1="543.95" y1="114.22" x2="538.27" y2="111.75" style="fill:none;stroke:#263238;stroke-miterlimit:10"></line><line x1="540.58" y1="121.96" x2="534.9" y2="119.49" style="fill:none;stroke:#263238;stroke-miterlimit:10"></line><line x1="537.21" y1="129.7" x2="531.53" y2="127.23" style="fill:none;stroke:#263238;stroke-miterlimit:10"></line><line x1="533.84" y1="137.44" x2="528.16" y2="134.97" style="fill:none;stroke:#263238;stroke-miterlimit:10"></line><line x1="530.47" y1="145.18" x2="524.8" y2="142.71" style="fill:none;stroke:#263238;stroke-miterlimit:10"></line><line x1="527.1" y1="152.93" x2="521.43" y2="150.46" style="fill:none;stroke:#263238;stroke-miterlimit:10"></line></g><g id="freepik--Equation--inject-61"><path d="M393,33.17h-2.95c-.2,0-.72,0-1.51.08a328.28,328.28,0,0,1-56.66-1.76c-30.23-3.58-30.75-3.12-32.68-1.42l-.36.31c-2,1.59-6.65,20.76-8.3,27.78l-5-8.17a.73.73,0,0,0-1-.25.72.72,0,0,0-.24,1l5.9,9.71a.75.75,0,0,0,.63.35H291a.74.74,0,0,0,.6-.56c2.59-11.21,6.84-27.54,8.18-28.71l.42-.36c1.39-1.22,2-1.72,31.54,1.78a328.2,328.2,0,0,0,56.91,1.76l1.43-.07h2.22V39a.74.74,0,1,0,1.47,0V33.91A.74.74,0,0,0,393,33.17Z" style="fill:#263238"></path><path d="M299.3,60.81a.74.74,0,0,0,.73-.66l2.11-21.53a.74.74,0,0,0-1.47-.14L298.56,60a.74.74,0,0,0,.66.8Z" style="fill:#263238"></path><path d="M310.87,42.48A.73.73,0,0,0,310,43l-.87,3.47a.78.78,0,0,0-.46-.23L305.21,46l3.14-4.89a.73.73,0,1,0-1.23-.8l-3.8,5.91a.72.72,0,0,0,0,.72.73.73,0,0,0,.59.41l4.64.42h.07a.59.59,0,0,0,.23,0l-1.36,5.47A.73.73,0,0,0,308,54l.18,0a.73.73,0,0,0,.71-.56l2.53-10.13A.73.73,0,0,0,310.87,42.48Z" style="fill:#263238"></path><path d="M287.59,42.33a.71.71,0,0,0,.75-.14l4-3.56.25,3.77a.74.74,0,0,0,.73.69h.05a.75.75,0,0,0,.69-.79L293.68,37a.71.71,0,0,0-.45-.63.73.73,0,0,0-.77.13l-4,3.61-.37-3.49a.74.74,0,0,0-1.47.15l.53,4.93A.73.73,0,0,0,287.59,42.33Z" style="fill:#263238"></path><path d="M324.51,43.8a.74.74,0,0,0-.23-1c-.3-.18-.11-1.65,0-2.52.21-1.6.45-3.41-.28-4.76a1.36,1.36,0,0,0-1.26-.8c-1.11,0-2.37,1.77-3.4,3.62v-3.7a.74.74,0,1,0-1.47,0v6.85a.74.74,0,0,0,1.41.3c1.2-2.7,2.75-5.2,3.43-5.56.5.93.29,2.49.11,3.86-.22,1.68-.43,3.27.67,4a.7.7,0,0,0,.39.11A.74.74,0,0,0,324.51,43.8Z" style="fill:#263238"></path><path d="M326.32,51a.74.74,0,0,0,1.47,0V49.41h2.08a.73.73,0,0,0,.73-.73.74.74,0,0,0-.73-.74h-2.08V46.22a.74.74,0,1,0-1.47,0v1.72h-2.08a.74.74,0,0,0-.73.74.73.73,0,0,0,.73.73h2.08Z" style="fill:#263238"></path><path d="M351.82,44.13a2.86,2.86,0,0,0-1.41,3.27,7.34,7.34,0,0,0,1.95,3.46c1.09,1.27,1.18,1.54.69,2.07-.78.86-3.35-.48-5.21-1.87a7.66,7.66,0,0,0,1-4.55c-.13-1.61-.67-2.55-1.59-2.78-1.53-.4-3.18,1.51-3.44,1.91l1.22.81c.28-.42,1.4-1.41,1.85-1.3.13,0,.41.39.5,1.48A6.3,6.3,0,0,1,345.14,52a2.39,2.39,0,0,1-2.18.55c-1.28-.49-1.07-3.67-.77-5.14a.73.73,0,0,0-1.37-.49c-.79,1.46-2.92,4.45-4.4,4.36a.79.79,0,0,1-.7-.58c-.56-1.29,0-4.14,1-5.43a1.72,1.72,0,0,1,.31-.31,3.45,3.45,0,0,1,.33,1.15l1.46-.16c-.06-.49-.32-2.14-1.39-2.46-.62-.18-1.24.11-1.84.85-1.27,1.54-2.11,5-1.26,6.94a2.25,2.25,0,0,0,1.95,1.46c1.58.12,3.08-1.29,4.17-2.66.05,1.57.47,3.28,1.95,3.85a3,3,0,0,0,1,.19,4.32,4.32,0,0,0,2.54-1,6.84,6.84,0,0,0,1-.92c1.21.92,3.48,2.41,5.33,2.41a2.34,2.34,0,0,0,1.82-.75c1.43-1.57.27-2.93-.67-4a6.05,6.05,0,0,1-1.61-2.75,1.45,1.45,0,0,1,.64-1.72,2.06,2.06,0,0,1,2.16.25,5,5,0,0,1,1.21,1.6h0l1.43-.36a5.62,5.62,0,0,0-1.6-2.28A3.48,3.48,0,0,0,351.82,44.13Z" style="fill:#263238"></path><path d="M365.48,46.32a33.61,33.61,0,0,1-3.56,2.16c-1.62.88-2.6,1.42-2.7,2.32a1.43,1.43,0,0,0,.57,1.25c1.08.93,3.93,1.11,5.94,1.11.91,0,1.65,0,2,0l-.08-1.47c-2.28.13-5.82,0-6.86-.73a12.39,12.39,0,0,1,1.86-1.14,34.42,34.42,0,0,0,3.71-2.25c1.94-1.39,2.89-2.67,2.88-3.9a3.6,3.6,0,0,0-1.83-2.75,1.73,1.73,0,0,0-1.56-.25c-1.63.54-2.7,3.54-2.9,4.14l1.4.46c.38-1.16,1.27-3,2-3.2a.27.27,0,0,1,.26,0c.8.57,1.2,1.08,1.2,1.55S367.35,45,365.48,46.32Z" style="fill:#263238"></path><path d="M382.41,51.71a1.07,1.07,0,0,1-1.61.11c-.39-.35-.25-1.07,0-2.22a8,8,0,0,0,.21-3.92,1.28,1.28,0,0,0-1-1c-1.19-.18-3,1.92-4.75,4.37l.52-4.47-1.46-.17-.87,7.56a.73.73,0,0,0,1.35.47c1.87-3,4-5.7,4.85-6.22a7,7,0,0,1-.25,3.07c-.31,1.34-.63,2.72.44,3.67a2.56,2.56,0,0,0,1.69.68,2.73,2.73,0,0,0,2-.93Z" style="fill:#263238"></path><rect x="378.56" y="46.45" width="16.88" height="1.47" transform="translate(283.99 423.2) rotate(-81.63)" style="fill:#263238"></rect><path d="M302.39,84.55a.92.92,0,0,1-.82-.13c-.43-.3-.18-2.85,0-4.22.31-3.18.66-6.79-1.7-7.44a2.05,2.05,0,0,0-1.84.42c-1.45,1.1-2.65,4.12-3.5,7,0-2.7-.07-5.76-.1-7.91h-1.47l.09,7c0,3.55.06,5.46.15,6.48,0,.25-.07.4-.07.45h.12c.1.71.27.74.57.74h.05a.78.78,0,0,0,.73-.72c.08-.85,2.12-10.27,4.37-11.84a.61.61,0,0,1,.5-.14c1.18.33.86,3.54.63,5.88-.27,2.78-.48,5,.8,5.66a2.38,2.38,0,0,0,2.06.21,3.56,3.56,0,0,0,1.8-2l-1.39-.5A2.09,2.09,0,0,1,302.39,84.55Z" style="fill:#263238"></path><path d="M320.05,80.43a.74.74,0,0,0-.32-.72L312,74.44l-.83,1.22,6.46,4.4-7.31,2.19.42,1.41L319.53,81A.78.78,0,0,0,320.05,80.43Z" style="fill:#263238"></path><rect x="312.71" y="84.51" width="9.18" height="1.47" transform="translate(-9.94 114.6) rotate(-20.16)" style="fill:#263238"></rect><path d="M334.73,83.82c-.26-.33.16-2.13.42-3.21a12.35,12.35,0,0,0,.54-4.65,1.67,1.67,0,0,0-1.28-1.49c-2.07-.43-5.26,3.69-6.8,5.9V76.45h-1.47v6.26c-.67,1.28-.78,2.1-.39,2.64a1.16,1.16,0,0,0,1,.47,1.34,1.34,0,0,0,.35,0,.74.74,0,0,0,.54-.71v-2c.22-.39.52-.88.93-1.48,2.92-4.28,5.12-5.84,5.57-5.71a.65.65,0,0,1,.13.35,11.48,11.48,0,0,1-.52,4c-.46,1.92-.82,3.44-.22,4.35a1.41,1.41,0,0,0,1,.64c2.46.46,3.74-2.23,3.79-2.34l-1.34-.62S336.11,84.05,334.73,83.82Z" style="fill:#263238"></path><path d="M344.09,81.69a3,3,0,0,0-2.75.66A5.24,5.24,0,0,0,339.63,85c-.68,2.38.22,4.66,2,5.18a3.22,3.22,0,0,0,.75.1c1.58,0,3.12-1.38,3.71-3.44C346.8,84.48,345.9,82.21,344.09,81.69Zm.61,4.78c-.43,1.54-1.64,2.6-2.63,2.32s-1.46-1.82-1-3.36a3.81,3.81,0,0,1,1.2-1.93,1.89,1.89,0,0,1,1.11-.44,1.22,1.22,0,0,1,.32,0C344.68,83.39,345.14,84.93,344.7,86.47Z" style="fill:#263238"></path><ellipse cx="352.02" cy="77.6" rx="1.23" ry="1.67" style="fill:#263238"></ellipse><ellipse cx="352.19" cy="81.99" rx="1.23" ry="1.67" style="fill:#263238"></ellipse><path d="M366.56,66.64l-1-1.11c-.13.11-13.15,11.66-4.05,30.58l1.32-.64C354.27,77.59,366.05,67.08,366.56,66.64Z" style="fill:#263238"></path><path d="M382.39,66.55c.1.12,9.92,12.45-.06,29l1.25.76c10.52-17.47.05-30.6-.06-30.73Z" style="fill:#263238"></path><path d="M369.51,79.47c.41-.87.83-1.73,1.25-2.47a4.54,4.54,0,0,1,.49-.69c.42.24,1,2.1,1.31,3.94L374,80c-.21-1.45-.88-4.87-2.48-5.17-.75-.15-1.44.33-2,1.4-.08.14-.15.3-.23.44a3,3,0,0,0-1-1.36,2.05,2.05,0,0,0-2-.42c-1.91.67-2.83,4.33-3,5l1.44.33c.33-1.44,1.21-3.7,2.05-4,.09,0,.28-.09.64.2a3.07,3.07,0,0,1,.67,2.59l-.18.37c-1.29,2.75-2.77,5.87-4.29,5.58a2.09,2.09,0,0,1-1.47-.76,1,1,0,0,1-.09-.73l-1.38-.5a2.49,2.49,0,0,0,.19,2,3.33,3.33,0,0,0,2.48,1.48,2.09,2.09,0,0,0,.49.05c1.49,0,2.65-1.29,3.68-3-.12,1.17-.05,2.1.58,2.65a2.92,2.92,0,0,0,1.95.69,3.57,3.57,0,0,0,.9-.11,4.17,4.17,0,0,0,2.88-2.08l-1.35-.58a2.86,2.86,0,0,1-1.85,1.23A1.79,1.79,0,0,1,369,85c-.3-.26,0-2.1.16-3.08C369.31,81.14,369.44,80.29,369.51,79.47Z" style="fill:#263238"></path><path d="M380.64,85.1a.92.92,0,0,0-1.1.42,19,19,0,0,1-1.79,1.83l-.32.31a33.61,33.61,0,0,0-.61-3.46l-1.44.33a26.53,26.53,0,0,1,.67,4.52c-.66.73-.86,1.18-.67,1.65a.9.9,0,0,0,.89.55,1,1,0,0,0,.85-.41,2.35,2.35,0,0,0,.36-1.17c.4-.41.9-.88,1.29-1.25s.8-.77,1.14-1.12c0,1-.05,2.31-.15,3.51l1.47.12C381.69,85.49,381.11,85.27,380.64,85.1Z" style="fill:#263238"></path><path d="M399.34,65.4c.51-16.83,9.65-32.72,9.74-32.87l-1.27-.74c-.09.16-9.42,16.35-9.94,33.57-.54,17.37,9.49,26.39,9.91,26.76l1-1.1C408.66,90.93,398.82,82.09,399.34,65.4Z" style="fill:#263238"></path><path d="M473.74,32.36c.1.17,10.16,16.77,6.25,30.89a46.08,46.08,0,0,1-14.33,22.29l.89,1.17A46.68,46.68,0,0,0,481.4,63.64c4.08-14.73-6-31.34-6.41-32Z" style="fill:#263238"></path><path d="M413.89,65.37c-1.1.28-2.1,2-2.91,4l.13-2-1.47-.09-.52,8.26a.72.72,0,0,0,.62.77h.11a.74.74,0,0,0,.72-.57c.94-4,2.58-8.43,3.59-8.91.55.75.66,4.93.23,9.2l1.47.15c.27-2.73.74-9.2-.8-10.53A1.25,1.25,0,0,0,413.89,65.37Z" style="fill:#263238"></path><path d="M426.73,66.29h.17V64.82h-.2c-2.75.05-3.56-.26-3.78-.4a7.18,7.18,0,0,1,.88-1.13c1-1.19,2.61-3,1.21-4.7a1.8,1.8,0,0,0-1.75-.79c-1.45.24-2.34,2.49-2.5,2.93l1.38.51c.33-.89,1-1.93,1.36-2,.1,0,.26.13.37.27.52.63,0,1.41-1.18,2.8a3.86,3.86,0,0,0-1.27,2.18,1.27,1.27,0,0,0,.4.92c.61.6,2,.88,4.33.88Z" style="fill:#263238"></path><path d="M412.43,48.53a.72.72,0,0,0,.79-.64c.27-2.12,1.56-7.67,4.22-7.79a1.08,1.08,0,0,1,.91.35c1.49,1.52,1.14,6.81,1,8.8,0,.46-.05.81-.05,1h1.47c0-.18,0-.5.05-.92.17-2.57.52-7.93-1.43-9.92a2.57,2.57,0,0,0-2-.79c-1.91.09-3.2,1.66-4.06,3.48l.08-4.67-1.47,0-.18,10.37A.73.73,0,0,0,412.43,48.53Z" style="fill:#263238"></path><polygon points="433.73 46.22 435.2 46.22 435.2 43.09 436.57 43.09 436.57 41.62 435.2 41.62 435.2 39.71 433.73 39.71 433.73 41.62 431.82 41.62 431.82 43.09 433.73 43.09 433.73 46.22" style="fill:#263238"></polygon><path d="M441.49,48.18h0a.74.74,0,0,0,.7-.73v-.8a8.09,8.09,0,0,1,2.42-5.19c2.46-2.46,3.41-2.62,3.76-2.51s.65.82.79,1.91a60.41,60.41,0,0,1,.52,7.12h1.47a61.18,61.18,0,0,0-.53-7.31c-.23-1.76-.81-2.78-1.78-3.11-1.25-.42-2.83.43-5.27,2.87a10,10,0,0,0-1.38,1.71V38.31h-1.47v8.33a7.23,7.23,0,0,0,0,.88A.74.74,0,0,0,441.49,48.18Z" style="fill:#263238"></path><rect x="453.45" y="43.37" width="4.57" height="1.47" style="fill:#263238"></rect><path d="M464.37,40.11l.12,7.35,1.47,0-.18-11.08a.73.73,0,0,0-.6-.71.74.74,0,0,0-.81.45s-.71,1.77-1.24,3.18a8.27,8.27,0,0,1-1.91,2.52l1,1.1A10.37,10.37,0,0,0,464.37,40.11Z" style="fill:#263238"></path><path d="M425.58,38.6a29.58,29.58,0,0,0,4.6-.45L430,36.7a19.21,19.21,0,0,1-6.14.28,7.23,7.23,0,0,1,2.53-1.76c1.45-.73,3.25-1.64,2.68-3.78s-1.83-2.35-2.36-2.4A2.78,2.78,0,0,0,424,30.6l1.31.65a1.34,1.34,0,0,1,1.24-.75c.66.07,1,.85,1.09,1.32.23.86-.2,1.22-1.92,2.09a8.34,8.34,0,0,0-3.05,2.19,1.34,1.34,0,0,0-.23,1.59C422.81,38.37,424,38.6,425.58,38.6Z" style="fill:#263238"></path><path d="M482.37,26.11a2.94,2.94,0,0,0-2,.18l.7-1.93L487,23.21l-.28-1.44L480.38,23a.72.72,0,0,0-.55.47l-1.59,4.39a.76.76,0,0,0,.29.87.74.74,0,0,0,.91-.09c.5-.47,1.75-1.36,2.49-1.13.49.15.74.88.86,1.46.43,2.09-.54,3.88-1.7,4.34-.91.36-1.83-.12-2.58-1.36l-1.26.76a3.93,3.93,0,0,0,3.24,2.19,2.9,2.9,0,0,0,1.14-.23c1.75-.69,3.2-3.12,2.6-6A3,3,0,0,0,482.37,26.11Z" style="fill:#263238"></path><rect x="407.89" y="54.45" width="61.91" height="1.47" style="fill:#263238"></rect><rect x="423.2" y="70.42" width="9.65" height="1.47" style="fill:#263238"></rect><path d="M440.24,66.37c-.1-.5-.34-1.84-1.37-1.94-1.18-.13-2.11,1.63-2.7,3.13l1.36.54a8.79,8.79,0,0,1,1.12-2,5.25,5.25,0,0,1,.14.57c.52,2.88-1.87,4.61-3.3,5.64l-.41.3a1,1,0,0,0-.42,1.07c.13.43.38,1.33,7.12,1.91l.13-1.46a36.25,36.25,0,0,1-5.32-.81C438.15,72.15,440.89,70,440.24,66.37Z" style="fill:#263238"></path><path d="M451.81,74.18c-.28.15-.43.18-.45.21-.28-.45,0-2.56.18-3.82a28.39,28.39,0,0,0,.36-3.74c0-1-.44-1.34-.82-1.43s-1.28-.32-4.22,4.57l1-5-1.44-.29-2,9.65a.74.74,0,0,0,.47.84.75.75,0,0,0,.9-.35,55.62,55.62,0,0,1,4.6-7.49c-.05.93-.19,2-.33,3-.36,2.62-.62,4.52.43,5.24a1.39,1.39,0,0,0,.77.23,2.59,2.59,0,0,0,1.23-.38A15.82,15.82,0,0,0,457.06,72L455.92,71A15,15,0,0,1,451.81,74.18Z" style="fill:#263238"></path><polygon points="463.73 69.56 463.89 68.1 461.47 67.83 461.86 66.35 460.44 65.98 460 67.67 457.9 67.43 457.74 68.89 459.62 69.1 458.77 72.3 460.2 72.68 461.09 69.27 463.73 69.56" style="fill:#263238"></polygon><path d="M469.62,74.45a5,5,0,0,0,3.9-3.79,2.66,2.66,0,0,0-.63-2.76c-.92-.84-2.52-.85-3.89-.66a6,6,0,0,0,.87-3.81c0-.39-.16-1.57-1.1-1.74s-2,1-3.28,3.48l1.31.66a12.65,12.65,0,0,1,1.58-2.47c0,.06,0,.13,0,.22a4.67,4.67,0,0,1-2,4.29.75.75,0,0,0-.28.94.73.73,0,0,0,.9.38c1.22-.4,4-1,4.86-.2.1.09.41.37.18,1.34a3.51,3.51,0,0,1-2.8,2.69c-1.86.44-3.87-.16-4.57-1l-1.13.94A5.9,5.9,0,0,0,468,74.64,6.85,6.85,0,0,0,469.62,74.45Z" style="fill:#263238"></path></g><g id="freepik--Plant--inject-61"><line x1="198.32" y1="149.43" x2="198.32" y2="67.37" style="fill:none;stroke:#263238;stroke-linecap:round;stroke-linejoin:round"></line><line x1="198.33" y1="100.92" x2="224.51" y2="78.22" style="fill:none;stroke:#263238;stroke-linecap:round;stroke-linejoin:round"></line><path d="M205.14,58.94a39.36,39.36,0,0,1,1.33,8.81,21,21,0,0,1-8.14,17.17s-6.69-6.7-7-18.62,7.86-22.41,7.86-22.41a71.46,71.46,0,0,1,4.47,10.2" style="fill:none;stroke:#263238;stroke-linecap:round;stroke-linejoin:round"></path><path d="M213.17,87s-1.46-8.73,5.23-14,23-2.62,23-2.62S236.73,80,230.62,85.5,215.78,90.44,213.17,87Z" style="fill:none;stroke:#263238;stroke-linecap:round;stroke-linejoin:round"></path><line x1="198.04" y1="125.36" x2="180.29" y2="109.13" style="fill:none;stroke:#263238;stroke-linecap:round;stroke-linejoin:round"></line><path d="M188.14,117.14s3.5-7.28,0-12.62-20.94-5.35-20.94-5.35.29,14.09,6.69,18.22S188.14,117.14,188.14,117.14Z" style="fill:none;stroke:#263238;stroke-linecap:round;stroke-linejoin:round"></path><line x1="198.62" y1="105.57" x2="185.04" y2="88.43" style="fill:none;stroke:#263238;stroke-linecap:round;stroke-linejoin:round"></line><path d="M190.86,95s2.59-6,0-10.36-15.52-4.39-15.52-4.39.22,11.56,5,14.95S190.86,95,190.86,95Z" style="fill:none;stroke:#263238;stroke-linecap:round;stroke-linejoin:round"></path><path d="M222.32,108.67c-2.22-4.39-5.38-9.14-9.16-10.59-7.54-2.91-13.57,4.36-13.57,4.36s-.85,9.36,4.33,14.49,21.9.14,21.9.14-.61-1.92-1.72-4.55" style="fill:none;stroke:#263238;stroke-linecap:round;stroke-linejoin:round"></path><line x1="199.59" y1="102.44" x2="212.88" y2="110.23" style="fill:none;stroke:#263238;stroke-linecap:round;stroke-linejoin:round"></line><line x1="170.18" y1="150.1" x2="227.47" y2="150.1" style="fill:none;stroke:#263238;stroke-linecap:round;stroke-linejoin:round"></line></g><g id="freepik--Sun--inject-61"><circle cx="143.31" cy="65.48" r="15.71" transform="translate(-13.73 52.7) rotate(-19.9)" style="fill:none;stroke:#263238;stroke-linecap:round;stroke-linejoin:round"></circle><line x1="142.64" y1="34.99" x2="142.64" y2="44.35" style="fill:none;stroke:#263238;stroke-linecap:round;stroke-linejoin:round"></line><line x1="142.64" y1="86.21" x2="142.64" y2="95.58" style="fill:none;stroke:#263238;stroke-linecap:round;stroke-linejoin:round"></line><line x1="112.35" y1="65.28" x2="121.71" y2="65.28" style="fill:none;stroke:#263238;stroke-linecap:round;stroke-linejoin:round"></line><line x1="163.57" y1="65.28" x2="172.94" y2="65.28" style="fill:none;stroke:#263238;stroke-linecap:round;stroke-linejoin:round"></line><line x1="121.22" y1="86.7" x2="127.84" y2="80.08" style="fill:none;stroke:#263238;stroke-linecap:round;stroke-linejoin:round"></line><line x1="157.44" y1="50.48" x2="164.06" y2="43.86" style="fill:none;stroke:#263238;stroke-linecap:round;stroke-linejoin:round"></line><line x1="164.06" y1="86.7" x2="157.44" y2="80.08" style="fill:none;stroke:#263238;stroke-linecap:round;stroke-linejoin:round"></line><line x1="127.84" y1="50.48" x2="121.22" y2="43.86" style="fill:none;stroke:#263238;stroke-linecap:round;stroke-linejoin:round"></line></g><g id="freepik--Pencil--inject-61"><path d="M116,179.15l-13-29.57,27.82,16.69L285.22,344.06a7.83,7.83,0,0,1-.78,11.05l-3,2.61a7.84,7.84,0,0,1-11.06-.78Z" style="fill:none;stroke:#263238;stroke-miterlimit:10"></path><polygon points="130.76 166.22 103.02 149.59 115.96 179.08 130.76 166.22" style="fill:none;stroke:#263238;stroke-miterlimit:10"></polygon><polygon points="119.46 159.45 103.02 149.59 110.69 167.06 119.46 159.45" style="fill:#263238;stroke:#263238;stroke-miterlimit:10"></polygon><path d="M281.44,357.72l3-2.61a7.83,7.83,0,0,0,.78-11.05L270,326.57l-14.84,12.88,15.19,17.49A7.84,7.84,0,0,0,281.44,357.72Z" style="fill:none;stroke:#263238;stroke-miterlimit:10"></path><rect x="254.73" y="332.28" width="19.65" height="5.94" transform="translate(-155.01 255.58) rotate(-40.97)" style="fill:none;stroke:#263238;stroke-miterlimit:10"></rect><rect x="251" y="327.98" width="19.65" height="5.94" transform="translate(-153.1 252.08) rotate(-40.97)" style="fill:none;stroke:#263238;stroke-miterlimit:10"></rect><line x1="260.5" y1="323.7" x2="128.56" y2="171.75" style="fill:none;stroke:#263238;stroke-miterlimit:10"></line><line x1="234.67" y1="306.42" x2="163.19" y2="224.1" style="fill:none;stroke:#263238;stroke-miterlimit:10"></line><line x1="156.34" y1="216.21" x2="124.76" y2="179.86" style="fill:none;stroke:#263238;stroke-miterlimit:10"></line></g><g id="freepik--Books--inject-61"><path d="M205.29,372.05l-10.5,43.8s3.62,5.07,5.07,6.52,4.7,1.44,5.79,1.44,42,.73,42,.73L255.69,371" style="fill:none;stroke:#263238;stroke-linecap:round;stroke-linejoin:round"></path><line x1="214.06" y1="363.78" x2="210.72" y2="363.72" style="fill:none;stroke:#263238;stroke-linecap:round;stroke-linejoin:round"></line><polyline points="196.96 416.57 241.13 416.43 250.54 364.45 218.15 363.86" style="fill:none;stroke:#263238;stroke-linecap:round;stroke-linejoin:round"></polyline><polyline points="199.5 416.94 203.12 420.92 245.47 422 253.13 375.56 249.81 370.96" style="fill:none;stroke:#263238;stroke-linecap:round;stroke-linejoin:round"></polyline><path d="M206.9,419.24H213s-1,4.85-1.53,9.45-.76,10.47-.76,10.47l-3.58-6.64-4.34,5.62Z" style="fill:#263238"></path><polyline points="82.08 195.97 65.36 222.16 68.98 223.07 85.69 198.23 112.33 213.58 115.95 209.97 86.59 194.61" style="fill:none;stroke:#263238;stroke-linecap:round;stroke-linejoin:round"></polyline><polyline points="85.69 198.23 92.91 241.59 115.05 254.23 111.88 215.84" style="fill:none;stroke:#263238;stroke-linecap:round;stroke-linejoin:round"></polyline><polyline points="115.05 254.23 118.66 247.46 115.95 209.97" style="fill:none;stroke:#263238;stroke-linecap:round;stroke-linejoin:round"></polyline><polyline points="92.91 241.59 78.01 261.91 70.33 226.68" style="fill:none;stroke:#263238;stroke-linecap:round;stroke-linejoin:round"></polyline><polyline points="65.36 222.16 73.94 261.46 78.01 261.91" style="fill:none;stroke:#263238;stroke-linecap:round;stroke-linejoin:round"></polyline><line x1="86.59" y1="213.13" x2="74.85" y2="229.39" style="fill:none;stroke:#263238;stroke-linecap:round;stroke-linejoin:round"></line><line x1="87.49" y1="220.81" x2="75.75" y2="237.07" style="fill:none;stroke:#263238;stroke-linecap:round;stroke-linejoin:round"></line><line x1="88.4" y1="228.49" x2="76.65" y2="244.75" style="fill:none;stroke:#263238;stroke-linecap:round;stroke-linejoin:round"></line><line x1="89.3" y1="236.17" x2="77.56" y2="252.43" style="fill:none;stroke:#263238;stroke-linecap:round;stroke-linejoin:round"></line><line x1="91.56" y1="213.58" x2="107.37" y2="222.62" style="fill:none;stroke:#263238;stroke-linecap:round;stroke-linejoin:round"></line><line x1="91.56" y1="220.81" x2="107.37" y2="229.84" style="fill:none;stroke:#263238;stroke-linecap:round;stroke-linejoin:round"></line><line x1="93.82" y1="228.49" x2="109.63" y2="237.52" style="fill:none;stroke:#263238;stroke-linecap:round;stroke-linejoin:round"></line><line x1="94.27" y1="236.17" x2="110.08" y2="245.2" style="fill:none;stroke:#263238;stroke-linecap:round;stroke-linejoin:round"></line></g><g id="freepik--Circles--inject-61"><circle cx="94.6" cy="293.05" r="8.61" transform="translate(-179.51 152.73) rotate(-45)" style="fill:none;stroke:#263238;stroke-miterlimit:10"></circle><circle cx="119.19" cy="293.05" r="8.61" transform="translate(-190.7 356.74) rotate(-79.48)" style="fill:none;stroke:#263238;stroke-miterlimit:10"></circle><circle cx="143.78" cy="293.05" r="8.61" transform="translate(-174.47 365.65) rotate(-76.72)" style="fill:#263238;stroke:#263238;stroke-miterlimit:10"></circle><circle cx="168.36" cy="293.05" r="8.61" transform="translate(-157.91 204.88) rotate(-45)" style="fill:none;stroke:#263238;stroke-miterlimit:10"></circle><circle cx="94.6" cy="318.87" r="8.61" transform="translate(-197.77 160.29) rotate(-45)" style="fill:none;stroke:#263238;stroke-miterlimit:10"></circle><circle cx="119.19" cy="318.87" r="8.61" transform="translate(-216.08 377.84) rotate(-79.48)" style="fill:#263238;stroke:#263238;stroke-miterlimit:10"></circle><circle cx="143.78" cy="318.87" r="8.61" transform="translate(-199.6 385.54) rotate(-76.72)" style="fill:none;stroke:#263238;stroke-miterlimit:10"></circle><circle cx="168.36" cy="318.87" r="8.61" transform="translate(-176.16 212.45) rotate(-45)" style="fill:none;stroke:#263238;stroke-miterlimit:10"></circle><circle cx="94.6" cy="344.69" r="8.61" transform="translate(-262.6 357.56) rotate(-76.72)" style="fill:none;stroke:#263238;stroke-miterlimit:10"></circle><circle cx="119.19" cy="344.69" r="8.61" transform="translate(-154.36 103.46) rotate(-29.52)" style="fill:none;stroke:#263238;stroke-miterlimit:10"></circle><circle cx="143.78" cy="344.69" r="8.61" transform="translate(-201.62 202.62) rotate(-45)" style="fill:none;stroke:#263238;stroke-miterlimit:10"></circle><circle cx="168.36" cy="344.69" r="8.61" transform="translate(-205.79 429.35) rotate(-76.72)" style="fill:#263238;stroke:#263238;stroke-miterlimit:10"></circle><circle cx="94.6" cy="370.51" r="8.61" transform="translate(-287.73 377.45) rotate(-76.72)" style="fill:none;stroke:#263238;stroke-miterlimit:10"></circle><circle cx="119.19" cy="370.51" r="8.61" transform="translate(-167.08 106.82) rotate(-29.52)" style="fill:none;stroke:#263238;stroke-miterlimit:10"></circle><circle cx="143.78" cy="370.51" r="8.61" transform="translate(-219.88 210.18) rotate(-45)" style="fill:#263238;stroke:#263238;stroke-miterlimit:10"></circle><circle cx="168.36" cy="370.51" r="8.61" transform="translate(-230.91 449.24) rotate(-76.72)" style="fill:none;stroke:#263238;stroke-miterlimit:10"></circle></g><g id="freepik--Character--inject-61"><path d="M406.34,122.14s-8.68-10.09-20.65-12.44-27.1,10-29.45,14.91-6.69,44.7-6.69,44.7h68.29s-6.57-34.5-7.74-38S406.34,122.14,406.34,122.14Z" style="fill:#263238;stroke:#263238;stroke-miterlimit:10"></path><path d="M364.86,169.91S362.57,227.1,360.8,235,350.39,261.87,347,273.17A115.18,115.18,0,0,0,343,290.64h74s-11.83-48-12.88-54.89,0-62.31,0-62.31V169Z" style="fill:#fff;stroke:#263238;stroke-miterlimit:10"></path><path d="M410.1,262.51H350.75c-1.47,3.87-2.79,7.55-3.72,10.66A115.18,115.18,0,0,0,343,290.64h74S413.45,276.53,410.1,262.51Z" style="fill:#263238;stroke:#263238;stroke-miterlimit:10"></path><path d="M401.05,165.85s-1.77,75.54-1.24,81.37,21.36,66.37,21.89,69,3.53,9.89,3.53,9.89h14.29s2.12-21.36-2.47-38.48-14.29-33.71-16.41-38.48S424.7,204,424.7,204s24,28.77,25.41,30,31.25,4.94,30.19,3.18-15.89-21.18-22.77-30-18.18-27.71-22.95-32.83-14.47-9.88-19.24-9.18-7.76,1.24-7.76,1.24Z" style="fill:#407BFF"></path><path d="M416.22,185.8s2.3,10.94,6.36,15.17" style="fill:none;stroke:#263238;stroke-miterlimit:10"></path><path d="M416.05,195.68s3.35,6.53,6.71,8.82" style="fill:none;stroke:#263238;stroke-miterlimit:10"></path><path d="M409,200.45s6.53,6.7,12.18,9" style="fill:none;stroke:#263238;stroke-miterlimit:10"></path><path d="M457.88,224.45s7.94-1.41,11.12.88" style="fill:none;stroke:#263238;stroke-miterlimit:10"></path><path d="M461.23,222a10.21,10.21,0,0,0-7.41,2.47" style="fill:none;stroke:#263238;stroke-miterlimit:10"></path><path d="M366.8,173.09s.89,29.83-.35,46.77-2.47,18-3.35,25.77S352.51,276,346,285.52s-11.12,23.65-12.89,30.71a65.21,65.21,0,0,0-1.94,9.89H319.32s-3.88-8.3,3.89-34.77,19.06-37.07,19.94-45.37S339.44,205,339.44,205l-20.35,24.54-22.59,4.06s4.52-11,8.93-20,13.61-21.12,16.89-28.93c4.78-11.38,15.71-19.07,19.95-19.6s13.94-.88,13.94-.88l8.3-1.41Z" style="fill:#407BFF"></path><line x1="339.44" y1="205.03" x2="335.91" y2="179.79" style="fill:none;stroke:#263238;stroke-miterlimit:10"></line><line x1="329.74" y1="183.85" x2="337.15" y2="200.45" style="fill:none;stroke:#263238;stroke-miterlimit:10"></line><line x1="329.74" y1="195.33" x2="334.15" y2="201.15" style="fill:none;stroke:#263238;stroke-miterlimit:10"></line><path d="M308.94,221.07s7.06-1.06,11.82,1.76" style="fill:none;stroke:#263238;stroke-miterlimit:10"></path><path d="M306.11,219.66s5.65-1.42,7.77-1.06" style="fill:none;stroke:#263238;stroke-miterlimit:10"></path><ellipse cx="383.87" cy="181.02" rx="15.09" ry="21.72" style="fill:#fff;stroke:#263238;stroke-miterlimit:10"></ellipse><path d="M345.34,164.81s10.2,13.8,20,21.14,18.75-1.09,18.75-1.09l-17.66-21.73Z" style="fill:#263238;stroke:#263238;stroke-miterlimit:10"></path><path d="M379.62,132s-18.18,8.46-18.43,12,2.49,23.91,3.74,27.4,14.31,16.81,16.8,17.06,5.48-.25,6.48-1.25,13.83-14.56,14.08-16.56,1-27.89,1-27.89l-20.93-11-1-16.69-2,.5Z" style="fill:#fff;stroke:#263238;stroke-miterlimit:10"></path><path d="M378.8,169.87s-.5,1.51.34,2.19,3.36,2.18,5,1.34,2.85-2,2.69-3.19" style="fill:none;stroke:#263238;stroke-miterlimit:10"></path><path d="M377.29,176.59a8.81,8.81,0,0,0,5.88,1.68,12.35,12.35,0,0,0,5.88-2.35" style="fill:none;stroke:#263238;stroke-miterlimit:10"></path><path d="M368.89,161.14s3.87,3.36,8.07,1.17" style="fill:none;stroke:#263238;stroke-miterlimit:10"></path><path d="M388.88,162.15s5,2.18,8.23-.84" style="fill:none;stroke:#263238;stroke-miterlimit:10"></path><path d="M376,154.08s-5.88-2.52-10.08,1.18" style="fill:none;stroke:#263238;stroke-miterlimit:10"></path><path d="M388,153.75s6.89-2.52,10.08,1.17" style="fill:none;stroke:#263238;stroke-miterlimit:10"></path><path d="M370.89,211.55l9.17,15.51,2.07.21-9.38-16.68a1.05,1.05,0,0,0-1.59-.35h0A1.06,1.06,0,0,0,370.89,211.55Z" style="fill:#fff;stroke:#263238;stroke-miterlimit:10"></path><path d="M367.89,228.13s2.7-3.31,5.71-3.3a55.79,55.79,0,0,1,10.06,1.1c1.13.42,3.29,5.71,3.63,6.17s2.64,2.1,2.73,4a7.49,7.49,0,0,1-.48,3.19s-.28,3.83-.73,4.48l-.44.66s-1,1.79-1.5,1.82-20.78.22-20.78.22S364.55,234.48,367.89,228.13Z" style="fill:#fff;stroke:#263238;stroke-miterlimit:10"></path><path d="M378.32,230.32s3.47-.33,4.44.1,4.53,1.68,4.53,1.68" style="fill:none;stroke:#263238;stroke-miterlimit:10"></path><line x1="381.19" y1="237.16" x2="389.54" y2="239.29" style="fill:none;stroke:#263238;stroke-miterlimit:10"></line><line x1="380.49" y1="242.43" x2="388.37" y2="244.43" style="fill:none;stroke:#263238;stroke-miterlimit:10"></line><path d="M310.49,224s7.05-1.93,11.25-.39,19.47,4.28,29.91,6.79,16.24-2.22,16.24-2.22a21.62,21.62,0,0,0-2.32,10.9c.31,6.34.52,7.44.52,7.44s-21.72.58-28.21.9-41.63.28-42.78-3.79,1.11-9.89,3.17-13.16" style="fill:#407BFF"></path><path d="M470.89,229.26s-1.59-1.91-8.88-1.75-23.94,9-28.69,10.46-14.91.64-14.91.64l9.2,8.72h52.15s5.39-2.54,4.44-7.45-11.1-9.83-11.1-9.83" style="fill:#407BFF"></path><path d="M396.22,246.85s9.35-6.5,11.57-7.61,9.67-.79,10.62-.63,7.61,4.28,8.88,5.71a28,28,0,0,1,2.38,3.17Z" style="fill:#fff;stroke:#263238;stroke-miterlimit:10"></path><path d="M401.77,246.38s7.61-4.76,10.46-5.87" style="fill:none;stroke:#263238;stroke-miterlimit:10"></path><path d="M409.06,246.85s7.13-4.6,8.88-5.86" style="fill:none;stroke:#263238;stroke-miterlimit:10"></path><path d="M416.83,247.17a41.71,41.71,0,0,1,6-3.17" style="fill:none;stroke:#263238;stroke-miterlimit:10"></path><path d="M321.25,332.47h4.44a0,0,0,0,1,0,0v122a1.73,1.73,0,0,1-1.73,1.73h-1a1.73,1.73,0,0,1-1.73-1.73v-122A0,0,0,0,1,321.25,332.47Z" style="fill:#fff;stroke:#263238;stroke-miterlimit:10"></path><path d="M436.59,332.47H441a0,0,0,0,1,0,0v122a1.73,1.73,0,0,1-1.73,1.73h-1a1.73,1.73,0,0,1-1.73-1.73v-122a0,0,0,0,1,0,0Z" style="fill:#fff;stroke:#263238;stroke-miterlimit:10"></path><rect x="315.07" y="319.65" width="132.4" height="15.45" rx="3.14" style="fill:#8c8c8c;stroke:#263238;stroke-miterlimit:10"></rect><path d="M382,262.5s-18.75,4.86-32.54,14.57-19.86,20.74-17.66,34.43c2.12,13.15,18.4,18.67,24.28,17.65s16.21,0,24.64-7.89,23.76-45.73,23.76-45.73S393.79,260.2,382,262.5Z" style="fill:#263238;stroke:#263238;stroke-miterlimit:10"></path><path d="M363.64,388.45s1,34.74.77,37S352.91,442.86,350.1,447s-4.59,10-2.81,14.56,8.69,4.85,13,2.55,14.31-26.05,14.82-29.63,1.28-13,1.28-13l6.64-30.4Z" style="fill:#fff;stroke:#263238;stroke-miterlimit:10"></path><path d="M375.51,431.31c-2.71,6.28-8,15.64-8,15.64a21.82,21.82,0,0,0-6.14-4.09,12.89,12.89,0,0,0-5.87-1.28l1.43-4.17c-2.79,4-5.58,7.77-6.8,9.54-2.81,4.09-4.59,10-2.81,14.56s8.69,4.85,13,2.55,14.31-26.05,14.82-29.63C375.25,433.63,375.38,432.53,375.51,431.31Z" style="fill:#407BFF"></path><path d="M387.91,296.22s-13-1-17.62,4.6-7.16,22.48-7.41,33.47.51,49.81.51,49.81l19.67,3.07s15.07-52.88,16.35-62.59S396.85,296,387.91,296.22Z" style="fill:#263238;stroke:#263238;stroke-miterlimit:10"></path><path d="M361.45,380.9l.41,9.85s6.08,4.63,10.4,5.31c8.56,1.33,13.1-3.53,13.1-3.53l1.4-8.2a1.56,1.56,0,0,0-1.8-1.8,38.25,38.25,0,0,1-11.37.39,33.3,33.3,0,0,1-9.88-3.48A1.56,1.56,0,0,0,361.45,380.9Z" style="fill:#b0b0b0;stroke:#263238;stroke-miterlimit:10"></path><path d="M411.93,340.16s26.31,38.07,28.1,42.67,5.87,19.92,8.43,27.84,9.71,12,12.77,12.26,7.41-8.17,6.9-14.3-4.6-15.84-8.43-22.23-5.88-11.49-7.67-14-6.89-10.73-10.72-16.6S428,327.65,428,327.65Z" style="fill:#fff;stroke:#263238;stroke-miterlimit:10"></path><path d="M450.5,396.88c-5.36,0-7.66-6.9-7.66-6.9l-.36.48c1.92,6.48,4.29,15,6,20.21,2.55,7.92,9.71,12,12.77,12.26s7.41-8.17,6.9-14.3-4.6-15.84-8.43-22.23-5.88-11.49-7.67-14c0,0,7.16,12.52,7.16,17.12S455.87,396.88,450.5,396.88Z" style="fill:#407BFF"></path><path d="M379.23,281.15s10,26.83,16.86,38.32a151.67,151.67,0,0,0,12.26,17.88L428,324.07s-12-46.49-21.2-56.2-19.16-8.18-24.78-5.37l-6.9,4.86" style="fill:#263238;stroke:#263238;stroke-miterlimit:10"></path><path d="M405.62,338.66l7,8.72A3.23,3.23,0,0,0,417,348l15.88-8.17a3.23,3.23,0,0,0,1.18-3.65l-3.22-10.49a2.19,2.19,0,0,0-2.92-1.34c-4.82,2-16.34,7-21.92,11.19A2.21,2.21,0,0,0,405.62,338.66Z" style="fill:#b0b0b0;stroke:#263238;stroke-miterlimit:10"></path><rect x="282.47" y="253.9" width="197.29" height="25.93" style="fill:#8c8c8c;stroke:#263238;stroke-miterlimit:10"></rect><path d="M278.87,251.14h5.91a0,0,0,0,1,0,0V453.87a2.31,2.31,0,0,1-2.31,2.31h-1.3a2.31,2.31,0,0,1-2.31-2.31V251.14a0,0,0,0,1,0,0Z" style="fill:#fff;stroke:#263238;stroke-miterlimit:10"></path><path d="M477.5,251.14h5.91a0,0,0,0,1,0,0V453.87a2.31,2.31,0,0,1-2.31,2.31h-1.3a2.31,2.31,0,0,1-2.31-2.31V251.14A0,0,0,0,1,477.5,251.14Z" style="fill:#fff;stroke:#263238;stroke-miterlimit:10"></path><rect x="272.49" y="246.31" width="218.01" height="9.42" style="fill:#fff;stroke:#263238;stroke-miterlimit:10"></rect></g></svg>
