<svg xmlns="http://www.w3.org/2000/svg" viewBox="0 0 500 500"><g id="freepik--background-complete--inject-276"><rect x="428.98" y="298.47" width="6.57" height="38.33" transform="translate(968.64 324.14) rotate(144.39)" style="fill:#c7c7c7"></rect><polygon points="450.73 351.95 458.81 346.17 458.81 346.17 443.22 324.4 443.22 324.4 435.14 330.19 435.14 330.19 450.73 351.95" style="fill:#a6a6a6"></polygon><path d="M395.75,307.8a29.93,29.93,0,1,1,37.56-19.52A30,30,0,0,1,395.75,307.8Zm1-3.28a26.5,26.5,0,1,0-17.28-33.25A26.52,26.52,0,0,0,396.78,304.52Z" style="fill:#dbdbdb"></path><path d="M435.34,275.28a30.92,30.92,0,1,1-3.23-10.23A30.77,30.77,0,0,1,435.34,275.28ZM376,283a29,29,0,1,0,57.59-7.5,29,29,0,0,0-56.48-5A28.76,28.76,0,0,0,376,283Zm56-7.29a27.4,27.4,0,0,1-35.42,29.65h0a27.39,27.39,0,1,1,32.54-38.74A27.71,27.71,0,0,1,431.94,275.72Zm-34.89,27.95a25.64,25.64,0,1,0-15-12.61,25.63,25.63,0,0,0,15,12.61Z" style="fill:#dbdbdb"></path><g style="opacity:0.2"><path d="M379.65,275.11a25.46,25.46,0,1,0,29.27-21A25.46,25.46,0,0,0,379.65,275.11Z" style="fill:#fff"></path><path d="M379.49,282.31a25.49,25.49,0,0,0,28.11,22.26Z" style="fill:#ebebeb"></path><path d="M389.71,258.73l38.5,30.49a25.29,25.29,0,0,0,1.68-5.81,24.42,24.42,0,0,0,.19-6.92L401.66,254A25.38,25.38,0,0,0,389.71,258.73Z" style="fill:#ebebeb"></path><path d="M380.19,272.62l36.68,29.05a26.87,26.87,0,0,0,4.14-2.8L382,268A24.46,24.46,0,0,0,380.19,272.62Z" style="fill:#ebebeb"></path><path d="M387.05,261l39.58,31.35.46-.8-39.37-31.18C387.49,260.55,387.26,260.76,387.05,261Z" style="fill:#ebebeb"></path><path d="M410.18,254.37l17.57,13.91c-.33-.68-.69-1.36-1.08-2L412.38,255C411.67,254.73,410.93,254.53,410.18,254.37Z" style="fill:#ebebeb"></path></g><path d="M397.48,298.48a20.49,20.49,0,0,1-7.15-4.26,21.26,21.26,0,0,1-2.86-3.13,22.24,22.24,0,0,1-2.19-3.67,20.09,20.09,0,0,1-1.83-8.27A22,22,0,0,1,385,271a39.4,39.4,0,0,0-.15,8.11,24.16,24.16,0,0,0,.72,3.9,21,21,0,0,0,1.33,3.71,25.91,25.91,0,0,0,4.41,6.55A34,34,0,0,0,397.48,298.48Z" style="fill:#fff"></path><path d="M448.48,237.76l5.51-8.88-2.72-1.68a2.49,2.49,0,0,1-1.15-2.34c0-.52.06-1,.05-1.56a2.44,2.44,0,0,1,1.29-2.25l2.82-1.51-4.94-9.21-2.82,1.51a2.45,2.45,0,0,1-2.59-.17c-.43-.29-.87-.57-1.33-.82a2.49,2.49,0,0,1-1.31-2.25l.11-3.2L431,205.08l-.1,3.21a2.48,2.48,0,0,1-1.45,2.16l-.69.34-.67.38a2.44,2.44,0,0,1-2.59,0l-2.74-1.69-5.5,8.87,2.72,1.69a2.49,2.49,0,0,1,1.15,2.34,13.38,13.38,0,0,0,0,1.55,2.49,2.49,0,0,1-1.3,2.26l-2.82,1.51,4.94,9.2,2.82-1.51a2.47,2.47,0,0,1,2.59.17,15.07,15.07,0,0,0,1.32.81,2.49,2.49,0,0,1,1.31,2.26l-.09,3.2,10.43.32.1-3.2a2.48,2.48,0,0,1,1.46-2.15l.69-.35.67-.38a2.46,2.46,0,0,1,2.6,0Zm-8.84-6.59a8.55,8.55,0,1,1,3.51-11.58A8.55,8.55,0,0,1,439.64,231.17Z" style="fill:#dbdbdb"></path><path d="M93.94,150.22l-3.66-6.34L88.35,145a1.75,1.75,0,0,1-1.83-.06,9.81,9.81,0,0,0-1-.55,1.75,1.75,0,0,1-1-1.55v-2.23H77.29v2.23a1.73,1.73,0,0,1-1,1.55c-.32.17-.64.35-1,.55a1.73,1.73,0,0,1-1.82.06l-1.94-1.12L68,150.22l1.94,1.12a1.75,1.75,0,0,1,.86,1.61c0,.18,0,.36,0,.54s0,.36,0,.54a1.75,1.75,0,0,1-.85,1.61l-2,1.12,3.65,6.34L73.57,162a1.73,1.73,0,0,1,1.82.06c.3.2.62.38.94.55a1.73,1.73,0,0,1,1,1.55v2.24h7.32v-2.24a1.75,1.75,0,0,1,1-1.55c.33-.17.64-.35,1-.55a1.73,1.73,0,0,1,1.82-.06l1.94,1.12,3.66-6.34L92,155.64a1.72,1.72,0,0,1-.85-1.61c0-.18,0-.36,0-.54s0-.36,0-.54a1.72,1.72,0,0,1,.85-1.61Zm-7,3.27a6,6,0,1,1-6-6A6,6,0,0,1,87,153.49Z" style="fill:#dbdbdb"></path><path d="M399.36,44.87a28.49,28.49,0,1,0,28.49,28.49A28.48,28.48,0,0,0,399.36,44.87Zm0,41.79a13.31,13.31,0,1,1,13.31-13.3A13.3,13.3,0,0,1,399.36,86.66Z" style="fill:#ebebeb"></path><polygon points="404.84 46.05 393.88 46.05 394.49 38.29 404.23 38.29 404.84 46.05" style="fill:#ebebeb"></polygon><polygon points="383.98 49.74 376.23 57.49 371.18 51.58 378.07 44.69 383.98 49.74" style="fill:#ebebeb"></polygon><polygon points="371.85 67.1 371.85 78.06 364.09 77.45 364.09 67.7 371.85 67.1" style="fill:#ebebeb"></polygon><polygon points="375.54 87.95 383.29 95.7 377.37 100.76 370.48 93.87 375.54 87.95" style="fill:#ebebeb"></polygon><polygon points="392.89 100.09 403.85 100.09 403.25 107.85 393.5 107.85 392.89 100.09" style="fill:#ebebeb"></polygon><polygon points="413.75 96.4 421.5 88.65 426.55 94.56 419.66 101.45 413.75 96.4" style="fill:#ebebeb"></polygon><polygon points="425.88 79.04 425.88 68.08 433.64 68.69 433.64 78.44 425.88 79.04" style="fill:#ebebeb"></polygon><polygon points="422.19 58.19 414.45 50.44 420.36 45.38 427.25 52.27 422.19 58.19" style="fill:#ebebeb"></polygon><path d="M76.46,190.81A28.5,28.5,0,1,0,105,219.31,28.49,28.49,0,0,0,76.46,190.81Zm0,41.8a13.31,13.31,0,1,1,13.31-13.3A13.3,13.3,0,0,1,76.46,232.61Z" style="fill:#ebebeb"></path><polygon points="81.94 191.99 70.98 191.99 71.59 184.24 81.33 184.24 81.94 191.99" style="fill:#ebebeb"></polygon><polygon points="61.08 195.69 53.34 203.43 48.28 197.52 55.17 190.63 61.08 195.69" style="fill:#ebebeb"></polygon><polygon points="48.95 213.04 48.95 224 41.19 223.39 41.19 213.65 48.95 213.04" style="fill:#ebebeb"></polygon><polygon points="52.64 233.9 60.39 241.65 54.47 246.7 47.58 239.81 52.64 233.9" style="fill:#ebebeb"></polygon><polygon points="70 246.03 80.95 246.03 80.35 253.79 70.6 253.79 70 246.03" style="fill:#ebebeb"></polygon><polygon points="90.85 242.34 98.6 234.59 103.66 240.51 96.76 247.4 90.85 242.34" style="fill:#ebebeb"></polygon><polygon points="102.99 224.99 102.99 214.03 110.74 214.63 110.74 224.38 102.99 224.99" style="fill:#ebebeb"></polygon><polygon points="99.3 204.13 91.55 196.38 97.46 191.33 104.35 198.22 99.3 204.13" style="fill:#ebebeb"></polygon></g><g id="freepik--Floor--inject-276"><polygon points="46.59 456.31 97.44 456.06 148.29 455.97 250 455.81 351.7 455.97 402.56 456.06 453.41 456.31 402.56 456.55 351.7 456.64 250 456.8 148.29 456.64 97.44 456.55 46.59 456.31" style="fill:#263238"></polygon></g><g id="freepik--Plant--inject-276"><path d="M451.76,359.26c-13.26,18-27.09,38.81-30.46,61.34,0,.34.51.45.58.11a133.79,133.79,0,0,1,5.87-18c8.72-2.39,17.28-4.37,21.86-13,4.67-8.9,4.08-20.5,3.19-30.19C452.74,358.94,452,358.91,451.76,359.26Z" style="fill:#407BFF"></path><path d="M427.88,402.51c6-13.38,13.61-26.8,23.33-37.8.07-.07.17,0,.11.11-6.37,7.83-11.2,16.36-15.93,25,4.39-4.46,9.21-8.46,13.37-13.18.08-.1.21,0,.13.13-4.13,5-8.64,10.34-14,14-1.45,2.66-2.9,5.34-4.38,8,.36-.21.74-.39,1.11-.57.06,0,.12.07.06.1-.42.21-.82.42-1.24.6-.7,1.27-1.4,2.53-2.11,3.79C428.15,403,427.76,402.79,427.88,402.51Z" style="fill:#263238"></path><path d="M432.31,397.84A78.2,78.2,0,0,0,442.5,391c.08-.07.21,0,.12.13a53.59,53.59,0,0,1-10.16,6.92C432.3,398.18,432.15,397.93,432.31,397.84Z" style="fill:#263238"></path><path d="M419.77,417.25c0,.27.49.27.48,0,.07-7.42,0-14.87.12-22.33,1.9-3.83,6-5.95,8.81-9a39.77,39.77,0,0,0,5.3-7.36A53.07,53.07,0,0,0,440.61,358c.79-7.93-2.22-34.12-5.57-33.21-1.73.47-7.35,13.44-8.84,17.73a123.75,123.75,0,0,0-5.28,21.74C418.21,381.75,418.44,399.68,419.77,417.25Z" style="fill:#407BFF"></path><path d="M419.71,385.25l0,0c.4-9.39,2.52-18.87,4.5-28,2.13-9.81,4.62-19,9.67-27.79.09-.16.33,0,.25.14a103,103,0,0,0-7.77,21.34c.34-.53.75-1,1.1-1.53.14-.2.46,0,.33.19a14.13,14.13,0,0,1-1.58,2.22.09.09,0,0,1-.07,0c-1.73,7-3,14.18-4.05,21.34l.24-.28c.05-.06.15,0,.11.08-.13.24-.28.48-.43.71-.53,3.63-1,7.26-1.53,10.85,6.46-5.53,12-12,15.09-20.06,0,0,.08,0,.06,0-3.05,8.33-7.85,15.73-15.26,20.78-.13,1-.27,1.93-.41,2.89,0,.21-.34.15-.34,0,0-.86,0-1.71.08-2.57A.19.19,0,0,1,419.71,385.25Z" style="fill:#263238"></path><path d="M422.76,371.65c4.94-7.38,9.55-14.54,13.17-22.69,0-.09.19,0,.16.07-3,8.1-7.31,16.3-13.09,22.81C422.89,372,422.66,371.8,422.76,371.65Z" style="fill:#263238"></path><path d="M429.32,347.14c2.05-3.62,4.21-7.14,6.13-10.83.06-.11.2,0,.16.09a56.8,56.8,0,0,1-6,10.93C429.5,347.51,429.2,347.35,429.32,347.14Z" style="fill:#263238"></path><path d="M428.52,348.72a0,0,0,0,1,0,.06A0,0,0,0,1,428.52,348.72Z" style="fill:#263238"></path><path d="M414.74,395.8A74.67,74.67,0,0,1,413,410.41c.08.53.15,1.06.23,1.6a69.84,69.84,0,0,0,2.62-16.29.52.52,0,0,0,0-.5v0a108.27,108.27,0,0,0-1.64-22.07c-2.3-13.64-7.32-26.72-16.83-36.94a.68.68,0,0,0-1.05.22c-3.83,9.75-2.49,21.39.77,31.13a57.14,57.14,0,0,0,7.54,14.78C407.94,386.91,412.09,390.79,414.74,395.8Z" style="fill:#407BFF"></path><path d="M398.54,340.76c9,14.62,15.28,32,16,49.24,0,.3-.5.38-.55.07-.21-1.55-.45-3.09-.7-4.62h0c-3.73-3.57-7.56-7.34-10.23-11.8,0-.08.07-.17.13-.1,3.25,3.71,6.27,7.51,9.93,10.81q-1-5.73-2.31-11.28l-.71-.84c-.16-.18.1-.45.26-.27l.22.24a132.24,132.24,0,0,0-4.71-14.95c-2.3-2.74-4.86-5.11-6.53-8.4a.07.07,0,0,1,.12-.07c1.34,1.88,2.64,3.78,4.17,5.53.6.7,1.27,1.35,1.9,2A115.1,115.1,0,0,0,398.19,341,.2.2,0,0,1,398.54,340.76Z" style="fill:#263238"></path><path d="M400.36,358.8c2.91,3.92,6.23,7.66,8.94,11.71.08.11-.09.23-.19.14-3.48-3.26-6.42-7.72-8.94-11.74C400.09,358.78,400.28,358.68,400.36,358.8Z" style="fill:#263238"></path><path d="M409.71,371.42l.12.12c.09.09-.05.22-.13.13l-.13-.12A.1.1,0,0,1,409.71,371.42Z" style="fill:#263238"></path><path d="M384.42,368.87c.72,7.52,4.68,16.51,9.51,22.31a23.7,23.7,0,0,0,7.71,6c3.34,1.65,6.84,3.55,10.29,4.91a67.69,67.69,0,0,1,3.65,12.94l.33-1.15c-2.22-19-14.54-35.33-30.31-45.78A.77.77,0,0,0,384.42,368.87Z" style="fill:#407BFF"></path><path d="M389.87,374.5c-.11-.1,0-.3.16-.21a64.54,64.54,0,0,1,20.09,24.76c.12.26-.24.49-.39.23q-1.1-1.92-2.24-3.76h0c-3.6-.68-7-3.21-9.68-5.61-.07-.07,0-.17.11-.11a22.21,22.21,0,0,0,4.55,3.2c1.47.74,3.05,1.21,4.57,1.81-1.33-2.12-2.72-4.15-4.17-6.12A41.76,41.76,0,0,1,392,382.61c-.1-.07,0-.24.1-.17a106.88,106.88,0,0,0,10.06,5.37,90.91,90.91,0,0,0-7.1-8.27c-1.22-.65-2.46-1.3-3.65-2a.1.1,0,0,1,.08-.18,13.42,13.42,0,0,1,2.8,1.37C392.9,377.3,391.44,375.88,389.87,374.5Z" style="fill:#263238"></path><path d="M390.2,381.08a3.72,3.72,0,0,1,.61.43c.06.05,0,.12-.08.1a3.94,3.94,0,0,1-.63-.36C390,381.18,390.09,381,390.2,381.08Z" style="fill:#263238"></path><polygon points="440.52 456.31 397.31 456.31 400.8 416.96 401.56 408.28 436.26 408.28 437.03 416.96 440.52 456.31" style="fill:#455a64"></polygon><polygon points="437.03 416.96 400.8 416.96 401.56 408.28 436.26 408.28 437.03 416.96" style="fill:#263238"></polygon><rect x="399.5" y="402.21" width="38.83" height="8.59" style="fill:#455a64"></rect></g><g id="freepik--Folder--inject-276"><rect x="91.51" y="78.32" width="287.24" height="377.85" style="fill:#37474f"></rect><polygon points="408.5 225.31 408.5 78.49 378.75 78.46 378.75 233.72 408.5 225.31" style="fill:#37474f"></polygon><rect x="108.93" y="69.63" width="287.36" height="374.92" transform="translate(10.69 -10.08) rotate(2.34)" style="fill:#fff"></rect><path d="M388.54,450.25l-287.13-11.6h-.11v-.1L116.45,63.92v-.24h.24L403.82,75.51H404v.14Zm0,0L403.68,75.64l.13.14L116.68,64.17l.25-.23L101.52,438.55l-.1-.11Z" style="fill:#263238"></path><rect x="101.47" y="435.46" width="287.36" height="8.94" transform="translate(18.13 -9.63) rotate(2.34)" style="fill:#407BFF"></rect><rect x="122.83" y="73.63" width="20.8" height="183.75" transform="translate(6.86 -5.29) rotate(2.34)" style="fill:#407BFF;opacity:0.30000000000000004"></rect><rect x="361.59" y="256.88" width="20.8" height="183.75" transform="translate(14.53 -14.87) rotate(2.34)" style="fill:#407BFF;opacity:0.30000000000000004"></rect><rect x="116.39" y="69.79" width="287.36" height="8.94" transform="translate(3.24 -10.54) rotate(2.34)" style="fill:#407BFF"></rect><rect x="133.51" y="98.53" width="109.01" height="136.79" transform="translate(6.96 -7.52) rotate(2.34)" style="fill:#dbdbdb"></rect><rect x="258.16" y="101.74" width="48.07" height="3.26" transform="translate(4.45 -11.42) rotate(2.34)" style="fill:#455a64"></rect><rect x="129.65" y="246.34" width="48.07" height="3.47" transform="translate(10.24 -6.06) rotate(2.34)" style="fill:#455a64"></rect><rect x="124.22" y="379.73" width="48.07" height="3.26" transform="translate(15.67 -5.73) rotate(2.34)" style="fill:#455a64"></rect><rect x="126.36" y="327.28" width="48.07" height="3.26" transform="translate(13.53 -5.86) rotate(2.34)" style="fill:#455a64"></rect><path d="M257.77,112.41c7.44.16,14.88.39,22.32.64l22.32.82,22.31,1c7.44.36,14.87.73,22.3,1.18-7.44-.15-14.88-.38-22.32-.63l-22.32-.83-22.31-1C272.64,113.24,265.2,112.87,257.77,112.41Z" style="fill:#a6a6a6"></path><path d="M257.59,116.85c7.44.16,14.88.39,22.32.64l22.32.82,22.31,1c7.44.36,14.87.73,22.3,1.18-7.44-.15-14.88-.38-22.32-.63L302.2,119l-22.31-1C272.45,117.68,265,117.3,257.59,116.85Z" style="fill:#a6a6a6"></path><path d="M257.41,121.29c7.44.16,14.88.39,22.32.64l22.32.82,22.31,1c7.43.36,14.87.73,22.3,1.18-7.44-.15-14.88-.39-22.32-.63L302,123.47l-22.31-1C272.27,122.12,264.84,121.74,257.41,121.29Z" style="fill:#a6a6a6"></path><path d="M257.23,125.73c7.44.16,14.88.39,22.32.64l22.32.82,22.31,1c7.43.36,14.87.73,22.3,1.18-7.44-.15-14.88-.39-22.32-.63l-22.32-.83-22.31-1C272.09,126.56,264.66,126.18,257.23,125.73Z" style="fill:#a6a6a6"></path><path d="M257,130.17c3.73,0,7.45.09,11.17.18s7.44.25,11.16.37,7.44.33,11.16.54,7.43.43,11.14.73c-3.72,0-7.45-.08-11.17-.18s-7.44-.25-11.16-.37-7.43-.33-11.15-.54S260.76,130.47,257,130.17Z" style="fill:#a6a6a6"></path><path d="M256.68,139.05c7.45.15,14.89.39,22.33.63l22.31.83,22.31,1c7.44.36,14.87.74,22.31,1.19-7.45-.15-14.89-.39-22.33-.63l-22.32-.83-22.31-1C271.55,139.87,264.11,139.5,256.68,139.05Z" style="fill:#a6a6a6"></path><path d="M256.5,143.49c7.45.15,14.89.39,22.33.63l22.31.83,22.31,1c7.44.36,14.87.74,22.31,1.19-7.45-.15-14.89-.39-22.33-.63l-22.32-.83-22.31-1C271.37,144.31,263.93,143.94,256.5,143.49Z" style="fill:#a6a6a6"></path><path d="M256.32,147.93c7.44.15,14.88.39,22.33.63l22.31.83,22.31,1c7.44.36,14.87.74,22.3,1.19-7.44-.15-14.88-.39-22.32-.63l-22.32-.83-22.31-1C271.19,148.75,263.75,148.38,256.32,147.93Z" style="fill:#a6a6a6"></path><path d="M256.14,152.37c7.44.15,14.88.39,22.32.63l22.32.83,22.31,1c7.44.36,14.87.74,22.3,1.19-7.44-.16-14.88-.39-22.32-.63l-22.32-.83-22.31-1C271,153.19,263.57,152.82,256.14,152.37Z" style="fill:#a6a6a6"></path><path d="M256,156.81c3.72,0,7.45.08,11.17.18s7.44.25,11.16.37,7.43.33,11.15.54,7.43.43,11.15.73c-3.73,0-7.45-.09-11.17-.18s-7.44-.25-11.16-.37-7.44-.33-11.16-.54S259.67,157.11,256,156.81Z" style="fill:#a6a6a6"></path><path d="M255.6,165.69c7.44.15,14.88.38,22.32.63l22.32.83,22.31,1c7.43.36,14.87.73,22.3,1.19-7.44-.16-14.88-.39-22.32-.64l-22.32-.82-22.31-1C270.46,166.51,263,166.14,255.6,165.69Z" style="fill:#a6a6a6"></path><path d="M255.42,170.12c7.44.16,14.88.39,22.32.64l22.32.83,22.31,1c7.43.36,14.87.73,22.3,1.19-7.44-.16-14.89-.39-22.33-.64L300,172.3l-22.31-1C270.28,171,262.85,170.58,255.42,170.12Z" style="fill:#a6a6a6"></path><path d="M255.23,174.56c7.45.16,14.89.39,22.33.64l22.32.83,22.31,1c7.43.36,14.87.73,22.3,1.18-7.45-.15-14.89-.38-22.33-.63l-22.31-.83-22.31-1C270.1,175.39,262.67,175,255.23,174.56Z" style="fill:#a6a6a6"></path><path d="M255.05,179c3.73,0,7.45.09,11.17.18s7.44.25,11.16.37,7.44.33,11.15.54,7.44.43,11.15.73c-3.73,0-7.45-.08-11.17-.17s-7.44-.25-11.16-.38-7.44-.32-11.15-.54S258.77,179.3,255.05,179Z" style="fill:#a6a6a6"></path><path d="M254.69,187.88c7.44.16,14.89.39,22.33.64l22.31.82,22.31,1c7.44.36,14.87.73,22.3,1.18-7.44-.15-14.88-.39-22.32-.63l-22.32-.83-22.31-1C269.56,188.71,262.12,188.33,254.69,187.88Z" style="fill:#a6a6a6"></path><path d="M254.51,192.32c7.44.16,14.88.39,22.32.64l22.32.82,22.31,1c7.44.36,14.87.73,22.3,1.18-7.44-.15-14.88-.39-22.32-.63l-22.32-.83-22.31-1C269.38,193.15,261.94,192.77,254.51,192.32Z" style="fill:#a6a6a6"></path><path d="M254.33,196.76c7.44.16,14.88.39,22.32.64l22.32.82,22.31,1c7.44.37,14.87.74,22.3,1.19-7.44-.15-14.88-.39-22.32-.63l-22.32-.83-22.31-1C269.2,197.59,261.76,197.21,254.33,196.76Z" style="fill:#a6a6a6"></path><path d="M254.15,201.2c7.44.16,14.88.39,22.32.64l22.32.82,22.31,1c7.43.37,14.87.74,22.3,1.19-7.44-.15-14.88-.39-22.32-.63l-22.32-.83-22.31-1C269,202,261.58,201.65,254.15,201.2Z" style="fill:#a6a6a6"></path><path d="M254,205.64c3.72,0,7.44.09,11.16.18s7.44.25,11.16.37,7.44.33,11.16.54,7.43.43,11.14.73c-3.72,0-7.44-.08-11.16-.18s-7.44-.25-11.16-.37-7.44-.33-11.16-.54S257.68,205.94,254,205.64Z" style="fill:#a6a6a6"></path><rect x="143.22" y="265.5" width="96.8" height="4.49" transform="translate(11.07 -7.59) rotate(2.34)" style="fill:#ebebeb"></rect><rect x="143.24" y="264.95" width="69.98" height="4.49" transform="matrix(1, 0.04, -0.04, 1, 11.04, -7.04)" style="fill:#407BFF"></rect><rect x="142.75" y="277.12" width="96.8" height="4.49" transform="translate(11.54 -7.56) rotate(2.34)" style="fill:#ebebeb"></rect><rect x="142.75" y="276.96" width="88.77" height="4.49" transform="translate(11.53 -7.39) rotate(2.34)" style="fill:#407BFF"></rect><rect x="142.28" y="288.74" width="96.8" height="4.49" transform="translate(12.02 -7.53) rotate(2.34)" style="fill:#ebebeb"></rect><rect x="142.29" y="288.3" width="75.44" height="4.49" transform="translate(11.99 -7.09) rotate(2.34)" style="fill:#407BFF"></rect><rect x="141.8" y="300.35" width="96.8" height="4.49" transform="translate(12.49 -7.5) rotate(2.34)" style="fill:#ebebeb"></rect><rect x="141.81" y="300.08" width="83.19" height="4.49" transform="translate(12.47 -7.22) rotate(2.34)" style="fill:#407BFF"></rect><rect x="141.33" y="311.97" width="96.8" height="4.49" transform="translate(12.96 -7.47) rotate(2.34)" style="fill:#ebebeb"></rect><rect x="141.33" y="311.85" width="91.04" height="4.49" transform="translate(12.96 -7.35) rotate(2.34)" style="fill:#407BFF"></rect><rect x="128.93" y="261.71" width="7.26" height="7.26" transform="matrix(1, 0.04, -0.04, 1, 10.92, -5.18)" style="fill:#407BFF"></rect><rect x="128.46" y="273.33" width="7.26" height="7.26" transform="translate(11.4 -5.15) rotate(2.34)" style="fill:#455a64"></rect><rect x="127.98" y="284.95" width="7.26" height="7.26" transform="matrix(1, 0.04, -0.04, 1, 11.87, -5.12)" style="fill:#c7c7c7"></rect><rect x="127.51" y="296.56" width="7.26" height="7.26" transform="translate(12.34 -5.09) rotate(2.34)" style="fill:#407BFF"></rect><rect x="127.04" y="308.18" width="7.26" height="7.26" transform="translate(12.81 -5.07) rotate(2.34)" style="fill:#263238"></rect><rect x="266.8" y="252.43" width="61.68" height="3.26" transform="translate(10.6 -11.92) rotate(2.34)" style="fill:#455a64"></rect><rect x="266.17" y="267.45" width="23.45" height="3.26" transform="translate(11.2 -11.1) rotate(2.34)" style="fill:#c7c7c7"></rect><rect x="265.04" y="295.12" width="23.45" height="3.26" transform="translate(12.32 -11.03) rotate(2.34)" style="fill:#c7c7c7"></rect><rect x="263.92" y="322.78" width="23.45" height="3.26" transform="translate(13.45 -10.96) rotate(2.34)" style="fill:#c7c7c7"></rect><rect x="262.79" y="350.44" width="23.45" height="3.26" transform="translate(14.58 -10.9) rotate(2.34)" style="fill:#c7c7c7"></rect><path d="M313.5,270.53c5.14.06,10.28.2,15.42.36l15.42.54,15.41.71c5.14.27,10.27.55,15.41.91-5.15-.06-10.29-.2-15.43-.35l-15.42-.55-15.41-.71C323.77,271.17,318.63,270.89,313.5,270.53Z" style="fill:#a6a6a6"></path><path d="M313.32,275c5.14.06,10.28.2,15.42.36l15.42.54,15.41.71c5.14.27,10.27.55,15.41.91-5.15-.06-10.29-.2-15.43-.35l-15.42-.55-15.41-.71C323.58,275.61,318.45,275.33,313.32,275Z" style="fill:#a6a6a6"></path><path d="M313.14,279.41c5.14.06,10.28.2,15.42.36l15.42.54,15.41.71c5.14.27,10.27.55,15.41.91-5.15-.06-10.29-.2-15.43-.35L344,281l-15.41-.71C323.4,280.05,318.27,279.77,313.14,279.41Z" style="fill:#a6a6a6"></path><path d="M313,283.85c2.18-.06,4.35,0,6.53,0s4.34.12,6.51.18,4.34.21,6.51.35,4.34.31,6.5.54c-2.17.07-4.35,0-6.52,0s-4.34-.13-6.52-.19-4.34-.2-6.5-.35S315.12,284.09,313,283.85Z" style="fill:#a6a6a6"></path><path d="M312.37,298.27c5.14.07,10.28.21,15.42.36l15.42.54,15.41.71c5.14.27,10.27.55,15.41.91-5.15-.06-10.29-.2-15.43-.35l-15.42-.55-15.41-.71C322.63,298.91,317.5,298.63,312.37,298.27Z" style="fill:#a6a6a6"></path><path d="M312.19,302.71c5.14.06,10.28.21,15.42.36l15.42.54,15.41.71c5.14.27,10.27.55,15.4.91-5.14-.06-10.28-.2-15.42-.35L343,304.33l-15.41-.71C322.45,303.35,317.32,303.07,312.19,302.71Z" style="fill:#a6a6a6"></path><path d="M312,307.15c5.15.06,10.29.2,15.43.36l15.42.54,15.41.71c5.14.27,10.27.55,15.4.91-5.14-.06-10.28-.2-15.42-.35l-15.42-.55-15.41-.71C322.27,307.79,317.14,307.51,312,307.15Z" style="fill:#a6a6a6"></path><path d="M311.82,311.59c2.18-.06,4.35,0,6.53,0s4.34.13,6.51.18,4.34.21,6.51.35,4.34.31,6.5.55c-2.18.06-4.35,0-6.52,0s-4.35-.13-6.52-.19-4.34-.2-6.51-.35S314,311.83,311.82,311.59Z" style="fill:#a6a6a6"></path><path d="M311.23,326c5.15.06,10.29.2,15.43.35l15.42.54,15.41.71c5.14.27,10.27.55,15.4.91-5.14-.06-10.28-.2-15.42-.35l-15.42-.55-15.41-.71C321.5,326.65,316.37,326.37,311.23,326Z" style="fill:#a6a6a6"></path><path d="M311.05,330.45c5.15.07,10.29.21,15.43.36l15.42.54,15.41.71c5.14.27,10.27.55,15.4.91-5.14-.06-10.28-.2-15.42-.35l-15.42-.55-15.41-.71C321.32,331.09,316.19,330.81,311.05,330.45Z" style="fill:#a6a6a6"></path><path d="M310.87,334.89c5.15.07,10.29.21,15.43.36l15.42.54,15.41.71c5.13.27,10.27.55,15.4.91-5.14-.06-10.28-.2-15.42-.35l-15.42-.55-15.41-.71C321.14,335.53,316,335.25,310.87,334.89Z" style="fill:#a6a6a6"></path><path d="M310.69,339.33c2.18-.06,4.35,0,6.52,0s4.35.13,6.52.19,4.34.2,6.51.34,4.33.31,6.5.55c-2.18.06-4.35,0-6.52,0s-4.35-.13-6.52-.19-4.34-.2-6.51-.35S312.86,339.57,310.69,339.33Z" style="fill:#a6a6a6"></path><path d="M310.1,353.76c5.15.06,10.29.2,15.43.35l15.42.54,15.41.72c5.13.26,10.27.54,15.4.9-5.14-.06-10.28-.2-15.42-.35l-15.42-.55-15.41-.71C320.37,354.39,315.24,354.11,310.1,353.76Z" style="fill:#a6a6a6"></path><path d="M309.92,358.2c5.15.06,10.29.2,15.43.35l15.42.54,15.41.72c5.13.26,10.27.54,15.4.9-5.14-.06-10.28-.2-15.42-.35l-15.42-.55-15.41-.71C320.19,358.83,315.05,358.55,309.92,358.2Z" style="fill:#a6a6a6"></path><path d="M309.74,362.64c5.15.06,10.29.2,15.43.35l15.42.54,15.41.71c5.13.27,10.27.55,15.4.91-5.14-.06-10.29-.2-15.43-.35l-15.41-.55-15.42-.71C320,363.27,314.87,363,309.74,362.64Z" style="fill:#a6a6a6"></path><path d="M309.56,367.07c2.18-.06,4.35,0,6.52,0s4.35.13,6.52.19,4.34.2,6.51.34,4.33.31,6.5.55c-2.18.06-4.35,0-6.53,0s-4.34-.12-6.51-.18-4.34-.21-6.51-.35S311.72,367.31,309.56,367.07Z" style="fill:#a6a6a6"></path><polygon points="301.19 268.92 300.81 282.94 300.34 296.95 299.29 324.97 299.13 326.69 298.45 340.7 297.69 354.7 298.08 340.68 298.55 326.67 298.53 324.94 299.76 296.93 300.44 282.92 301.19 268.92" style="fill:#407BFF"></polygon><path d="M302.59,270.09a1.43,1.43,0,0,1-1.5,1.38,1.44,1.44,0,1,1,1.5-1.38Z" style="fill:#407BFF"></path><path d="M301.46,297.83a1.44,1.44,0,0,1-1.5,1.39,1.46,1.46,0,0,1-1.39-1.51,1.45,1.45,0,0,1,2.89.12Z" style="fill:#407BFF"></path><path d="M300.33,325.57a1.45,1.45,0,1,1-1.39-1.5A1.45,1.45,0,0,1,300.33,325.57Z" style="fill:#407BFF"></path><path d="M299.2,353.31a1.45,1.45,0,1,1-1.39-1.5A1.45,1.45,0,0,1,299.2,353.31Z" style="fill:#407BFF"></path><path d="M146.91,349.73a10.69,10.69,0,1,1-1.19-5.38A10.71,10.71,0,0,1,146.91,349.73Z" style="fill:#455a64"></path><path d="M145.72,344.35l-9.5,4.94.43-10.7A10.73,10.73,0,0,1,145.72,344.35Z" style="fill:#407BFF"></path><path d="M143.62,349.59a7.41,7.41,0,1,1-7.1-7.7A7.41,7.41,0,0,1,143.62,349.59Z" style="fill:#fff"></path><rect x="133.19" y="347.65" width="6.16" height="0.87" transform="translate(14.29 -5.26) rotate(2.34)" style="fill:#263238"></rect><rect x="131.56" y="350.06" width="9.22" height="0.87" transform="translate(14.4 -5.26) rotate(2.34)" style="fill:#a6a6a6"></rect><path d="M176.84,351a10.07,10.07,0,0,1-.18,1.56,10.74,10.74,0,1,1,.18-1.56Z" style="fill:#455a64"></path><path d="M176.84,351a10.07,10.07,0,0,1-.18,1.56l-10.51-2,.43-10.69A10.68,10.68,0,0,1,176.84,351Z" style="fill:#407BFF"></path><path d="M173.54,350.81a7.4,7.4,0,1,1-7.09-7.7A7.4,7.4,0,0,1,173.54,350.81Z" style="fill:#fff"></path><rect x="163.11" y="348.87" width="6.16" height="0.87" transform="translate(14.37 -6.48) rotate(2.34)" style="fill:#263238"></rect><rect x="161.49" y="351.28" width="9.22" height="0.87" transform="translate(14.48 -6.48) rotate(2.34)" style="fill:#a6a6a6"></rect><path d="M207,352.18a10.71,10.71,0,1,1-1.2-5.38A10.7,10.7,0,0,1,207,352.18Z" style="fill:#455a64"></path><path d="M207,352.18a10.7,10.7,0,0,1-7.27,9.7l-3.43-10.14.44-10.7a10.71,10.71,0,0,1,9.06,5.76A10.6,10.6,0,0,1,207,352.18Z" style="fill:#407BFF"></path><path d="M203.68,352a7.4,7.4,0,1,1-7.1-7.7A7.41,7.41,0,0,1,203.68,352Z" style="fill:#fff"></path><rect x="193.25" y="350.1" width="6.16" height="0.87" transform="matrix(1, 0.04, -0.04, 1, 14.44, -7.71)" style="fill:#263238"></rect><rect x="191.63" y="352.51" width="9.22" height="0.87" transform="translate(14.55 -7.7) rotate(2.34)" style="fill:#a6a6a6"></rect><path d="M237,353.4a10.7,10.7,0,1,1-1.2-5.38A10.62,10.62,0,0,1,237,353.4Z" style="fill:#455a64"></path><path d="M237,353.4a10.7,10.7,0,0,1-18,7.41l7.28-7.85.43-10.69A10.7,10.7,0,0,1,237,353.4Z" style="fill:#407BFF"></path><path d="M233.65,353.26a7.4,7.4,0,1,1-7.09-7.69A7.4,7.4,0,0,1,233.65,353.26Z" style="fill:#fff"></path><rect x="223.22" y="351.32" width="6.16" height="0.87" transform="translate(14.52 -8.93) rotate(2.34)" style="fill:#263238"></rect><rect x="221.6" y="353.74" width="9.22" height="0.87" transform="translate(14.63 -8.93) rotate(2.34)" style="fill:#a6a6a6"></rect><polygon points="250.61 253.47 250.19 268.11 249.69 282.74 248.58 312 247.31 341.25 246.61 355.88 245.84 370.5 246.25 355.86 246.75 341.23 247.86 311.97 249.14 282.71 249.84 268.09 250.61 253.47" style="fill:#455a64"></polygon><g id="freepik--IaQ7Yo--inject-276"><path d="M130.17,397.05a1,1,0,0,1-.48.21l-.23,0-.4,0-.41-.08a4.13,4.13,0,0,1-1.44-.71,9.59,9.59,0,0,1-2.52-2.75,4.13,4.13,0,0,1-.58-1.48c0-.14,0-.28,0-.42v-.39c0-.12.06-.25.11-.37a3.69,3.69,0,0,1,.18-.33l.06.06,1.6,1.73a.09.09,0,0,1,0,.11.82.82,0,0,0,.15.81,16.44,16.44,0,0,0,1.44,1.57.84.84,0,0,0,.8.21s.06,0,.09,0l1.62,1.76S130.16,397,130.17,397.05Z" style="fill:#407BFF"></path><path d="M131.18,396.12l-.61.56,0,0-1.64-1.78.14-.11.52-.48a.27.27,0,0,1,.43,0l1.22,1.32A.27.27,0,0,1,131.18,396.12Z" style="fill:#407BFF"></path><path d="M127,391.59l-.68.6-1.61-1.75,0,0,.62-.57a.27.27,0,0,1,.42,0l1.23,1.34A.26.26,0,0,1,127,391.59Z" style="fill:#407BFF"></path></g><g id="freepik--TEfYE6--inject-276"><path d="M130.56,405.71l-.19.16-3,2.6a.44.44,0,0,1-.66,0l-2.8-2.88-.11-.11a.44.44,0,0,1,.25-.06l2,.07,4.12.16A.61.61,0,0,1,130.56,405.71Z" style="fill:#407BFF"></path><path d="M130.34,410.75l-.24,0-2.37-.09-3.79-.13a.73.73,0,0,1-.31-.09l2.45-2.15.44.44.19.19a.5.5,0,0,0,.72,0l.66-.58,2.25,2.32Z" style="fill:#407BFF"></path><path d="M125.81,408l-2.39,2.12s0-.07,0-.11l.15-4.16a.44.44,0,0,1,0-.13Z" style="fill:#407BFF"></path><path d="M130.61,410.42l-.83-.85-1.34-1.38-.06,0c.8-.72,1.61-1.41,2.39-2.12C130.8,406.11,130.65,410.31,130.61,410.42Z" style="fill:#407BFF"></path></g><g id="freepik--aiZGp2--inject-276"><path d="M244.71,396.42a5.38,5.38,0,0,0-.43,1.63h0l-1.42-.06h0v0s0-.08,0-.11a5.41,5.41,0,0,1,.12-.58,4.79,4.79,0,0,1,.36-.88s0,0,0,0l1.33.05Z" style="fill:#407BFF"></path><path d="M244.52,400.09h0l-1.31,0a.05.05,0,0,1,0,0,4.65,4.65,0,0,1-.29-1,4.38,4.38,0,0,1,0-.52h0v0h0l1.41.06s0,0,0,0,0,.23,0,.35a3.57,3.57,0,0,0,.07.56,5.28,5.28,0,0,0,.16.66Z" style="fill:#407BFF"></path><path d="M250.14,400.75l0,0a4.4,4.4,0,0,1-1,1,3.86,3.86,0,0,1-.65.37,3.41,3.41,0,0,1-.68.23,3.78,3.78,0,0,1-.57.1h-.09l0,0,0,0a4.28,4.28,0,0,0,1.1-1,4.7,4.7,0,0,0,.46-.7l0,0,1.34.06Z" style="fill:#407BFF"></path><path d="M248.9,398.23l-1.89-.07.07-1.65h0l1.45.06s0,0,0,0a4.72,4.72,0,0,1,.26,1,4.57,4.57,0,0,1,0,.52Z" style="fill:#407BFF"></path><path d="M248.87,398.67a.49.49,0,0,0,0,.12,2.51,2.51,0,0,0,0,.27c0,.13,0,.25-.08.38a4.65,4.65,0,0,1-.28.79s0,0,0,0l-1.48-.06h0l.06-1.59Z" style="fill:#407BFF"></path><path d="M246.66,396.5l-.07,1.65-1.84-.07s0-.08,0-.13,0-.18.05-.27a2.71,2.71,0,0,1,.09-.41,3.66,3.66,0,0,1,.3-.8s0,0,0,0l1.4.05Z" style="fill:#407BFF"></path><path d="M246.57,398.6l-.06,1.55v0h0l-1.44-.06s0,0,0,0a4,4,0,0,1-.22-.84c0-.15,0-.3,0-.44s0-.2,0-.3h0l1.8.08S246.57,398.58,246.57,398.6Z" style="fill:#407BFF"></path><path d="M250.89,398.33l-1.54-.07a5.33,5.33,0,0,0-.29-1.67h0l1.42.06,0,0a4.36,4.36,0,0,1,.31,1.05,3.68,3.68,0,0,1,0,.58Z" style="fill:#407BFF"></path><path d="M250.88,398.74a.45.45,0,0,0,0,.11c0,.14,0,.28-.07.41a4.18,4.18,0,0,1-.32.92l-.07.14h0l-1.41-.06h0l.06-.14a6.29,6.29,0,0,0,.22-.74,5.43,5.43,0,0,0,.09-.56c0-.05,0-.09,0-.13s0,0,0,0h0Z" style="fill:#407BFF"></path><path d="M250.28,396.22h0l-1.35-.06s0,0,0,0a5.1,5.1,0,0,0-.63-1,3.86,3.86,0,0,0-.5-.49l-.27-.22h0v0a3.8,3.8,0,0,1,1.35.46A4,4,0,0,1,250.28,396.22Z" style="fill:#407BFF"></path><path d="M246.15,402.38h0a3.34,3.34,0,0,1-.43-.1,4,4,0,0,1-.77-.32,4.28,4.28,0,0,1-.78-.56,3.64,3.64,0,0,1-.46-.5,4,4,0,0,1-.28-.43h0l1.26.05s0,0,0,0a4.46,4.46,0,0,0,.43.77,4.67,4.67,0,0,0,1,1.07Z" style="fill:#407BFF"></path><path d="M246.46,394.37l-.19.13a4.08,4.08,0,0,0-.63.54,4.41,4.41,0,0,0-.68.88l0,.07h-.09l-1.23-.05a4,4,0,0,1,2.84-1.61v0Z" style="fill:#407BFF"></path><path d="M248.23,400.67a4.26,4.26,0,0,1-.65.82,4.55,4.55,0,0,1-.74.57l.06-1.44Z" style="fill:#407BFF"></path><path d="M246.49,400.6l-.06,1.42a4.12,4.12,0,0,1-1.22-1.47Z" style="fill:#407BFF"></path><path d="M248.38,396.14l-1.28-.05.05-1.35a3.8,3.8,0,0,1,.7.63A4.76,4.76,0,0,1,248.38,396.14Z" style="fill:#407BFF"></path><path d="M246.73,394.76l-.06,1.32-1.22-.05A3.79,3.79,0,0,1,246.73,394.76Z" style="fill:#407BFF"></path></g><g id="freepik--uGJA8C--inject-276"><path d="M249.48,410.59a3.46,3.46,0,0,0-3.93-2,3.24,3.24,0,0,0-2.64,3.32,4.39,4.39,0,0,0,.4,1.51,11.28,11.28,0,0,0,1.82,2.89c.3.36.61.7.92,1.06l.11-.09c.44-.43.89-.85,1.31-1.29a10.2,10.2,0,0,0,1.91-2.81A3.28,3.28,0,0,0,249.48,410.59Zm-1.09,1.22a2.1,2.1,0,1,1-1.89-2.22A2.09,2.09,0,0,1,248.39,411.81Z" style="fill:#407BFF"></path></g><path d="M139,391.53c5.15.06,10.29.2,15.43.35l15.42.54,15.41.72c5.13.26,10.27.54,15.4.9-5.14-.06-10.29-.2-15.43-.35l-15.41-.55-15.42-.71C149.22,392.16,144.08,391.88,139,391.53Z" style="fill:#a6a6a6"></path><path d="M138.77,396c2.58-.05,5.15,0,7.72,0s5.14.16,7.71.24,5.14.23,7.7.39,5.14.34,7.7.59c-2.58,0-5.15,0-7.72,0s-5.14-.16-7.71-.24-5.14-.23-7.7-.39S141.33,396.22,138.77,396Z" style="fill:#a6a6a6"></path><path d="M138.35,406.31c5.14.06,10.28.2,15.42.36l15.42.54,15.41.71c5.14.27,10.28.55,15.41.91-5.15-.06-10.29-.2-15.43-.35l-15.42-.55-15.41-.71C148.62,407,143.48,406.67,138.35,406.31Z" style="fill:#a6a6a6"></path><path d="M138.17,410.75c2.57,0,5.14,0,7.72,0s5.14.16,7.71.23,5.13.24,7.7.4,5.13.33,7.7.59c-2.58,0-5.15,0-7.72,0s-5.14-.15-7.71-.23-5.14-.23-7.71-.4S140.73,411,138.17,410.75Z" style="fill:#a6a6a6"></path><path d="M261.92,396.54c5.15.06,10.29.2,15.43.36l15.42.54,15.41.71c5.13.27,10.27.55,15.4.91-5.14-.06-10.28-.2-15.43-.35l-15.41-.55-15.41-.71C272.19,397.18,267.05,396.9,261.92,396.54Z" style="fill:#a6a6a6"></path><path d="M261.74,401c2.58,0,5.15,0,7.72,0s5.14.16,7.71.23,5.14.24,7.7.4,5.14.33,7.7.59c-2.58,0-5.15,0-7.72,0s-5.14-.15-7.71-.23-5.14-.23-7.7-.4S264.3,401.24,261.74,401Z" style="fill:#a6a6a6"></path><path d="M261.32,411.33c5.14.06,10.28.2,15.42.35l15.42.55,15.41.71c5.14.26,10.28.54,15.41.9-5.15-.06-10.29-.2-15.43-.35l-15.42-.55-15.41-.71C271.59,412,266.45,411.69,261.32,411.33Z" style="fill:#a6a6a6"></path><path d="M261.14,415.77c2.57,0,5.14,0,7.72,0s5.14.15,7.71.23,5.13.23,7.7.39,5.13.34,7.7.59c-2.58.05-5.15,0-7.72,0s-5.14-.16-7.71-.23-5.14-.24-7.71-.4S263.7,416,261.14,415.77Z" style="fill:#a6a6a6"></path><polygon points="91.5 456.02 91.5 78.17 364.82 65.61 364.82 443.46 91.5 456.02" style="fill:#455a64"></polygon><polygon points="392.1 211.13 392.1 64.31 364.82 65.61 364.82 220.87 392.1 211.13" style="fill:#455a64"></polygon></g><g id="freepik--Document--inject-276"><polygon points="402.3 432.4 108.73 440.58 108.62 440.58 108.62 440.47 108.37 431.44 98.2 66.56 97.96 57.67 97.95 57.42 98.19 57.41 333.78 50.85 334.12 51 353.06 59.46 392.27 76.97 402.04 423.26 402.05 423.26 402.3 432.4" style="fill:#fff"></polygon><path d="M402.3,432.4l-293.68,8.29h-.11v-.12L97.7,57.43v-.25h.24L333.78,50.7h.06l58.48,26.14.08,0V77L402,423.26h0Zm0,0-.25-9.14h0L392.14,77l.08.12L333.72,51h.06L98,57.67l.24-.26,10.53,383.17-.11-.11Z" style="fill:#263238"></path><path d="M98,57.42v.25l.23-.26Zm10.67,383.05v.11h.11Zm-.14-9-10-364.89-.24-8.89H98l.24,8.89,10.17,364.88.25,9h.11ZM333.78,50.85,98.19,57.41v.25L334.12,51Zm68.27,372.41h0l.26,9.14ZM108.73,440.47v.11L402.3,432.4Z" style="fill:#263238"></path><polygon points="402.3 432.4 108.73 440.58 108.62 440.58 108.62 440.47 108.37 431.44 108.48 431.44 370.3 424.14 391.56 423.55 402.04 423.26 402.05 423.26 402.3 432.4" style="fill:#407BFF"></polygon><rect x="111.3" y="65.94" width="21.27" height="187.86" transform="translate(-4.4 3.46) rotate(-1.6)" style="fill:#407BFF;opacity:0.30000000000000004"></rect><rect x="367.68" y="236.11" width="21.27" height="187.86" transform="translate(-9.04 10.66) rotate(-1.6)" style="fill:#407BFF;opacity:0.30000000000000004"></rect><polygon points="334.12 51 353.06 59.46 129.95 65.68 108.69 66.27 98.44 66.55 98.2 66.56 97.96 57.67 97.95 57.42 98.19 57.41 333.78 50.85 334.12 51" style="fill:#407BFF"></polygon><rect x="244.95" y="84.38" width="49.15" height="3.33" transform="translate(-2.29 7.54) rotate(-1.6)" style="fill:#455a64"></rect><rect x="124.02" y="240.88" width="49.15" height="3.55" transform="translate(-6.7 4.23) rotate(-1.6)" style="fill:#455a64"></rect><rect x="127.82" y="377.31" width="49.15" height="3.33" transform="translate(-10.49 4.39) rotate(-1.6)" style="fill:#455a64"></rect><rect x="126.32" y="323.66" width="49.15" height="3.33" transform="translate(-9 4.33) rotate(-1.6)" style="fill:#455a64"></rect><path d="M245.24,97c7.61-.37,15.21-.65,22.82-.92l22.82-.72,22.82-.56c7.61-.15,15.22-.29,22.83-.35-7.6.37-15.21.65-22.81.92l-22.82.72-22.83.55C260.46,96.78,252.85,96.93,245.24,97Z" style="fill:#a6a6a6"></path><path d="M245.37,101.53c7.6-.37,15.21-.65,22.81-.92L291,99.89l22.83-.55c7.61-.16,15.22-.3,22.83-.36-7.6.37-15.21.65-22.81.92l-22.83.72-22.82.55C260.59,101.33,253,101.47,245.37,101.53Z" style="fill:#a6a6a6"></path><path d="M245.5,106.07c7.6-.37,15.2-.65,22.81-.92l22.82-.72,22.83-.55c7.61-.16,15.21-.3,22.83-.36-7.61.37-15.21.65-22.82.92l-22.82.72-22.82.55C260.72,105.87,253.11,106,245.5,106.07Z" style="fill:#a6a6a6"></path><path d="M245.62,110.61c7.61-.37,15.21-.65,22.82-.92l22.82-.72,22.82-.55c7.61-.16,15.22-.3,22.83-.36-7.6.37-15.21.65-22.81.92l-22.82.72-22.83.55C260.84,110.41,253.23,110.55,245.62,110.61Z" style="fill:#a6a6a6"></path><path d="M245.75,115.15c3.8-.26,7.6-.44,11.4-.6s7.61-.27,11.41-.41,7.61-.18,11.41-.23,7.62-.08,11.42,0c-3.8.26-7.6.43-11.4.6s-7.61.27-11.41.4-7.61.19-11.41.23S249.56,115.19,245.75,115.15Z" style="fill:#a6a6a6"></path><path d="M246,124.23c7.6-.36,15.21-.65,22.82-.92l22.82-.72,22.82-.55c7.61-.15,15.22-.29,22.83-.35-7.6.36-15.21.64-22.81.92l-22.82.72-22.83.55C261.22,124,253.61,124.17,246,124.23Z" style="fill:#a6a6a6"></path><path d="M246.13,128.77c7.6-.36,15.21-.65,22.81-.92l22.82-.72,22.83-.55c7.61-.15,15.22-.29,22.83-.35-7.6.36-15.21.64-22.82.92l-22.82.72-22.82.55C261.35,128.57,253.74,128.71,246.13,128.77Z" style="fill:#a6a6a6"></path><path d="M246.25,133.31c7.61-.36,15.21-.65,22.82-.92l22.82-.72,22.82-.55c7.61-.15,15.22-.29,22.84-.35-7.61.36-15.21.65-22.82.92l-22.82.72-22.83.55C261.48,133.11,253.87,133.25,246.25,133.31Z" style="fill:#a6a6a6"></path><path d="M246.38,137.85c7.6-.36,15.21-.65,22.82-.92l22.82-.72,22.82-.55c7.61-.15,15.22-.29,22.83-.35-7.6.36-15.21.65-22.81.92L292,137l-22.83.55C261.6,137.65,254,137.79,246.38,137.85Z" style="fill:#a6a6a6"></path><path d="M246.51,142.39c3.8-.26,7.6-.43,11.4-.6s7.61-.26,11.41-.4,7.61-.19,11.41-.23,7.61-.09,11.42,0c-3.8.26-7.6.44-11.4.6s-7.61.27-11.41.4-7.61.19-11.41.24S250.32,142.44,246.51,142.39Z" style="fill:#a6a6a6"></path><path d="M246.76,151.47c7.6-.36,15.21-.64,22.82-.91l22.82-.73,22.82-.55c7.61-.15,15.22-.29,22.83-.35-7.6.37-15.21.65-22.81.92l-22.82.72-22.83.55C262,151.27,254.37,151.41,246.76,151.47Z" style="fill:#a6a6a6"></path><path d="M246.89,156c7.6-.36,15.21-.64,22.81-.91l22.82-.73,22.83-.55c7.61-.15,15.22-.29,22.83-.35-7.61.37-15.21.65-22.82.92l-22.82.72-22.82.55C262.11,155.81,254.5,156,246.89,156Z" style="fill:#a6a6a6"></path><path d="M247,160.55c7.61-.36,15.21-.64,22.82-.91l22.82-.72,22.82-.56c7.61-.15,15.22-.29,22.83-.35-7.6.37-15.2.65-22.81.92l-22.82.72-22.83.55C262.23,160.35,254.62,160.49,247,160.55Z" style="fill:#a6a6a6"></path><path d="M247.14,165.1c3.8-.26,7.6-.44,11.4-.6s7.61-.27,11.41-.41,7.61-.18,11.42-.23,7.61-.08,11.42,0c-3.8.26-7.61.44-11.41.61s-7.6.26-11.41.4-7.61.18-11.41.23S251,165.14,247.14,165.1Z" style="fill:#a6a6a6"></path><path d="M247.39,174.18c7.61-.37,15.21-.65,22.82-.92l22.82-.72,22.82-.55c7.61-.16,15.22-.3,22.83-.36-7.6.37-15.2.65-22.81.92l-22.82.72-22.83.55C262.61,174,255,174.12,247.39,174.18Z" style="fill:#a6a6a6"></path><path d="M247.52,178.72c7.6-.37,15.21-.65,22.81-.92l22.82-.72,22.83-.55c7.61-.16,15.22-.3,22.83-.36-7.6.37-15.21.65-22.81.92l-22.83.72-22.82.55C262.74,178.52,255.13,178.66,247.52,178.72Z" style="fill:#a6a6a6"></path><path d="M247.65,183.26c7.6-.37,15.2-.65,22.81-.92l22.82-.72,22.83-.55c7.61-.16,15.22-.3,22.83-.35-7.61.36-15.21.64-22.82.91l-22.82.72-22.82.55C262.87,183.06,255.26,183.2,247.65,183.26Z" style="fill:#a6a6a6"></path><path d="M247.77,187.8c7.61-.36,15.21-.65,22.82-.92l22.82-.72,22.82-.55c7.61-.15,15.22-.3,22.83-.35-7.6.36-15.21.64-22.81.91l-22.82.72-22.83.55C263,187.6,255.38,187.74,247.77,187.8Z" style="fill:#a6a6a6"></path><path d="M247.9,192.34c3.8-.26,7.6-.44,11.4-.6s7.61-.27,11.41-.4,7.61-.19,11.41-.24,7.62-.08,11.42,0c-3.8.26-7.6.43-11.4.6s-7.61.27-11.41.4-7.61.19-11.41.23S251.71,192.39,247.9,192.34Z" style="fill:#a6a6a6"></path><rect x="139.18" y="257.76" width="98.97" height="4.59" transform="translate(-7.17 5.35) rotate(-1.6)" style="fill:#ebebeb"></rect><rect x="139.19" y="258.14" width="71.55" height="4.59" transform="translate(-7.18 4.97) rotate(-1.6)" style="fill:#407BFF"></rect><rect x="139.51" y="269.64" width="98.97" height="4.6" transform="translate(-7.5 5.37) rotate(-1.6)" style="fill:#ebebeb"></rect><rect x="139.51" y="269.76" width="90.76" height="4.6" transform="translate(-7.5 5.25) rotate(-1.6)" style="fill:#407BFF"></rect><rect x="139.84" y="281.53" width="98.97" height="4.6" transform="translate(-7.83 5.38) rotate(-1.6)" style="fill:#ebebeb"></rect><rect x="139.85" y="281.83" width="77.13" height="4.6" transform="translate(-7.84 5.08) rotate(-1.6)" style="fill:#407BFF"></rect><rect x="140.18" y="293.41" width="98.97" height="4.6" transform="translate(-8.16 5.4) rotate(-1.6)" style="fill:#ebebeb"></rect><rect x="140.18" y="293.6" width="85.05" height="4.6" transform="translate(-8.17 5.2) rotate(-1.6)" style="fill:#407BFF"></rect><rect x="140.51" y="305.29" width="98.97" height="4.6" transform="translate(-8.49 5.41) rotate(-1.6)" style="fill:#ebebeb"></rect><rect x="140.51" y="305.37" width="93.08" height="4.6" transform="translate(-8.49 5.33) rotate(-1.6)" style="fill:#407BFF"></rect><rect x="124.54" y="258.03" width="7.42" height="7.42" transform="translate(-7.24 3.67) rotate(-1.6)" style="fill:#407BFF"></rect><rect x="124.87" y="269.91" width="7.42" height="7.42" transform="translate(-7.57 3.69) rotate(-1.6)" style="fill:#455a64"></rect><rect x="125.21" y="281.8" width="7.42" height="7.42" transform="translate(-7.9 3.7) rotate(-1.6)" style="fill:#c7c7c7"></rect><rect x="125.54" y="293.68" width="7.42" height="7.42" transform="translate(-8.23 3.72) rotate(-1.6)" style="fill:#407BFF"></rect><rect x="125.87" y="305.56" width="7.42" height="7.42" transform="translate(-8.56 3.73) rotate(-1.6)" style="fill:#263238"></rect><rect x="264.31" y="237" width="63.06" height="3.33" transform="translate(-6.53 8.33) rotate(-1.6)" style="fill:#455a64"></rect><rect x="264.77" y="253.71" width="23.97" height="3.33" transform="translate(-7 7.8) rotate(-1.6)" style="fill:#c7c7c7"></rect><rect x="265.55" y="282" width="23.97" height="3.33" transform="translate(-7.79 7.84) rotate(-1.6)" style="fill:#c7c7c7"></rect><rect x="266.34" y="310.29" width="23.97" height="3.33" transform="translate(-8.58 7.87) rotate(-1.6)" style="fill:#c7c7c7"></rect><rect x="267.13" y="338.59" width="23.97" height="3.33" transform="translate(-9.37 7.91) rotate(-1.6)" style="fill:#c7c7c7"></rect><path d="M313.17,254.36c5.25-.3,10.5-.52,15.76-.72l15.76-.53,15.77-.35c5.26-.09,10.51-.17,15.77-.16-5.25.3-10.5.52-15.75.72l-15.77.53-15.77.35C323.68,254.29,318.43,254.36,313.17,254.36Z" style="fill:#a6a6a6"></path><path d="M313.29,258.9c5.26-.3,10.51-.52,15.76-.72l15.77-.53,15.77-.35c5.25-.09,10.51-.17,15.77-.16-5.25.3-10.5.52-15.76.72l-15.76.53-15.77.35C323.81,258.83,318.55,258.9,313.29,258.9Z" style="fill:#a6a6a6"></path><path d="M313.42,263.44c5.25-.3,10.51-.52,15.76-.72l15.76-.53,15.77-.35c5.26-.09,10.52-.17,15.78-.16-5.25.3-10.51.52-15.76.72l-15.77.53-15.77.35C323.94,263.37,318.68,263.44,313.42,263.44Z" style="fill:#a6a6a6"></path><path d="M313.55,268c2.21-.22,4.43-.35,6.65-.47s4.44-.18,6.66-.27,4.44-.1,6.66-.1,4.44,0,6.67.1c-2.22.21-4.44.34-6.65.46s-4.44.18-6.66.27-4.44.1-6.66.1S315.77,268.07,313.55,268Z" style="fill:#a6a6a6"></path><path d="M314,282.73c5.25-.3,10.5-.52,15.76-.72l15.76-.53,15.77-.35c5.26-.09,10.51-.16,15.77-.16-5.25.3-10.5.52-15.75.73l-15.77.52-15.77.35C324.47,282.66,319.22,282.74,314,282.73Z" style="fill:#a6a6a6"></path><path d="M314.08,287.27c5.26-.3,10.51-.51,15.76-.72l15.77-.53,15.77-.35c5.25-.09,10.51-.16,15.77-.16-5.25.3-10.5.52-15.76.73l-15.76.52-15.77.35C324.6,287.2,319.34,287.28,314.08,287.27Z" style="fill:#a6a6a6"></path><path d="M314.21,291.81c5.25-.3,10.51-.51,15.76-.72l15.76-.52,15.77-.36c5.26-.09,10.52-.16,15.78-.16-5.25.3-10.51.52-15.76.73l-15.77.52-15.76.35C324.73,291.74,319.47,291.82,314.21,291.81Z" style="fill:#a6a6a6"></path><path d="M314.34,296.35c2.21-.21,4.43-.34,6.65-.47s4.44-.17,6.66-.27,4.44-.09,6.66-.1,4.44,0,6.67.1c-2.22.22-4.44.35-6.65.47s-4.44.18-6.66.27-4.44.1-6.66.1S316.56,296.44,314.34,296.35Z" style="fill:#a6a6a6"></path><path d="M314.75,311.1c5.25-.29,10.5-.51,15.76-.72l15.76-.52L362,309.5c5.26-.08,10.51-.16,15.77-.15-5.25.3-10.5.51-15.75.72l-15.77.52-15.77.36C325.27,311,320,311.11,314.75,311.1Z" style="fill:#a6a6a6"></path><path d="M314.87,315.65c5.26-.3,10.51-.52,15.76-.73l15.77-.52,15.77-.36c5.25-.08,10.51-.16,15.77-.15-5.25.3-10.5.51-15.76.72l-15.76.52-15.77.36C325.39,315.58,320.13,315.65,314.87,315.65Z" style="fill:#a6a6a6"></path><path d="M315,320.19c5.25-.3,10.51-.52,15.76-.73l15.76-.52,15.77-.35c5.26-.09,10.52-.17,15.78-.16-5.25.3-10.51.52-15.76.72l-15.77.53-15.76.35C325.52,320.12,320.26,320.19,315,320.19Z" style="fill:#a6a6a6"></path><path d="M315.13,324.73c2.21-.22,4.43-.35,6.65-.47s4.44-.18,6.66-.27,4.44-.1,6.66-.1,4.44,0,6.67.09c-2.22.22-4.44.35-6.65.47s-4.44.18-6.66.27-4.44.1-6.66.1S317.35,324.82,315.13,324.73Z" style="fill:#a6a6a6"></path><path d="M315.54,339.48c5.25-.3,10.5-.52,15.76-.72l15.76-.53,15.77-.35c5.26-.09,10.52-.16,15.77-.16-5.25.3-10.5.52-15.75.72l-15.77.53-15.77.35C326.06,339.41,320.8,339.48,315.54,339.48Z" style="fill:#a6a6a6"></path><path d="M315.66,344c5.26-.3,10.51-.52,15.76-.72l15.77-.53,15.77-.35c5.25-.09,10.51-.16,15.77-.16-5.25.3-10.5.52-15.76.73l-15.76.52-15.77.35C326.18,344,320.92,344,315.66,344Z" style="fill:#a6a6a6"></path><path d="M315.79,348.56c5.25-.3,10.51-.52,15.76-.72l15.76-.53,15.77-.35c5.26-.09,10.52-.16,15.78-.16-5.25.3-10.51.52-15.76.73l-15.77.52-15.76.35C326.31,348.49,321.05,348.57,315.79,348.56Z" style="fill:#a6a6a6"></path><path d="M315.92,353.1c2.21-.21,4.43-.35,6.65-.47s4.44-.18,6.66-.27,4.44-.1,6.66-.1,4.44,0,6.67.1c-2.22.21-4.43.35-6.65.47s-4.44.18-6.66.27-4.44.1-6.66.1S318.14,353.19,315.92,353.1Z" style="fill:#a6a6a6"></path><polygon points="300.5 253.58 301.09 267.9 301.6 282.23 302.49 310.88 302.45 312.64 302.74 326.97 302.95 341.31 302.36 326.99 301.85 312.66 301.71 310.9 301 282.24 300.71 267.91 300.5 253.58" style="fill:#407BFF"></polygon><path d="M302,254.67a1.48,1.48,0,1,1-1.52-1.44A1.48,1.48,0,0,1,302,254.67Z" style="fill:#407BFF"></path><path d="M302.8,283a1.48,1.48,0,1,1-2.95.08,1.48,1.48,0,1,1,2.95-.08Z" style="fill:#407BFF"></path><path d="M303.59,311.42a1.48,1.48,0,1,1-1.52-1.44A1.47,1.47,0,0,1,303.59,311.42Z" style="fill:#407BFF"></path><path d="M304.38,339.79a1.48,1.48,0,1,1-2.95.08,1.49,1.49,0,0,1,1.44-1.52A1.47,1.47,0,0,1,304.38,339.79Z" style="fill:#407BFF"></path><path d="M148.81,346.81a11,11,0,1,1-1.6-5.4A10.95,10.95,0,0,1,148.81,346.81Z" style="fill:#455a64"></path><path d="M147.21,341.41l-9.34,5.7-.31-10.94A10.93,10.93,0,0,1,147.21,341.41Z" style="fill:#407BFF"></path><path d="M145.43,346.9a7.57,7.57,0,1,1-7.77-7.35A7.57,7.57,0,0,1,145.43,346.9Z" style="fill:#fff"></path><rect x="134.68" y="345.43" width="6.3" height="0.89" transform="translate(-9.58 3.97) rotate(-1.6)" style="fill:#263238"></rect><rect x="133.19" y="347.9" width="9.42" height="0.89" transform="translate(-9.65 3.98) rotate(-1.6)" style="fill:#a6a6a6"></rect><path d="M179.42,346a10.67,10.67,0,0,1-.07,1.61,11,11,0,1,1-1.53-7A10.77,10.77,0,0,1,179.42,346Z" style="fill:#455a64"></path><path d="M179.42,346a10.67,10.67,0,0,1-.07,1.61l-10.87-1.3-.3-10.94a10.93,10.93,0,0,1,9.64,5.24A10.77,10.77,0,0,1,179.42,346Z" style="fill:#407BFF"></path><path d="M176.05,346.05a7.57,7.57,0,1,1-7.78-7.36A7.58,7.58,0,0,1,176.05,346.05Z" style="fill:#fff"></path><rect x="165.3" y="344.58" width="6.3" height="0.89" transform="translate(-9.55 4.83) rotate(-1.6)" style="fill:#263238"></rect><rect x="163.8" y="347.05" width="9.42" height="0.89" transform="translate(-9.61 4.83) rotate(-1.6)" style="fill:#a6a6a6"></rect><path d="M210.24,345.1a10.93,10.93,0,0,1-6.73,10.4,10.8,10.8,0,0,1-3.9.84,11,11,0,1,1,10.63-11.24Z" style="fill:#455a64"></path><path d="M210.24,345.1a10.93,10.93,0,0,1-6.73,10.4l-4.21-10.1-.3-10.94a10.93,10.93,0,0,1,11.24,10.64Z" style="fill:#407BFF"></path><path d="M206.87,345.19a7.57,7.57,0,1,1-7.78-7.36A7.57,7.57,0,0,1,206.87,345.19Z" style="fill:#fff"></path><rect x="196.12" y="343.72" width="6.3" height="0.89" transform="translate(-9.51 5.68) rotate(-1.6)" style="fill:#263238"></rect><rect x="194.63" y="346.19" width="9.42" height="0.89" transform="translate(-9.57 5.68) rotate(-1.6)" style="fill:#a6a6a6"></rect><path d="M240.9,344.24a10.94,10.94,0,1,1-1.6-5.4A10.84,10.84,0,0,1,240.9,344.24Z" style="fill:#455a64"></path><path d="M240.9,344.24a10.94,10.94,0,0,1-17.81,8.82l6.87-8.51-.3-10.94a10.92,10.92,0,0,1,9.64,5.23A10.8,10.8,0,0,1,240.9,344.24Z" style="fill:#407BFF"></path><path d="M237.53,344.34a7.57,7.57,0,1,1-7.78-7.36A7.57,7.57,0,0,1,237.53,344.34Z" style="fill:#fff"></path><rect x="226.77" y="342.87" width="6.3" height="0.89" transform="translate(-9.47 6.54) rotate(-1.6)" style="fill:#263238"></rect><rect x="225.28" y="345.34" width="9.42" height="0.89" transform="translate(-9.54 6.54) rotate(-1.6)" style="fill:#a6a6a6"></rect><polygon points="247.83 241.36 248.42 256.32 248.94 271.28 249.86 301.2 250.61 331.13 250.92 346.09 251.16 361.06 250.56 346.1 250.04 331.14 249.13 301.22 248.38 271.29 248.06 256.33 247.83 241.36" style="fill:#455a64"></polygon><g id="freepik--iaq7yo--inject-276"><path d="M135,396.25a1,1,0,0,1-.47.25l-.23.05h-.41l-.42-.06a4,4,0,0,1-1.52-.62,9.71,9.71,0,0,1-2.76-2.62,4.24,4.24,0,0,1-.7-1.47c0-.14-.05-.28-.08-.42V391a2.45,2.45,0,0,1,.08-.39,3.52,3.52,0,0,1,.16-.35l.07.06,1.75,1.65a.11.11,0,0,1,0,.11.83.83,0,0,0,.2.82,17.09,17.09,0,0,0,1.58,1.49.82.82,0,0,0,.83.16s.07,0,.1,0l1.78,1.68Z" style="fill:#407BFF"></path><path d="M136,395.23l-.58.61,0,0-1.79-1.69.13-.13.49-.52a.28.28,0,0,1,.45,0l1.33,1.26A.28.28,0,0,1,136,395.23Z" style="fill:#407BFF"></path><path d="M131.46,390.9l-.65.65L129,389.89l0-.05.59-.62a.28.28,0,0,1,.43,0l1.35,1.28A.28.28,0,0,1,131.46,390.9Z" style="fill:#407BFF"></path></g><g id="freepik--tefye6--inject-276"><path d="M136.05,405.05l-.18.18c-.94,1-1.89,1.91-2.83,2.86a.44.44,0,0,1-.67,0l-3.06-2.74-.12-.11a.39.39,0,0,1,.25-.08l2-.06,4.22-.14A.7.7,0,0,1,136.05,405.05Z" style="fill:#407BFF"></path><path d="M136.18,410.21l-.25.05-2.41.08-3.88.12a.62.62,0,0,1-.32-.07l2.35-2.36.47.42.21.18a.52.52,0,0,0,.74,0c.21-.21.41-.42.63-.63l2.46,2.2Z" style="fill:#407BFF"></path><path d="M131.37,407.76c-.77.78-1.54,1.54-2.29,2.32a.27.27,0,0,1,0-.11c-.05-1.42-.09-2.83-.14-4.25a.59.59,0,0,1,0-.14C129.74,406.31,130.55,407,131.37,407.76Z" style="fill:#407BFF"></path><path d="M136.43,409.86l-.9-.82-1.47-1.3-.06-.05c.77-.79,1.54-1.55,2.29-2.33C136.32,405.44,136.46,409.74,136.43,409.86Z" style="fill:#407BFF"></path></g><g id="freepik--aizgp2--inject-276"><path d="M251.83,387.57a5.5,5.5,0,0,0-.32,1.7h0l-1.45,0h0v-.16c0-.2,0-.39.09-.59a4.39,4.39,0,0,1,.3-.93l0,0,1.35,0Z" style="fill:#407BFF"></path><path d="M251.89,391.34h0l-1.35,0s0,0,0,0a4.23,4.23,0,0,1-.37-1,4.71,4.71,0,0,1-.09-.52v-.06h0l1.45,0s0,0,0,0,0,.24,0,.36a5,5,0,0,0,.11.56c.06.23.13.45.21.67Z" style="fill:#407BFF"></path><path d="M257.67,391.61v0a4.6,4.6,0,0,1-.38.52,4,4,0,0,1-.55.54,3.92,3.92,0,0,1-.64.42,4,4,0,0,1-.68.28,3.39,3.39,0,0,1-.57.14h-.08l0,0,0,0a4.49,4.49,0,0,0,1.05-1.08,5.52,5.52,0,0,0,.42-.75l0,0,1.37,0Z" style="fill:#407BFF"></path><path d="M256.23,389.14l-1.93.05-.05-1.68h0l1.48,0,0,0a4.35,4.35,0,0,1,.33,1,4.89,4.89,0,0,1,.09.53C256.22,389,256.22,389.09,256.23,389.14Z" style="fill:#407BFF"></path><path d="M256.23,389.58v.12a2.4,2.4,0,0,1,0,.28c0,.13,0,.26-.05.39a4.61,4.61,0,0,1-.22.83s0,0,0,0l-1.52,0h0l0-1.63Z" style="fill:#407BFF"></path><path d="M253.82,387.53l.05,1.68-1.88.06v-.13a2.4,2.4,0,0,1,0-.28c0-.15,0-.29.06-.43a4.78,4.78,0,0,1,.25-.84s0,0,0,0l1.44,0Z" style="fill:#407BFF"></path><path d="M253.88,389.67c0,.53,0,1.06.05,1.59v0h0l-1.48,0s0,0,0,0a4.14,4.14,0,0,1-.28-.84c0-.15-.06-.3-.08-.45s0-.2,0-.3h0l1.84-.05S253.88,389.65,253.88,389.67Z" style="fill:#407BFF"></path><path d="M258.27,389.09l-1.58,0a5.44,5.44,0,0,0-.41-1.68h0l1.45,0s0,0,0,0a4,4,0,0,1,.39,1,4,4,0,0,1,.1.59Z" style="fill:#407BFF"></path><path d="M258.28,389.51v.12c0,.14,0,.28,0,.42a4.54,4.54,0,0,1-.26,1l-.07.14s0,0,0,0l-1.45,0h0a.88.88,0,0,0,.05-.15,5.06,5.06,0,0,0,.18-.77c0-.19,0-.39.05-.58v-.13s0,0,0,0h0Z" style="fill:#407BFF"></path><path d="M257.5,387h0l-1.38,0s0,0,0,0a5,5,0,0,0-.71-1,4,4,0,0,0-.54-.47l-.3-.21h0v0a4.14,4.14,0,0,1,3,1.7Z" style="fill:#407BFF"></path><path d="M253.72,393.55h0a3.54,3.54,0,0,1-.45-.08,3.85,3.85,0,0,1-.81-.27,4.11,4.11,0,0,1-.83-.51,5.79,5.79,0,0,1-.51-.48,4.63,4.63,0,0,1-.32-.42h0l1.29,0,0,0a4.69,4.69,0,0,0,.49.76,5.39,5.39,0,0,0,.57.6,4.36,4.36,0,0,0,.55.41Z" style="fill:#407BFF"></path><path d="M253.47,385.36l-.19.15a4.78,4.78,0,0,0-.6.59,4.42,4.42,0,0,0-.63,1l0,.06h-.09l-1.26,0a4.08,4.08,0,0,1,2.79-1.84h0Z" style="fill:#407BFF"></path><path d="M255.72,391.67a4.12,4.12,0,0,1-.61.87,3.61,3.61,0,0,1-.71.64l0-1.48Z" style="fill:#407BFF"></path><path d="M253.94,391.72l0,1.44a4.05,4.05,0,0,1-1.35-1.41Z" style="fill:#407BFF"></path><path d="M255.55,387l-1.31,0,0-1.38a4,4,0,0,1,.75.59A4.29,4.29,0,0,1,255.55,387Z" style="fill:#407BFF"></path><path d="M253.77,385.74l0,1.35-1.26,0A4.08,4.08,0,0,1,253.77,385.74Z" style="fill:#407BFF"></path></g><g id="freepik--ugja8c--inject-276"><path d="M257.68,401.69a3.54,3.54,0,0,0-4.14-1.76,3.3,3.3,0,0,0-2.46,3.57,4.79,4.79,0,0,0,.51,1.52,11.83,11.83,0,0,0,2.06,2.81c.33.35.67.68,1,1l.1-.1c.42-.47.85-.93,1.24-1.41a10.05,10.05,0,0,0,1.75-3A3.26,3.26,0,0,0,257.68,401.69Zm-3.21,3.46a2.14,2.14,0,1,1,.11-4.27,2.14,2.14,0,1,1-.11,4.27Z" style="fill:#407BFF"></path></g><path d="M143.62,390c5.25-.3,10.5-.52,15.76-.72l15.76-.53,15.77-.35c5.26-.09,10.51-.16,15.77-.16-5.25.3-10.5.52-15.76.73l-15.76.52-15.77.35C154.13,389.93,148.88,390,143.62,390Z" style="fill:#a6a6a6"></path><path d="M143.74,394.54c2.63-.22,5.25-.37,7.88-.5s5.25-.2,7.88-.31,5.26-.12,7.89-.13,5.25,0,7.89.06c-2.63.23-5.25.37-7.88.5s-5.25.21-7.88.31-5.26.12-7.89.13S146.37,394.62,143.74,394.54Z" style="fill:#a6a6a6"></path><path d="M144,405.12c5.25-.3,10.5-.51,15.76-.72l15.76-.52,15.77-.36c5.26-.09,10.51-.16,15.77-.15-5.25.3-10.5.51-15.75.72l-15.77.52-15.77.36C154.55,405.05,149.3,405.13,144,405.12Z" style="fill:#a6a6a6"></path><path d="M144.16,409.66c2.63-.22,5.25-.37,7.88-.5s5.25-.2,7.88-.3,5.26-.12,7.89-.14,5.26,0,7.89.06c-2.63.23-5.25.38-7.88.51s-5.25.2-7.88.3-5.26.12-7.88.14S146.8,409.74,144.16,409.66Z" style="fill:#a6a6a6"></path><path d="M269.39,386.5c5.25-.3,10.51-.52,15.76-.72l15.77-.53,15.77-.35c5.25-.09,10.51-.17,15.77-.16-5.25.3-10.5.52-15.76.72l-15.76.53-15.77.35C279.91,386.43,274.65,386.5,269.39,386.5Z" style="fill:#a6a6a6"></path><path d="M269.52,391c2.62-.23,5.25-.37,7.88-.5s5.25-.21,7.88-.31,5.25-.12,7.88-.14,5.26,0,7.89.07c-2.62.22-5.25.37-7.87.5s-5.26.2-7.88.31-5.26.12-7.89.13S272.15,391.12,269.52,391Z" style="fill:#a6a6a6"></path><path d="M269.81,401.62c5.26-.3,10.51-.52,15.76-.72l15.77-.53,15.77-.35c5.25-.09,10.51-.16,15.77-.16-5.25.3-10.5.52-15.76.72l-15.76.53-15.77.35C280.33,401.55,275.07,401.62,269.81,401.62Z" style="fill:#a6a6a6"></path><path d="M269.94,406.16c2.62-.23,5.25-.37,7.88-.5s5.25-.2,7.88-.31,5.25-.12,7.88-.13,5.26,0,7.89.06c-2.62.23-5.24.37-7.87.5s-5.25.21-7.88.31-5.26.12-7.89.13S272.57,406.24,269.94,406.16Z" style="fill:#a6a6a6"></path><polygon points="333.78 50.86 392.29 76.98 363.04 84.64 333.78 50.86" style="fill:#dbdbdb"></polygon></g><g id="freepik--Character--inject-276"><rect x="122.19" y="87.55" width="111.45" height="139.85" transform="translate(-4.32 5.01) rotate(-1.6)" style="fill:#dbdbdb"></rect><path d="M217.78,226.32l-12.85.35-29,.81-2.22-7.23c-.24-.76-.46-1.5-.69-2.23q0-.09-.06-.21c-.12-.37-.23-.74-.34-1.11,0-.16-.09-.32-.14-.48-.35-1.13-.68-2.23-1-3.26-.11-.35-.21-.69-.32-1a.32.32,0,0,1,0-.09L170.6,210c-.55-1.81-1-3.4-1.45-4.75-.65-2.11-1.1-3.62-1.35-4.38a1.94,1.94,0,0,1-.05-.2c0-.07,0-.12-.05-.17s0-.17-.07-.19h.13l30.29-1.45h0l8.86-.41h0l1.32-.06s.59,1.72,1.61,4.73C211.56,208,214.41,216.3,217.78,226.32Z" style="fill:#263238"></path><path d="M182.8,227.29l-.92,0c-1.66-5.8-3.3-11.61-4.86-17.43l-.12-.44c0-.07.1-.1.12,0a.78.78,0,0,1,0,.14Q180,218.39,182.8,227.29Z" style="fill:#37474f"></path><path d="M207,198.4v0l-.92,6-3.36,22.27-26.73.75c-.77-2.54-1.51-4.95-2.2-7.23-.24-.76-.46-1.5-.69-2.23q0-.09-.06-.21c-.12-.37-.23-.74-.34-1.11l-.15-.47c-.35-1.14-.68-2.24-1-3.27-.11-.35-.21-.69-.32-1a.32.32,0,0,1,0-.09L170.6,210c-.57-1.81-1-3.4-1.47-4.75-.64-2.11-1.1-3.61-1.33-4.38a1.94,1.94,0,0,1-.05-.2c0-.06-.05-.11-.06-.15l-.06-.21h.13l30.29-1.45h0Z" style="fill:#37474f"></path><path d="M207,198.38h0v0c0,.33,0,2.49-.23,5.79l0,.6v0a188,188,0,0,1-2.47,21.85l-51.6,1.44-6.53.17c.1-1.63.26-3.3.47-5,.27-2.08.6-4.16,1-6.15.06-.33.13-.66.18-1,.48-2.45,1-4.76,1.51-6.82q.15-.54.27-1c.42-1.61.81-3,1.13-4.16s.56-1.94.73-2.47.22-.68.22-.68l.74,0h0l15.3-.74h.13l30.29-1.46h0Z" style="fill:#263238"></path><path d="M202,204c-.08,1.24-.17,2.48-.28,3.72-.18,1.79-.26,3.58-.43,5.36-.33,3.54-.66,7.09-1.09,10.62a7.94,7.94,0,0,0-.14,3.15l-1.23,0a6.5,6.5,0,0,1,0-1.92c.12-1.07.23-2.16.34-3.24.21-2,.52-4,.77-5.94.52-4,1.06-8.1,1.74-12.13.06-.44.14-.89.22-1.33,0-.11.19-.09.2,0C202.05,202.85,202,203.41,202,204Z" style="fill:#37474f"></path><path d="M207.07,203.2c0,.3,0,.59,0,.88a110.63,110.63,0,0,1-.31,11.08q-.24,2.86-.58,5.71a20.23,20.23,0,0,1-1,5.34,4.81,4.81,0,0,1-.22.46l-1.42,0a5,5,0,0,0,.74-1.51,30,30,0,0,0,.81-4.9c.23-1.8.43-3.59.59-5.39.32-3.36.66-6.71,1-10.07v0c0-.2.05-.41.07-.61s.08-.67.12-1C206.9,203.08,207.08,203.1,207.07,203.2Z" style="fill:#37474f"></path><path d="M161.31,219.36a26.13,26.13,0,0,0,6.43-1.18c1-.29,1.91-.65,2.86-1a7.53,7.53,0,0,0,2.54-1.44c1.42-1.33,2-3.37,2.56-5.17a48.78,48.78,0,0,0,1.41-6.2c0-.11.17-.08.17,0a23.84,23.84,0,0,1-.55,7c-.43,1.94-1,4.12-2.53,5.54a11,11,0,0,1-5.83,2.45,27.29,27.29,0,0,1-7.05.23A.12.12,0,0,1,161.31,219.36Z" style="fill:#37474f"></path><path d="M157.64,204.18s0,.16-.08.39c-.19.9-.68,3.21-1.25,6.12l-.09.42c-.45,2.34-.95,5-1.38,7.63a80.5,80.5,0,0,0-1.16,9.36l-1.05,0a55.09,55.09,0,0,1,.57-5.67c.13-.89.27-1.82.42-2.76.06-.35.11-.7.17-1.06.44-2.62.94-5.31,1.39-7.66l.11-.55c.54-2.72,1-4.93,1.2-5.92.07-.29.1-.48.12-.55a.51.51,0,0,1,.42-.39.27.27,0,0,1,.2,0,.58.58,0,0,1,.18.08A.52.52,0,0,1,157.64,204.18Z" style="fill:#37474f"></path><path d="M198.7,141.59c.26,3.14.53,6.29.65,9.44.07,1.92,0,3.81-.11,5.71a12.61,12.61,0,0,1-2.43,1.77c0-.48.07-1,.1-1.43a61.52,61.52,0,0,0,0-6.79c0-.08-.12-.06-.12,0,0,2.34-.18,4.69-.39,7,0,.51-.11,1-.18,1.52a19.48,19.48,0,0,1-2.61,1.12c.07-.55.12-1.11.18-1.65.13-1.28.24-2.57.3-3.86a64.78,64.78,0,0,0-.09-7.63c0-.1-.16-.08-.16,0,0,2.61-.08,5.23-.25,7.84-.09,1.23-.19,2.47-.32,3.7-.07.59-.16,1.18-.24,1.77a32.77,32.77,0,0,1-5.06,1.17c-4.93.76-10.13-.08-14.92-1.46a28.31,28.31,0,0,1-11.24-6.09,22.6,22.6,0,0,0,3.24-6c0-.07-.07-.11-.1-.05q-1.1,2-2.34,3.9c-.4.59-.82,1.17-1.24,1.74l-.14-.14c-.31-.29-.63-.61-1-.95a36.93,36.93,0,0,0,2.21-3.73,33.14,33.14,0,0,0,2.43-5.6.1.1,0,0,0-.19-.08c-.93,1.76-1.8,3.55-2.74,5.3-.67,1.24-1.43,2.43-2.13,3.64a5,5,0,0,1-1.45-3.75,8.81,8.81,0,0,1,1.39-3.22c.63-1.14,1.15-2.33,1.72-3.5,2.38-4.89-1.35-43.93,12.87-45.75,0-.06,11.8-6.48,18.67-1.75,13.46,9.28,9.57,54.67,9.2,57.2a9.43,9.43,0,0,1-2.36,5,47.65,47.65,0,0,0,0-4.78,90.46,90.46,0,0,0-1.07-9.7A.08.08,0,0,0,198.7,141.59Z" style="fill:#263238"></path><path d="M171,97a15.23,15.23,0,0,0-3.9,5.15,29.93,29.93,0,0,0-2.17,6.1A72.43,72.43,0,0,0,163,121.08c-.28,4.34-.34,8.71-.73,13.1a35.25,35.25,0,0,1-1.25,6.49,13.88,13.88,0,0,1-3.25,5.69,14.93,14.93,0,0,0,2.74-5.84,34.5,34.5,0,0,0,.92-6.42c.31-4.33.26-8.71.58-13.09a63.63,63.63,0,0,1,2.1-13,29.41,29.41,0,0,1,2.49-6.13A14.42,14.42,0,0,1,171,97Z" style="fill:#263238"></path><path d="M193.07,93.83a19.34,19.34,0,0,1,5.19,5.47,30.53,30.53,0,0,1,3.12,6.92,69.34,69.34,0,0,1,2.73,14.9,149.58,149.58,0,0,1,.37,15.12c-.12,2.52-.33,5-.61,7.53-.15,1.25-.32,2.5-.52,3.75a20.22,20.22,0,0,1-.84,3.68,23.36,23.36,0,0,0,.56-3.72c.13-1.25.22-2.5.29-3.75.18-2.5.3-5,.32-7.51,0-5-.12-10-.58-15a74.15,74.15,0,0,0-2.46-14.75C199.32,101.68,197,97,193.07,93.83Z" style="fill:#263238"></path><path d="M234.45,185.52l.31,11.4.08,2.84a11.57,11.57,0,0,1-8.84,7.5l-.42,0a4.78,4.78,0,0,1-1.76-.23h0c-2.15-.64-4.64-2.59-7.3-5.42-.21-.22-.42-.44-.62-.67v0l-.08-.08,0,0a77.4,77.4,0,0,1-4.91-6.1q-1.44-2-2.91-4.13c-2.45-3.6-4.91-7.54-7.29-11.58l-.34-.56c-1.84-3.13-3.63-6.3-5.32-9.4-.06-.1-.11-.2-.16-.3-.55-1-1.09-2-1.62-3q-1.36-2.53-2.61-4.95c-2.42-4.64-4.48-8.81-6-12-.67-1.4-1.21-2.65-1.63-3.74-3.08-8-.1-8.53,3.46-6.93a0,0,0,0,1,0,0q.28.12.57.27l.18.08,0,0a19,19,0,0,1,1.87,1.1,22.57,22.57,0,0,1,1.85,1.34l2.89,2.33.19.15.09.08c.53.44,1.06.86,1.58,1.3l.45.36h0l2.73,2.28.3.26.53.44.87.73.2.17.1.09,1.48,1.25.28.25.05,0c2.11,1.82,4.19,3.63,6.2,5.45.59.51,1.17,1,1.74,1.57l.74.68c.57.51,1.12,1,1.67,1.54,3.55,3.32,6.83,6.55,9.72,9.64l1,1c1.5,1.64,2.88,3.22,4.12,4.75.13.15.25.29.35.43A42.84,42.84,0,0,1,234.45,185.52Z" style="fill:#407BFF"></path><path d="M152.92,199.8l57.38-1.66-6-19.15s5.48-5,2.36-14.68c-1.82-5.63-9.84-16.21-14.62-21.42-11.63-12.71-20.91-6.27-23.8-2.73C157.21,153.71,152.92,199.8,152.92,199.8Z" style="fill:#ebebeb"></path><path d="M173.06,136.21s7.16,16.56,9.82,20.3,10.3,10.28,10.3,10.28.37-10-.75-15.63-6.33-13.52-6.33-13.52a12,12,0,0,1,3.55,2.52c5.75,5.33,16,18.23,17.84,25.69,2.17,9-2.47,13-2.47,13l8.41,22.95-10.08,3.66L198,199.71l-4.89,6.86-47.7-2.69,7.84-16.65s6.37-34.69,10.92-41.92C169.43,137,173.06,136.21,173.06,136.21Z" style="fill:#407BFF"></path><path d="M186.92,178.67a55.32,55.32,0,0,1,8.33-.53c1.38,0,2.75.12,4.13.25.69.06,1.37.1,2.06.14a8.68,8.68,0,0,0,2.16-.09.05.05,0,0,1,0,.1,15.12,15.12,0,0,1-2,.42,14.57,14.57,0,0,1-2,.08c-1.4,0-2.81-.1-4.21-.14-2.83-.07-5.66-.13-8.49,0C186.81,178.91,186.79,178.69,186.92,178.67Z" style="fill:#263238"></path><path d="M180.8,182.61a58.22,58.22,0,0,1,6.63-1.87c1.12-.25,2.25-.43,3.39-.58l1.63-.19c.6-.06,1.21,0,1.81-.11.06,0,.08.09,0,.1-.56.08-1.11.26-1.67.37l-1.68.35c-1.13.23-2.24.47-3.37.69-2.25.44-4.49.9-6.72,1.42C180.72,182.82,180.69,182.64,180.8,182.61Z" style="fill:#263238"></path><path d="M174.84,137.22c.21,1.11,4,8.61,10,7.95,3.54-.39,2-7.41,2-7.41l2.61-9.82-12.13-8.39S174.75,136.75,174.84,137.22Z" style="fill: rgb(247, 169, 160);"></path><path d="M176.42,126A19.42,19.42,0,0,0,187,137.22l2.47-9.28-12.13-8.39Z" style="fill:#263238"></path><path d="M201.12,112.82c2.06,16.53-7.6,19.63-11.17,20.07-3.23.4-14.3,1.35-18.06-14.87s3.27-22.4,10.62-23.71S199.05,96.3,201.12,112.82Z" style="fill: rgb(247, 169, 160);"></path><path d="M196.25,110a8.93,8.93,0,0,1-1.15-.1,1.86,1.86,0,0,1-1.15-.32.59.59,0,0,1-.08-.72,1.46,1.46,0,0,1,1.39-.51,2.14,2.14,0,0,1,1.44.59A.63.63,0,0,1,196.25,110Z" style="fill:#263238"></path><path d="M185.06,111.25c.38-.08.72-.22,1.1-.34a1.91,1.91,0,0,0,1.05-.57.6.6,0,0,0-.07-.72,1.46,1.46,0,0,0-1.48-.2,2.15,2.15,0,0,0-1.27.89A.63.63,0,0,0,185.06,111.25Z" style="fill:#263238"></path><path d="M187.84,115.21s-.08.06-.07.11c.17,1.12.18,2.43-.79,2.93,0,0,0,.07,0,.06C188.22,118,188.19,116.24,187.84,115.21Z" style="fill:#263238"></path><path d="M186.7,114.15c-1.83.09-1.53,3.74.16,3.66S188.23,114.08,186.7,114.15Z" style="fill:#263238"></path><path d="M186,114.41c-.3.23-.58.62-1,.69s-.81-.27-1.13-.62c0,0-.06,0-.06,0,0,.7.38,1.4,1.14,1.44s1.13-.62,1.24-1.34C186.25,114.49,186.12,114.31,186,114.41Z" style="fill:#263238"></path><path d="M194.61,114.27s.09,0,.1.1c0,1.13.23,2.43,1.28,2.75,0,0,0,.07,0,.07C194.72,117.07,194.45,115.35,194.61,114.27Z" style="fill:#263238"></path><path d="M195.57,113c1.81-.23,2.14,3.41.46,3.63S194,113.23,195.57,113Z" style="fill:#263238"></path><path d="M196.35,113.21c.3.17.62.49,1,.48s.66-.43.88-.83c0,0,.05,0,.06,0,.08.69-.09,1.44-.74,1.63s-1.11-.38-1.33-1.06C196.14,113.35,196.22,113.14,196.35,113.21Z" style="fill:#263238"></path><path d="M189,124.59c.27.27.53.65.94.69a2.86,2.86,0,0,0,1.22-.24s.08,0,.05.06a1.53,1.53,0,0,1-1.46.57,1.22,1.22,0,0,1-.86-1A.06.06,0,0,1,189,124.59Z" style="fill:#263238"></path><path d="M193.68,120.37s.28,1.69.3,2.49c0,.07-.19.11-.46.13h0a3.81,3.81,0,0,1-3.72-1.33c-.06-.08,0-.16.12-.11a5.76,5.76,0,0,0,3.49.9c0-.22-.57-2.87-.44-2.88a6.81,6.81,0,0,1,1.82.36c-.47-3.53-1.51-7-1.93-10.48a.11.11,0,0,1,.21-.06,58.37,58.37,0,0,1,2.56,11.2C195.66,121.06,194,120.5,193.68,120.37Z" style="fill:#263238"></path><path d="M193,122.58a4.12,4.12,0,0,1-1.55,1.38,1.81,1.81,0,0,1-1.11.14c-.82-.16-.89-.89-.79-1.54a4.51,4.51,0,0,1,.3-1A5.3,5.3,0,0,0,193,122.58Z" style="fill:#263238"></path><path d="M191.42,124a1.81,1.81,0,0,1-1.11.14c-.82-.16-.89-.89-.79-1.54A1.9,1.9,0,0,1,191.42,124Z" style="fill:#ff9abb"></path><path d="M171.79,118.32c1.83-.2,6.38-5.5,6.08-14.4,0,0-.29,8-.83,9.21s2.54-3,2.4-10.17a29,29,0,0,0,7.55,3.45c3.43.78,5.5.64,5.73.39s-4.83-1.58-6.26-3.07c0,0,9.22,3.74,13.39,3.85.48,0,.56-9.9-6.07-13.77s-16.57,1.17-19.17,4c0,0-1.47.14-4.72,5.07S169.81,118.54,171.79,118.32Z" style="fill:#263238"></path><path d="M179.58,102c-.05-.2-.35-.17-.32,0a23.3,23.3,0,0,1-.83,9.6s.06.07.08,0C179.69,108.49,180.36,105.41,179.58,102Z" style="fill:#263238"></path><path d="M191.46,107.4c-4.85-.33-9.08-1.65-12.5-5.25-.07-.07-.2,0-.13.1,2.86,4,7.92,5.42,12.63,5.33C191.56,107.58,191.56,107.4,191.46,107.4Z" style="fill:#263238"></path><path d="M175.55,118.62s-3.83-5.05-6.14-3.67.71,8.81,3.51,9.73a2.82,2.82,0,0,0,3.72-1.65Z" style="fill: rgb(247, 169, 160);"></path><path d="M170.33,117.06c-.05,0-.05.06,0,.07,2,.71,3.06,2.47,3.85,4.31a1.55,1.55,0,0,0-2.34-.33s0,.11.06.1a1.72,1.72,0,0,1,1.92.53,8.26,8.26,0,0,1,1,1.51c.1.17.41.06.34-.14a.08.08,0,0,1,0,0C175.05,120.59,173,117.21,170.33,117.06Z" style="fill:#263238"></path><path d="M172.4,147c-.23.44-.48.88-.75,1.3a6,6,0,0,1-.33.54c-1,1.62-3.18,4.45-5.74,7.74-2.24,2.9-4.81,6.16-7.24,9.28l-.81,1-2.67,3.43c-3.28,4.26-5.75,7.63-5.93,8.44-.07.33.22.87.69,1.49,1.29,1.74,4,4.18,4,4.87v0c0,.17,0,.42-.08.71,0,.07,0,.15-.05.23s0,.18,0,.28c-.08.33-.16.71-.26,1.12-.7,2.81-2.15,7.45-3.85,12.15l-.33.91c-.43,1.16-.88,2.32-1.33,3.45s-.8,2-1.2,2.92c-.15.34-.29.67-.44,1a37.86,37.86,0,0,1-3.16,6,8.87,8.87,0,0,1-.65.8c-.64.7-1.21,1-1.66.66a25.67,25.67,0,0,1-4.49-5.23c-.2-.27-.39-.55-.58-.83-.42-.59-.85-1.21-1.27-1.86l-.2-.31v0l-.76-1.16c-4.09-6.46-8.54-15-10.32-21.78l-.24-8.55c3.32-7.92,23.48-23.05,36.67-31.69.16-.1.32-.2.47-.31l.91-.59a70,70,0,0,1,9.35-5.38,8.38,8.38,0,0,1,.87-.27,4.6,4.6,0,0,1,.75-.16,2.63,2.63,0,0,1,1.75.32h0l.25.2v0a2.76,2.76,0,0,1,.71,1.63C174.72,141.32,173.86,144.26,172.4,147Z" style="fill:#407BFF"></path><path d="M165.62,158c-1.72,2.35-3.52,4.63-5.34,6.89s-3.84,4.38-5.71,6.56c-.95,1.08-1.89,2.18-2.79,3.3a18.87,18.87,0,0,0-2.38,3.48,2,2,0,0,0-.12.41,1.66,1.66,0,0,0,.08.39,6.36,6.36,0,0,0,.42.93,19,19,0,0,0,1.17,1.79c.82,1.19,1.75,2.31,2.66,3.44a36.08,36.08,0,0,1-3-3.14,18.17,18.17,0,0,1-1.33-1.77,6.05,6.05,0,0,1-.54-1,1.9,1.9,0,0,1-.15-.67,2.42,2.42,0,0,1,.13-.64,16.67,16.67,0,0,1,2.35-3.79c.9-1.16,1.84-2.28,2.79-3.38,1.92-2.2,4-4.21,5.89-6.41S163.59,160.05,165.62,158Z" style="fill:#263238"></path><path d="M165,161.06a7.88,7.88,0,0,1-1.68,1.16,7.31,7.31,0,0,1-1.91.72,8.39,8.39,0,0,1,3.59-1.88Z" style="fill:#263238"></path><path d="M137.6,205.14c1.56-3.73,8.5-18.78,10.22-21.93.12-.22.29-.2.19,0-4.4,11.3-8.55,18.35-10.26,21.94C137.7,205.29,137.56,205.24,137.6,205.14Z" style="fill:#263238"></path><path d="M153.08,222.55c2.89-2-1.17-4.28-1.17-4.28s6.62,1.82,8.79-1.44-2.92-5.68-3.28-5.87c.35.09,6.48,1.6,8.32-1.9s-3.55-5.32-3.9-5.42c.36,0,5.11-.32,5.9-3.29,1.36-5.12-12.29-5.43-15.3-8.48,0,0,1.19-6.74,1.28-6.93a7.68,7.68,0,0,1-3.81,3.37c-2.93.89-5.58,1.43-6.75,2.87a3.88,3.88,0,0,0-.35,4.62s-3.74-.36-5.27,2.35c-.79,1.39.74,3.89.74,3.89s-3-.16-4.22,2.33c-1,2,.71,4.18.71,4.18s-3,1.19-3.3,3.54C130.78,216.84,146.88,226.92,153.08,222.55Z" style="fill: rgb(247, 169, 160);"></path><path d="M135,208.94s-.11,0-.07.07a33,33,0,0,0,17.2,9.41c.21,0,.36-.29.14-.37A67.68,67.68,0,0,1,135,208.94Z" style="fill:#263238"></path><path d="M138.18,202c-.06-.05-.13,0-.08.11,4.65,4.72,11.91,8.68,19.4,9.09.26,0,.5-.23.21-.27C152.74,210.3,143.09,205.71,138.18,202Z" style="fill:#263238"></path><path d="M162.37,203.49c-7.17-.68-13.4-3.58-19.38-7.48-.08-.06-.14.06-.09.12,2.4,2.71,6.47,4.8,9.78,6.16a19,19,0,0,0,9.67,1.45C162.48,203.72,162.53,203.5,162.37,203.49Z" style="fill:#263238"></path><path d="M134.58,208.54c-1.09-1.31-1.84-3-1.15-4.65a3.37,3.37,0,0,1,1.63-1.74,6,6,0,0,1,2.79-.31,4.48,4.48,0,0,1-.18-5.06,3.38,3.38,0,0,1,2.15-1.2,11,11,0,0,1,2.92,0,4,4,0,0,1-.92-3.44,4.28,4.28,0,0,1,2.58-2.93,19.54,19.54,0,0,1,4.6-1.17,10,10,0,0,0,2.34-.7,4.54,4.54,0,0,0,1.93-1.79c.09-.14.08,0,0,.12a5.68,5.68,0,0,1-1.13,1.4,6.71,6.71,0,0,1-1.57,1.07,31.67,31.67,0,0,1-4.37,1.38,6.09,6.09,0,0,0-3.26,2.25,3.65,3.65,0,0,0,0,3.86s0,.15-.11.14a10.33,10.33,0,0,0-2.59.35,3.61,3.61,0,0,0-1.8,1.17,4.72,4.72,0,0,0-.13,4.7,8.06,8.06,0,0,0-2.72.76,3.38,3.38,0,0,0-1.26,1.46,4.06,4.06,0,0,0,.51,4.23.07.07,0,0,1,0,.06h0v0l0,0h0l-1,.42s0,0,0-.06A6.45,6.45,0,0,1,134.58,208.54Z" style="fill:#263238"></path><path d="M173.51,137.23c-.45,4.47-1,8.92-1.55,13.37l-.25-.36c2.64.57,5.26,1.21,7.89,1.81l.44.1-.17.43c-.7,1.74-1.39,3.49-2.12,5.22l-.12-.47c2.85,2.28,5.74,4.51,8.56,6.83s5.65,4.62,8.43,7c-3-2.12-5.89-4.31-8.81-6.51s-5.78-4.46-8.68-6.68l-.24-.18.11-.29c.69-1.75,1.43-3.47,2.15-5.21l.27.53c-2.62-.65-5.25-1.26-7.86-1.94l-.29-.08,0-.28C172,146.08,172.71,141.65,173.51,137.23Z" style="fill:#263238"></path><path d="M188,139.23c1.51,1.44,2.57,2.47,4,4s3,2.95,4.4,4.46l.29.31-.36.24-2.63,1.8,0-.61c1.16,1.06,2.33,2.12,3.47,3.21l.15.15,0,.2c-.43,3-.81,6.08-1.29,9.12s-1,6.07-1.5,9.09c.25-3.06.56-6.12.9-9.17s.73-6.1,1.09-9.15l.13.35c-1.17-1.06-2.3-2.15-3.45-3.23l-.36-.34.41-.27,2.66-1.75-.06.55c-1.44-1.51-2.81-3.08-4.22-4.62S189.39,140.82,188,139.23Z" style="fill:#263238"></path><path d="M194.62,171.15c.45,1.45.91,2.9,1.31,4.36s.82,2.91,1.2,4.37v.05c.25,3.29.41,6.58.61,9.86s.3,6.58.39,9.88c-.34-3.28-.62-6.56-.87-9.85s-.47-6.57-.64-9.86v0c-.36-1.47-.73-2.94-1-4.41S194.93,172.64,194.62,171.15Z" style="fill:#263238"></path><path d="M193.09,175.81a.67.67,0,0,1-.48-.63.68.68,0,0,1,.42-.68.65.65,0,0,1,.57.07.69.69,0,0,1,.32.55,1.08,1.08,0,0,0-.91-1,1.14,1.14,0,0,0-.85.25,1.11,1.11,0,0,0,.08,1.72,1.06,1.06,0,0,0,1.68-.91.75.75,0,0,1-.27.56A.68.68,0,0,1,193.09,175.81Z" style="fill:#263238"></path><path d="M194.78,185.27a.65.65,0,0,1-.47-.63.67.67,0,0,1,.41-.68.71.71,0,0,1,.58.07.75.75,0,0,1,.31.55,1.09,1.09,0,0,0-.9-1,1.07,1.07,0,0,0-.85.24,1.15,1.15,0,0,0-.39.89,1.12,1.12,0,0,0,.46.84,1.1,1.1,0,0,0,.87.16,1.08,1.08,0,0,0,.81-1.08.72.72,0,0,1-.27.56A.65.65,0,0,1,194.78,185.27Z" style="fill:#263238"></path><path d="M195.59,194a.7.7,0,0,1-.05-1.3.65.65,0,0,1,.57.06.68.68,0,0,1,.31.56,1.08,1.08,0,0,0-.89-1,1.06,1.06,0,0,0-.86.25,1.1,1.1,0,0,0-.38.88,1.12,1.12,0,0,0,.45.83,1.09,1.09,0,0,0,.88.17,1.06,1.06,0,0,0,.8-1.07.7.7,0,0,1-.27.55A.67.67,0,0,1,195.59,194Z" style="fill:#263238"></path><path d="M228.23,167.36c-1.21-6.84-3.51-16.35-6-18.27s-12.29-8.71-15-9.54-15-5-17.13-3.6c-1.74,1.09.54,5.67,6.36,7.69a85.68,85.68,0,0,1,9.25,4.08c1.49.58,5.21,5.21,4.32,7.35-.52,1.27-4.08,2.86-6.36,1.93s-3-5.36-5.66-7.36-7.16-1.58-7.38-.35,1.3,1.75,3.78,5.82c1.59,2.62,1.93,9,5.48,13.5a79.16,79.16,0,0,1,5,8.28Z" style="fill: rgb(247, 169, 160);"></path><path d="M195.46,147.83a4.47,4.47,0,0,1-2.28-.93,1.78,1.78,0,0,1-.54-.9,1.56,1.56,0,0,1,0-.57.82.82,0,0,1,.2-.56s0-.08-.05,0a2,2,0,0,1-.2.28c-.05.09-.08.18-.12.27a1.51,1.51,0,0,0-.07.56,1.84,1.84,0,0,0,.49,1.13,3.08,3.08,0,0,0,2.61.83S195.5,147.84,195.46,147.83Z" style="fill:#263238"></path><path d="M222.18,149.09c-2.31-3.35-8.13-9.33-13.75-11.24-3.8-1.3-16.45,5.45-16,7.9s2.67,2.37,5.91,1.87c1.18-.19,7.38-2.68,8.5-1.4,1.6,1.84,3.8,8.23,3.8,8.23Z" style="fill: rgb(247, 169, 160);"></path><path d="M192.73,144.78c1.5-2.7,4.94-4.24,8.38-5.48.06,0,.09.07,0,.09-.88.31-6.46,3.13-8.38,5.43C192.75,144.84,192.72,144.8,192.73,144.78Z" style="fill:#263238"></path><path d="M222.18,149.09c-2.31-3.35-8.13-9.33-13.75-11.24-3.8-1.3-13.69,7.11-13.23,9.55s3.64,2.53,7.09,1.19c1.12-.44,4.8-3.25,5.92-2,1.61,1.84,5.53,6.4,5.53,6.4Z" style="fill: rgb(247, 169, 160);"></path><path d="M211.47,150.19c-.37-.53-.49-.72-.87-1.24s-.77-1-1.19-1.52a4.8,4.8,0,0,0-1.2-1.18,2.52,2.52,0,0,0-1.55-.25,8.73,8.73,0,0,0-3.28,1.6c-1.13.7-3.47,1.86-5.3,1.73a3.62,3.62,0,0,1-1.45-.33,2.31,2.31,0,0,1-.89-.66c-.84-1.31.09-2.88,1.06-4a23.5,23.5,0,0,1,6.7-5l1.79-.92a5.24,5.24,0,0,1,2.19-.71c1.26-.06,3.39,1.15,4,1.51,0,0,.09-.05,0-.08-.8-.45-2.79-2-4.83-1.78a6.31,6.31,0,0,0-2.1.79c-.7.34-1.39.69-2.07,1.07a28.36,28.36,0,0,0-3.81,2.45,11.87,11.87,0,0,0-3.07,3.13,3.54,3.54,0,0,0-.09,3.65,3.09,3.09,0,0,0,2.34,1.14,5.79,5.79,0,0,0,1.61-.08,25.41,25.41,0,0,0,3.47-1.15c1.09-.48,2.06-1.27,3.19-1.66a2.17,2.17,0,0,1,1.66.05,6,6,0,0,1,1.28,1.08,18.55,18.55,0,0,1,2.15,2.37C211.46,150.49,211.63,150.41,211.47,150.19Z" style="fill:#263238"></path><path d="M223.91,152c-.86-1.6-2.46-8.28-3.84-10.29s-7.57-8.93-10.32-8.52c-3.47.52.39,6.66,2.31,9.17s1.77,6.91,1.77,6.91Z" style="fill: rgb(247, 169, 160);"></path><path d="M209.36,138.19c.68.8,1.28,1.68,1.88,2.54a20.76,20.76,0,0,1,1.65,2.5,9,9,0,0,1,.79,2.84c.06.48.09,1,.11,1.45s0,1.07,0,1.6a0,0,0,0,1-.09,0,21.22,21.22,0,0,0-.48-2.87,12.24,12.24,0,0,0-1-2.84c-.88-1.8-2.13-3.38-3-5.16C209.21,138.19,209.31,138.14,209.36,138.19Z" style="fill:#263238"></path><path d="M213.82,150a10,10,0,0,1-.71,4.92,17.54,17.54,0,0,1-1,2.3,18.66,18.66,0,0,1-1.37,2.11,19.3,19.3,0,0,0-2.38,4.15,20,20,0,0,0-1.16,4.72,12.9,12.9,0,0,1,.43-5,15.29,15.29,0,0,1,2.28-4.48,23.78,23.78,0,0,0,2.46-4.14A14.81,14.81,0,0,0,213.82,150Z" style="fill:#263238"></path><path d="M234.36,182.35l.09,3.17.31,11.4h0c-1.64,6.4-5.74,10.69-10.94,10.14h0c-2.62-.28-4.95-2.12-7.28-5.42-.38-.54-.77-1.11-1.15-1.74a86.42,86.42,0,0,1-5.11-9.91s0,0,0,0c-.54-1.2-1.1-2.46-1.68-3.77-1-2.36-2.1-4.91-3.25-7.64-.07-.15-.13-.31-.2-.47-.37-.88-.76-1.79-1.14-2.71v0c-.44-1.11,1-4.08,3.19-7.49a.87.87,0,0,1,.08-.14l.18-.26.32-.49a86,86,0,0,1,5.3-7c4-4.73,8-8.31,9.13-6.91s3.28,5.8,5.4,10.83c.28.64.55,1.31.82,2A175,175,0,0,1,234.36,182.35Z" style="fill: rgb(247, 169, 160);"></path><path d="M234.27,179.33l.18,6.19.31,11.4,0,1c-1.31,4.43-3.92,8.2-8.78,9.36a13.05,13.05,0,0,1-2.06.32c-2.61.21-5.49-2.79-8.05-6.6v0l-.13-.2a92.64,92.64,0,0,1-7.38-14.3.06.06,0,0,1,0,0v0l.2-.21,15.17-15.55,2.33-2.38,2-2,.35-.37,1.27-1.29S232.39,172,234.27,179.33Z" style="fill:#407BFF"></path><path d="M215.81,200.91c-.82-1.1-1.55-2.25-2.27-3.41s-1.39-2.35-2-3.55-1.25-2.43-1.79-3.69a22.8,22.8,0,0,1-1.37-3.87c.61,1.23,1.25,2.42,1.9,3.61l1.93,3.59c.63,1.21,1.27,2.4,1.87,3.63S215.27,199.66,215.81,200.91Z" style="fill:#263238"></path><path d="M213.16,190c1-1.19,2.16-2.3,3.26-3.43s2.21-2.25,3.34-3.36q3.36-3.31,6.79-6.58c.63-.59,1.26-1.19,1.9-1.77s1.44-1.16,2.11-1.79a.06.06,0,0,1,.08.08c-.54.56-1,1.19-1.54,1.75S228,176,227.42,176.6c-1.12,1.12-2.23,2.23-3.36,3.34-2.24,2.21-4.5,4.41-6.82,6.55-1.31,1.21-2.59,2.47-4,3.6A.08.08,0,0,1,213.16,190Z" style="fill:#263238"></path></g><g id="freepik--Pencil--inject-276"><rect x="74.91" y="425.63" width="163.41" height="30.67" style="fill:#407BFF"></rect><path d="M61.92,425.63h6.49a0,0,0,0,1,0,0V456.3a0,0,0,0,1,0,0H61.92A15.33,15.33,0,0,1,46.59,441v0A15.33,15.33,0,0,1,61.92,425.63Z" style="fill:#d3766a"></path><rect x="68.41" y="425.63" width="6.5" height="30.67" transform="translate(143.32 881.94) rotate(180)" style="fill:#c7c7c7"></rect><path d="M237.92,456.3l18-11.57,6-3.79-5.86-3.83-17.74-11.48-3.65,3.12s3.51,2.95,3.57,3l-3.65,3.11s3.52,3,3.57,3L234.5,441s3.52,3,3.57,3.09l-3.65,3s3.52,3,3.57,3.09l-3.65,3Z" style="fill:#fff"></path><polygon points="255.95 444.73 261.91 440.94 256.05 437.12 255.95 444.73" style="fill:#263238"></polygon><g style="opacity:0.1"><polygon points="82.07 429.95 99.95 429.77 117.83 429.66 153.6 429.57 189.36 429.66 207.25 429.76 225.13 429.95 207.25 430.13 189.36 430.24 153.6 430.32 117.83 430.24 99.95 430.13 82.07 429.95"></polygon><polygon points="82.07 437.26 99.95 437.08 117.83 436.98 153.6 436.89 189.36 436.98 207.25 437.08 225.13 437.26 207.25 437.45 189.36 437.55 153.6 437.64 117.83 437.55 99.95 437.45 82.07 437.26"></polygon><polygon points="82.07 444.58 99.95 444.4 117.83 444.29 153.6 444.21 189.36 444.29 207.25 444.4 225.13 444.58 207.25 444.76 189.36 444.87 153.6 444.95 117.83 444.87 99.95 444.76 82.07 444.58"></polygon><polygon points="82.07 451.9 99.95 451.71 117.83 451.61 153.6 451.52 189.36 451.61 207.25 451.71 225.13 451.9 207.25 452.08 189.36 452.19 153.6 452.27 117.83 452.18 99.95 452.08 82.07 451.9"></polygon></g></g></svg>