<svg xmlns="http://www.w3.org/2000/svg" xmlns:xlink="http://www.w3.org/1999/xlink" preserveAspectRatio="xMidYMid meet" version="1.0" viewBox="-1.1 -0.1 196.4 172.3" zoomAndPan="magnify" style="fill: rgb(0, 0, 0);" original_string_length="8210"><g id="__id119_stfntjt67s"><path d="M74.3,146.681c.365-6.7.823-13.391,1.055-20.093.113-3.285-1.512-5.349-4.267-6.171a7.13,7.13,0,0,0-8.01,2.423,8.093,8.093,0,0,0-.908,7.023c.912,3.321,1.781,6.64,2.548,10,1.728,7.581-.193,14.63-2.221,21.732a14.562,14.562,0,0,1-3.727,6.211,10.275,10.275,0,0,1-7.733,3.476c-1.829-.036-2.827-.977-3.693-2.617-2.557-4.847-.855-9.531.248-14.231,1.409-6,3.013-11.951,4.44-17.946.362-1.521,1.06-3.583-.779-4.372-1.889-.81-2.993,1.026-3.923,2.436-3.106,4.708-5.214,9.95-7.892,14.891-4.851,8.952-13.054,13.307-22.188,16.194-4.718,1.491-9.029-.382-12.439-3.747-2.038-2.01-2.185-4.9-1.93-7.641.382-4.1,2.88-7.01,5.7-9.778,4.986-4.9,11.347-7.247,17.608-9.823,5.948-2.448,11.858-4.98,18-6.945a8.731,8.731,0,0,0,5.051-3.56c1.024-1.659.776-2.51-.973-3.408a6.9,6.9,0,0,0-5.154-.274c-9.014,2.471-18.012,5-27.044,7.407-3.386.9-6.655,2.354-10.264,2.319-4.686-.046-6.9-3.019-5.255-7.41a16.441,16.441,0,0,1,10.809-10c7.116-2.333,14.447-1.8,21.756-.944,6.071.708,11.942,2.336,17.884,3.664a25.9,25.9,0,0,0,16.877-1.8c.881-.415,1.735-.99,1.748-2.053s-1.024-1.329-1.76-1.768a2.838,2.838,0,0,0-1.125-.442c-7.092-.63-13.3-4.092-19.9-6.274-8.463-2.8-17-3.862-25.821-2.17-3.951.757-7.947,1.07-11.836-.418-2.355-.9-4.317-2.266-5.13-4.828-.831-2.621-.185-4.419,2.137-5.921,6.489-4.2,13.576-4.244,20.783-2.78,7.974,1.62,15.094,5.56,22.508,8.686,3.678,1.551,7.229,3.408,10.919,4.927,8.328,3.429,14.426.324,19.538-6.207a1.46,1.46,0,0,0,.1-1.854,1.924,1.924,0,0,0-2.284-.832,23.293,23.293,0,0,1-9.082-.119,27.834,27.834,0,0,1-12.443-6.569c-2.122-1.851-1.744-4.159.853-5.315C62.2,77.477,67.18,78.6,72,80.748a19.037,19.037,0,0,0,6.242,1.634c1.364.114,2.845.193,3.625-1.212a4.018,4.018,0,0,0-.534-4.4,10.258,10.258,0,0,0-3.991-3.048c-7.719-4.052-15.554-4.125-23.535-.846a85.5,85.5,0,0,1-22.09,6,64.946,64.946,0,0,1-22.626-.8A7.721,7.721,0,0,1,7.007,77.3c-2.538-1.443-2.9-3.825-.778-5.853a19.141,19.141,0,0,1,8.891-4.671,30.986,30.986,0,0,1,7.242-.951,151.888,151.888,0,0,0,21.223-1.816A78.414,78.414,0,0,1,67.07,64.5c1.5.235,3.141.361,3.821-1.029.7-1.435-.526-2.717-1.634-3.61a23.076,23.076,0,0,0-10.989-4.435c-7.411-1.249-14.739-.254-22,1.165A49.994,49.994,0,0,1,11,55c-4.377-1.4-5.249-4.149-2.491-7.832,3-4,7.146-4.855,11.791-4.162,4.852.725,9.34,2.759,14.047,4.018a49.654,49.654,0,0,0,10.885,1.16,2.689,2.689,0,0,0,2.9-1.776,3.771,3.771,0,0,0-.851-4.139,12.051,12.051,0,0,0-4.195-2.412c-5.4-2.378-11.165-3.763-16.618-6-3.745-1.538-7.163-3.559-9.591-6.923C10.576,18.2,14.27,8.593,24.815,6.264c6.45-1.425,13.115,2,16.637,8.577,1.542,2.878,2.361,6.049,3.608,9.05,1.82,4.38,3.8,8.686,5.892,12.938a12.318,12.318,0,0,0,2.342,3.544c1.168,1.128,2.472,1.92,4.2,1.354a4.391,4.391,0,0,0,3.24-3.576c.715-4.6.722-9.16-1.034-13.606a83.026,83.026,0,0,1-3.387-9.354,15.494,15.494,0,0,1-.493-6.038,5.131,5.131,0,0,1,5.074-4.879,9.946,9.946,0,0,1,10.889,6.933c2.311,6.552,1.642,13.082-.312,19.57A71,71,0,0,1,67.547,41.01c-1.347,2.809-.972,5.54-.01,8.283a4.4,4.4,0,0,0,4.085,3.168,4.166,4.166,0,0,0,4.138-2.738,45.847,45.847,0,0,0,3.7-15.736c.519-6.277.315-12.6,1.31-18.848.688-4.318,2.276-8.064,6.318-10.353C91.812,2.111,95.745,3.263,98.2,8.093c2,3.943,1.756,7.993.545,12.071-1.892,6.371-5.316,11.984-8.794,17.563A127.892,127.892,0,0,0,81.314,52.9q-4.6,10.264,2.481,19.012c1.293,1.6,3.234,1.96,5.529,1.173,1.934-.663,2.463-2.082,2.41-3.976a23.425,23.425,0,0,0-1.453-6.724,18.151,18.151,0,0,1-1.144-5.345c-.114-5.817,4.777-9.269,10.2-7.213,7.176,2.724,9.362,9.394,5.246,16a29.123,29.123,0,0,1-5.8,6.214,60.191,60.191,0,0,0-6.221,5.833,12.674,12.674,0,0,0-2.811,5.113,2.254,2.254,0,0,0,.7,2.717,2.056,2.056,0,0,0,2.624-.13,36.545,36.545,0,0,0,14.421-17.384c3.06-7.907,3.068-16.142,2.56-24.45-.462-7.569-1.635-15.095-1.371-22.709a61.363,61.363,0,0,1,1.215-12.308c.839-3.487,2.981-5.113,6.364-5.058,3.216.052,4.959,1.574,5.811,5.125,1.689,7.031.972,14.02-.568,20.947-1.791,8.06-3.917,16.039-4.548,24.329-.383,5.03,1.312,6.694,6.2,5.484,5.59-1.383,8.687-5.572,8.27-11.343-.214-2.972-.461-5.952-.927-8.892-1.72-10.856,1.393-20.806,5.693-30.5a17.263,17.263,0,0,1,6.3-7.3A8.323,8.323,0,0,1,147.052,0c4.54-.089,7.267,3.97,5.591,8.233-2.239,5.7-5.494,10.872-8.309,16.271a46.309,46.309,0,0,0-4.676,15.258,3.8,3.8,0,0,0,.317,1.979c.394.98.865,1.251,1.8.479a15.925,15.925,0,0,0,4.368-5.25c5.621-11.35,13.285-20.88,24.581-27.1a19.027,19.027,0,0,1,4.509-1.82c4.061-1.031,7.628.42,10.212,4.1a8.983,8.983,0,0,1,.029,10.47c-1.841,2.844-4.679,4.478-7.386,6.253C168.737,35,158.85,40.234,149.24,45.933c-.349.207-.723.379-1.055.61-1.254.872-2.981,1.6-2.146,3.575.774,1.829,2.464,1.639,4.04,1.25a54.546,54.546,0,0,0,11.144-3.761c4.251-2.093,8.44-4.313,12.671-6.449a22.1,22.1,0,0,1,8.456-2.7c3.984-.271,7.037,1.937,8.66,6.3,1.321,3.548.309,6.785-2.83,9.146-2.67,2.008-5.788,2.889-8.968,3.62-8.606,1.979-17.237,1.4-25.864.193-3.62-.508-7.216-1.185-10.836-1.7-3.811-.536-7.057.9-9.949,3.214a3.336,3.336,0,0,0-1.394,3.582c.437,1.553,1.8,1.936,3.187,2.091a161.271,161.271,0,0,0,30.216.967c5.876-.446,11.764-.74,17.652-.994a29.807,29.807,0,0,1,5.466.337c3.588.511,6.14,2.8,6.753,5.865.647,3.228-.659,6.048-3.811,8.083a24.688,24.688,0,0,1-13.484,3.876,37.406,37.406,0,0,1-10.419-1.563c-5.736-1.608-11.417-3.389-17.242-4.7a73.93,73.93,0,0,1-21.106-8.3C122.1,64.8,111.4,69.753,109.142,75.809c-1.376,3.688.406,6.455,4.342,6.5,3.543.036,6.974-.91,10.455-1.416,5.228-.759,10.394-.832,15.464.91,2.141.736,4.4,1.429,4.657,4.175a6.288,6.288,0,0,1-3.514,6.571c-5.814,3.027-11.765,2.621-17.7.338A73.342,73.342,0,0,1,111.7,87.075a26.587,26.587,0,0,0-4.93-2.379,7.219,7.219,0,0,0-6.075.611c-.863.474-.9.912-.048,1.433,6.764,4.121,13.137,8.907,20.254,12.412,6.347,3.125,12.942,2.347,19.41.177,4.363-1.463,8.628-3.22,12.985-4.7a122.529,122.529,0,0,1,23.568-5.157,22.628,22.628,0,0,1,9.082.43,8.471,8.471,0,0,1,6.556,8.888,2.051,2.051,0,0,1-.6,1.635c-3.752,3.489-7.99,5.813-13.286,5.648-9.409-.294-18.837.093-28.227-.975a18.787,18.787,0,0,0-10.916,1.577c-1.451.739-2.552,1.757-2.507,3.381.044,1.589,1.508,2.106,2.769,2.634,3.95,1.656,8.063,2.569,12.309,1.772,7.751-1.456,15.4-.112,23.073.568a63.453,63.453,0,0,1,12.437,1.88c3.329.981,6.008,2.832,7.081,6.368.7,2.309.086,3.859-1.85,5.3-2.8,2.076-6,2.292-9.294,2.173-6.2-.224-11.935-2.274-17.669-4.377a77.024,77.024,0,0,1-8.531-3.785,9.96,9.96,0,0,0-5.646-1.371c-3.267.349-4.73,2.555-3.554,5.557,2.017,5.144,5.177,8.99,10.838,10.635,7.147,2.075,14.162,4.606,21.232,6.946a31.509,31.509,0,0,1,7.151,3.365c4.349,2.789,6.066,6.339,5.216,10.739-.976,5.052-4.459,8.894-9.254,9.635-7.192,1.113-13.74-.583-18.735-6.032-9.539-10.407-17.629-21.8-22.332-35.3-.445-1.278-.832-2.576-1.26-3.86-.349-1.046-1.044-1.919-2.161-1.8s-.7,1.277-.823,2.014c-.538,3.274-.961,6.57-1.581,9.828-1.182,6.2.782,11.908,2.577,17.669,1.189,3.813,2.343,7.648,2.341,11.709,0,4.358-1.822,6.979-5.786,8.284-4.383,1.444-7.919.609-10.316-2.878-4.814-7-5.658-14.555-2.209-22.354,2.133-4.823,4.767-9.422,6.963-14.219,2.023-4.417,2.3-9.156,1.875-13.948-.127-1.415-.284-2.829-.353-4.248-.073-1.5-.4-2.895-1.9-3.541a3.984,3.984,0,0,0-4.531.824,16.2,16.2,0,0,0-3.926,6.779c-2.67,7.658-3.05,15.651-3.555,23.631-.357,5.624-.923,11.229-2.977,16.534-1.392,3.6-4.37,5.85-7.6,7.554-2.192,1.157-4.616.639-6.73-.849-6.174-4.344-8.159-14.021-4.256-20.841a38.665,38.665,0,0,1,5.243-6.709c5.038-5.522,9.781-11.261,12.8-18.2a33.259,33.259,0,0,0,2.436-10.63c.352-4.151-1.843-6.8-4.833-8.743-4.878-3.168-10.049-5.882-15.057-8.854-1.281-.759-1.652-.247-1.9.924-.4,1.912.605,3.253,1.785,4.515,2.3,2.458,4.278,5.122,4.906,8.506,1.035,5.577-1.007,10.3-4.593,14.353-1.669,1.884-4.1,1.954-6.416.953a5.348,5.348,0,0,1-3.494-5.437c.131-4.025,1.814-7.6,3.388-11.2A14.822,14.822,0,0,0,91.4,99.286,3.717,3.717,0,0,0,89.48,95.16c-1.5-.875-2.552.032-3.655.853-6.032,4.491-7.594,10.31-6.062,17.6,2.139,10.169,5.918,19.855,8.269,29.948a63.662,63.662,0,0,1,1.929,19.132,17.475,17.475,0,0,1-1.03,4.75c-.869,2.383-2.291,4.174-5.028,4.393a6.678,6.678,0,0,1-6.555-3.087A17.978,17.978,0,0,1,73.76,155.81c.342-3.022.306-6.088.44-9.134Z" style="fill: rgb(82, 113, 255);"/></g></svg>