<svg xmlns="http://www.w3.org/2000/svg" xmlns:xlink="http://www.w3.org/1999/xlink" preserveAspectRatio="xMidYMid meet" version="1.0" viewBox="523.2 519.2 953.7 956.0" zoomAndPan="magnify" style="fill: rgb(0, 0, 0);" original_string_length="2730"><g><g id="__id102_snu59qxvck"><path d="M 730.484375 1042.261719 C 730.484375 1027.210938 748.667969 1019.679688 759.300781 1030.320312 L 769.890625 1040.898438 L 841.46875 1112.480469 C 847.808594 1118.820312 848.050781 1128.960938 842.183594 1135.589844 C 841.953125 1135.851562 841.71875 1136.101562 841.46875 1136.351562 L 759.300781 1218.519531 C 748.667969 1229.148438 730.484375 1221.621094 730.484375 1206.578125 L 730.484375 1042.261719 M 795.84375 1475.171875 L 1240.699219 1030.320312 C 1251.328125 1019.679688 1269.519531 1027.210938 1269.519531 1042.261719 L 1269.519531 1475.171875 L 1476.828125 1475.171875 L 1476.828125 541.738281 C 1476.828125 526.699219 1458.648438 519.171875 1448.011719 529.808594 L 1011.929688 965.890625 C 1011.71875 966.089844 1011.519531 966.289062 1011.308594 966.488281 L 1011.289062 966.511719 C 1004.660156 972.46875 994.4375 972.261719 988.066406 965.890625 L 916.492188 894.308594 L 551.988281 529.808594 C 541.347656 519.171875 523.171875 526.699219 523.171875 541.738281 L 523.171875 1475.171875 L 795.84375 1475.171875" style="fill: rgb(82, 113, 255);"/></g><g id="__id103_snu59qxvck"><path d="M 845.097656 1117.878906 C 844.277344 1115.921875 843.066406 1114.078125 841.46875 1112.480469 L 769.890625 1040.898438 L 841.46875 1112.480469 C 843.066406 1114.078125 844.277344 1115.921875 845.097656 1117.878906 M 1000 970.828125 C 1000.03125 970.828125 1000.058594 970.828125 1000.101562 970.828125 C 1000.058594 970.828125 1000.03125 970.828125 1000 970.828125 M 999.9375 970.828125 C 995.636719 970.808594 991.34375 969.160156 988.066406 965.890625 C 991.34375 969.160156 995.636719 970.808594 999.9375 970.828125 M 1009.738281 967.738281 C 1010.269531 967.359375 1010.789062 966.949219 1011.289062 966.511719 C 1010.789062 966.949219 1010.269531 967.359375 1009.738281 967.738281" style="fill: rgb(234, 234, 234);"/></g><g id="__id104_snu59qxvck"><path d="M 842.183594 1135.589844 C 846.570312 1130.628906 847.539062 1123.710938 845.097656 1117.878906 C 844.277344 1115.921875 843.066406 1114.078125 841.46875 1112.480469 L 769.890625 1040.898438 L 916.492188 894.308594 L 988.066406 965.890625 C 991.34375 969.160156 995.636719 970.808594 999.9375 970.828125 C 999.960938 970.828125 999.980469 970.828125 1000 970.828125 C 1000.03125 970.828125 1000.058594 970.828125 1000.101562 970.828125 C 1003.480469 970.808594 1006.859375 969.78125 1009.738281 967.738281 C 1010.269531 967.359375 1010.789062 966.949219 1011.289062 966.511719 L 842.183594 1135.589844" style="fill: rgb(255, 145, 77);"/></g></g></svg>